<?xml version="1.0" encoding="UTF-8" standalone="no"?>
<svg
   xmlns:dc="http://purl.org/dc/elements/1.1/"
   xmlns:cc="http://creativecommons.org/ns#"
   xmlns:rdf="http://www.w3.org/1999/02/22-rdf-syntax-ns#"
   xmlns:svg="http://www.w3.org/2000/svg"
   xmlns="http://www.w3.org/2000/svg"
   xmlns:sodipodi="http://sodipodi.sourceforge.net/DTD/sodipodi-0.dtd"
   xmlns:inkscape="http://www.inkscape.org/namespaces/inkscape"
   version="1.0"
   width="1216.000000pt"
   height="1273.000000pt"
   viewBox="0 0 1216.000000 1273.000000"
   preserveAspectRatio="xMidYMid meet"
   id="svg14"
   sodipodi:docname="rick-and-morty-icon-circle-png-3.svg"
   inkscape:version="0.92.5 (2060ec1f9f, 2020-04-08)">
  <defs
     id="defs18" />
  <sodipodi:namedview
     pagecolor="#ffffff"
     bordercolor="#666666"
     borderopacity="1"
     objecttolerance="10"
     gridtolerance="10"
     guidetolerance="10"
     inkscape:pageopacity="0"
     inkscape:pageshadow="2"
     inkscape:window-width="1875"
     inkscape:window-height="1052"
     id="namedview16"
     showgrid="false"
     inkscape:zoom="1"
     inkscape:cx="811.76481"
     inkscape:cy="1017.8236"
     inkscape:window-x="45"
     inkscape:window-y="28"
     inkscape:window-maximized="0"
     inkscape:current-layer="svg14" />
  <metadata
     id="metadata2">
Created by potrace 1.15, written by Peter Selinger 2001-2017
<rdf:RDF>
  <cc:Work
     rdf:about="">
    <dc:format>image/svg+xml</dc:format>
    <dc:type
       rdf:resource="http://purl.org/dc/dcmitype/StillImage" />
    <dc:title></dc:title>
  </cc:Work>
</rdf:RDF>
</metadata>
  <g
     transform="translate(0.000000,1273.000000) scale(0.100000,-0.100000)"
     fill="#000000"
     stroke="none"
     id="g12">
    <path
       d="m 5460,10779 c 6,-19 10,-50 10,-70 0,-33 31,-79 54,-79 5,0 37,14 71,30 81,38 162,54 247,47 111,-9 156,-46 203,-168 35,-88 72,-123 164,-153 174,-57 328,-84 550,-96 188,-9 636.5,54.5 591.5,94.5 -30,27 -949.5,230.5 -1070.5,278.5 -190,74 -373,117 -504,117 -66,0 -181,11 -283,26 l -42,6 z"
       id="path4"
       inkscape:connector-curvature="0"
       sodipodi:nodetypes="csscccccccsccc" />
    <path
       d="m 7703,10333 c -13,-3 -383,38 -383,34 0,-25 408,-120 462,-152 34,-21 78,-49 96,-62 17,-13 58,-33 89,-44 85,-29 93,-39 93,-124 0,-69 -2,-74 -35,-108 v 0 l 2,-55 c 21,-11 56,-22 78,-26 105,-18 226,-69 330,-139 144,-97 450,-457 530,-622 81,-167 94,-247 106,-650 5,-176 12,-353 15,-392 l 6,-73 -48.5,-127.5 c -21.6878,-57.0144 -63.5,122.5 -77.5,205.5 -3,19 -30,95 -60,170 -30,75 -59,157 -65,182 -13,57 -14,215 -1,259 9,32 7,37 -54,105 -35,39 -122,151 -195,249 -206,278 -295,367 -436,436 -78,39 -111,47 -280,72 -184,26 -39.5,240.5 -387.5,407.5 -355,170 -776.5,52.5 -1000.5,75.5 -135,15 -77.5,109 -159.5,176 -98,81 32.5,289.5 -131.5,248.5 -121,-31 -485,-373.5 -659,-460.5 -165,-82 -236,-103 -329,-95 -85,7 -118,23 -202,97 -145,129 -206,139 -373,62 -59,-27 -169,-75 -243,-106 -167,-70 -252,-123 -366,-227 -173,-157 -341,-251 -534,-299 -109,-28 -138,-40 -184,-80 -45,-40 -72,-90 -81,-152 -14,-90 -57,-132 -175,-168 -36,-11 -83,-29 -105,-40 -23,-12 -111,-33 -210,-50 -408,-72 -446,-108 -561,-538 -47,-176 -72,-236 -146,-351 -26,-40 -48,-79 -48,-86 0,-6 9,-20 20,-30 25,-23 65,-17 158,24 57,25 84,31 140,31 91,0 97,-7 97,-119 v -87 l -62,-77 c -34,-42 -110,-154 -169,-249 -135,-218 -198,-303 -286,-381 -85,-76 -102,-107 -128,-238 -11,-57 -59,-219 -106,-359 -137,-410 -155,-501 -120,-610 18,-58 156,-340 166,-340 3,0 17,44 29,98 69,288 177,529 309,690 33,40 37,42 88,42 h 53 l 16,-52 c 26,-88 20,-188 -20,-329 -99,-347 -101,-601 -8,-909 19,-63 52,-153 74,-200 37,-79 50,-95 198,-240 105,-103 169,-174 190,-212 18,-31 39,-62 46,-68 10,-8 15,-31 15,-64 0,-100 38,-198 154,-399 69,-121 112,-218 122,-276 3,-20 30,-88 60,-152 53,-114 54,-119 54,-208 0,-84 2,-91 20,-91 74,0 214,-93 293,-196 23,-29 690.5,-319 692.5,-318 1,2 -666.5,331 -690.5,407 -74,229 -84,322 -77,760 l 2,177 h 58 58 l 46,-62 c 56,-78 106,-175 162,-322 85,-219 107,-253 309,-469 145,-156 218,-252 250,-328 8,-20 -117.5,-163 -117.5,-163 6,-3 176.5,128 205.5,146 51,33 54,33 173,33 146,0 156,-4 305,-123 156,-125 246,-164 451,-197 304,-48 356,-58 436,-85 48,-17 98,-30 110,-30 12,0 32,-9 46,-19 l 25,-20 59,36 c 65,39 125,63 158,63 15,0 25,9 33,29 6,16 21,36 34,44 40,26 652,96 839,97 90,0 125,11 208,64 l 41,26 -24,36 c -30,44 -35,137 -10,184 l 15,29 -47,-4 c -303,-28 -768,-40 -835,-22 -26,7 -28,11 -28,62 0,30 2,55 5,55 3,0 145,43 315,96 170,52 345,102 387,111 105,21 126,34 169,101 108,168 292,270 546,302 143,18 172,27 321,95 152,70 197,99 371,234 178,138 285,190 421,206 102,12 195,86 195,157 0,45 39,135 81,188 22,28 74,74 116,103 177,121 224,161 282,232 152,189 214,356 191,518 -6,38 -21,187 -35,331 -37,386 -73,581 -145,777 -18,49 -30,102 -30,131 v 48 h 54 c 51,0 55,-2 97,-47 90,-97 176,-234 229,-366 50,-126 69,-218 90,-446 21,-220 45,-349 81,-430 18,-40 20,-58 14,-141 -3,-52 -9,-111 -12,-130 -4,-26 6,-12 40,56 80,163 129,333 178,624 34,204 38,348 14,516 -18,127 -28,157 -19,64 3,-35 2,-129 -2,-208 -8,-173 -13,-183 -96,-190 -71,-6 -124,12 -142,46 -7,15 -19,52 -25,82 -25,121 -78,289 -181,575 -117,325 -160,468 -194,634 l -22,107 4,-228 c 3,-125 1,-266 -3,-313 l -7,-85 h -52 -51 l -138,498 c -100,365 -137,514 -137,554 v 56 l 47,16 c 26,9 67,16 93,16 43,0 49,-3 77,-42 66,-92 115,-210 143,-343 l 19,-90 -5,145 c -8,203 -16,225 -124,330 -99,96 -103,104 -154,255 -44,127 -53,146 -101,209 -33,44 -35,50 -35,127 0,100 15,131 78,163 55,28 102,72 102,95 0,9 -43,88 -95,174 -90,151 -135,246 -135,286 0,14 -14,20 -72,29 -104,16 -161,58 -258,194 -42,59 -98,130 -123,157 -44,47 -47,53 -47,106 0,96 24,117 140,125 l 75,5 -99,74 c -247,185 -544,345 -786,425 -142,46 -181,55 -217,49 z M 5821,9726 c 139,-55 270,-90 421,-112 139,-20 249,-15 443,22 111,21 161,25 245,22 131,-4 158,-16 302,-138 148,-125 240,-221 306,-320 53,-79 57,-89 61,-154 3,-58 1,-72 -15,-83 -27,-20 -143,-17 -175,5 -14,9 -54,36 -88,59 -71,48 -104,49 -70,2 45,-64 69,-144 69,-234 0,-48 -5,-95 -11,-107 -23,-43 -135,-62 -209,-36 -19,6 -80,47 -137,90 l -104,79 -29,-24 c -15,-13 -59,-32 -97,-42 -200,-51 -221,-62 -258,-135 l -25,-50 19,-39 c 11,-21 26,-41 34,-44 8,-3 34,7 58,21 38,22 56,26 125,27 75,0 85,-2 135,-34 30,-19 68,-42 85,-53 l 31,-18 44,32 c 60,43 102,57 180,58 94,0 158,-22 219,-77 55,-50 90,-109 109,-188 17,-67 71,-181 170,-354 127,-222 157,-306 170,-468 11,-126 30,-163 151,-302 100,-116 139,-182 175,-306 20,-69 27,-115 28,-195 l 2,-105 -77,-3 c -73,-3 -78,-2 -113,29 -19,17 -37,30 -39,28 -2,-2 -11,-18 -20,-36 -15,-30 -14,-35 14,-123 56,-169 51,-363 -15,-547 -105,-295 -286,-442 -915,-743 -135,-65 -294,-146 -355,-180 -60,-34 -121,-69 -135,-76 -16,-9 -57,-14 -110,-14 -112,0 -130,11 -130,83 v 52 l 113,79 c 348,247 510,384 582,494 68,104 -41,66 -186,-64 -102,-92 -188,-154 -334,-241 -60,-36 -136,-85 -167,-109 -135,-102 -188,-116 -468,-121 -223,-5 -225,-5 -259,19 -19,12 -46,45 -60,73 -25,48 -26,56 -26,230 0,200 -6,224 -65,283 -44,44 -99,71 -182,88 -89,19 -124,37 -149,77 -18,28 -20,45 -17,137 4,101 6,108 47,190 66,128 74,156 56,190 -25,48 -85,88 -180,120 -110,37 -125,38 -125,6 0,-37 -20,-87 -60,-146 -62,-92 -63,-96 -44,-132 44,-84 204,-309 258,-363 34,-33 89,-75 124,-93 l 62,-33 v -56 -56 l -117,6 c -313,18 -501,81 -646,219 l -60,56 6,95 c 9,149 -13,181 -205,298 -176,109 -218,171 -218,323 1,99 22,151 120,296 95,139 172,227 274,309 116,93 111,91 210,91 h 89 l 40,-42 40,-43 42,41 c 27,27 70,52 121,73 165,67 202,89 255,153 92,110 123,128 227,128 87,-1 137,-24 193,-90 66,-79 68,-79 139,-16 110,99 193,126 385,126 185,0 281,-26 378,-102 53,-42 67,-75 67,-155 0,-113 -38,-143 -185,-143 -70,0 -97,5 -148,26 -82,35 -114,29 -281,-47 -146,-66 -177,-89 -156,-114 17,-21 24,-19 81,19 60,42 103,50 246,44 123,-5 206,-27 256,-69 31,-26 32,-30 35,-110 3,-78 1,-88 -27,-141 -17,-32 -31,-64 -31,-72 0,-21 53,-58 140,-99 45,-20 91,-51 115,-76 l 40,-42 v -82 c 0,-77 -2,-85 -33,-130 -43,-61 -94,-112 -135,-134 -53,-29 -191,-24 -307,10 -261,76 -320,121 -320,245 0,84 16,111 95,160 36,23 65,45 65,50 0,14 -73,78 -109,96 -16,9 -40,16 -51,16 -47,0 -207,-96 -229,-138 -15,-28 25,-80 108,-141 98,-71 104,-87 97,-230 -3,-64 -8,-134 -12,-157 -9,-64 10,-72 85,-35 49,25 73,31 126,31 55,0 68,-3 83,-22 9,-11 29,-35 43,-51 l 26,-30 47,48 c 74,78 89,85 186,85 109,0 132,-14 203,-122 31,-46 69,-91 85,-100 30,-18 30,-18 79,15 26,18 73,52 103,75 30,23 76,49 102,56 62,19 94,41 107,75 15,36 7,57 -63,160 l -56,82 v 84 c 0,113 8,119 193,150 48,8 105,57 130,113 23,54 19,70 -38,158 -28,43 -56,103 -74,160 -29,94 -94,209 -245,434 -92,137 -245,292 -346,351 -84,49 -236,191 -244,230 -3,13 -8,50 -11,81 -4,32 -14,67 -24,80 l -18,22 -54,-22 c -83,-33 -134,-41 -259,-42 -149,0 -262,-14 -336,-39 -37,-13 -83,-21 -126,-21 -84,0 -88,6 -88,127 0,99 16,145 88,250 94,138 211,213 373,239 95,15 151,38 182,72 17,19 17,21 -8,50 -14,16 -43,37 -66,46 -37,15 -46,15 -93,2 -28,-8 -103,-22 -166,-31 -199,-28 -268,-53 -348,-127 -23,-21 -54,-43 -68,-48 -34,-13 -170,-13 -196,1 -43,23 -63,146 -35,213 7,16 44,54 81,85 50,40 79,74 104,119 40,73 37,92 -22,137 l -36,27 -52,-47 c -63,-56 -130,-92 -266,-139 -185,-64 -225,-90 -341,-220 -18,-21 -49,-44 -67,-52 -45,-19 -147,-18 -185,2 -28,14 -68,79 -69,111 0,6 -5,24 -10,38 -10,26 -13,24 -211,-167 -217,-208 -297,-300 -362,-414 l -42,-73 -56,-1 c -68,0 -69,2 -69,130 v 84 l -66,-64 c -94,-93 -173,-204 -328,-458 -74,-122 -157,-252 -183,-288 -82,-112 -83,-114 -83,-184 0,-242 -116,-573 -352,-1002 l -70,-128 h -57 -57 l -22,53 c -12,29 -22,73 -22,98 0,52 243,1454 267,1542 33,119 102,186 221,214 134,31 161,49 202,140 56,123 118,178 330,293 63,35 131,74 150,86 25,18 49,24 87,24 h 52 l 3,-72 3,-71 90,123 c 50,67 123,168 164,224 108,147 283,316 407,392 55,34 121,69 147,78 66,22 187,20 257,-4 30,-11 61,-19 69,-20 27,0 82,52 127,120 50,77 100,125 153,148 53,23 230,22 298,-1 50,-18 55,-18 110,-1 32,9 78,23 103,31 29,8 77,12 136,9 78,-4 105,-10 205,-50 z m 1994,-330 c 228,-112 346,-189 441,-288 83,-85 119,-152 162,-298 61,-210 67,-251 67,-450 0,-166 -2,-193 -23,-260 -26,-82 -78,-184 -124,-242 l -30,-38 h 25 c 20,0 29,-11 57,-72 94,-204 102,-411 31,-814 -17,-93 -32,-185 -33,-204 l -3,-35 -56,-3 -56,-3 -6,98 c -4,54 -19,181 -33,283 -40,275 -38,556 3,728 4,17 1,22 -16,22 -12,0 -21,1 -21,3 0,19 -33,234 -41,272 -24,107 -73,155 -156,155 -102,0 -187,53 -211,132 -12,37 -32,247 -32,333 0,48 6,66 37,117 36,58 36,60 24,106 -15,60 -58,124 -156,237 -120,137 -155,197 -155,262 v 53 h 58 c 53,0 74,-8 247,-94 z m 909,-1084 c 28,-102 36,-213 34,-464 -2,-224 -1,-248 19,-308 12,-36 24,-87 28,-113 3,-26 26,-89 51,-140 73,-152 96,-259 101,-480 7,-266 -16,-419 -111,-732 -19,-60 -37,-122 -40,-137 -10,-43 33,-117 103,-177 78,-67 91,-108 91,-272 0,-198 -64,-390 -167,-500 -45,-48 -67,-59 -186,-93 -65,-19 -117,-60 -140,-109 -8,-17 -18,-66 -22,-107 -12,-139 -51,-190 -180,-235 -44,-15 -185,-73 -312,-127 -379,-161 -535,-206 -745,-215 l -118,-6 v 54 c 0,50 3,56 38,85 96,79 218,145 433,234 260,109 392,192 527,334 137,145 221,283 265,436 41,143 42,215 3,154 -35,-52 -165,-191 -235,-249 -39,-33 -110,-84 -158,-112 l -86,-53 h 57 56 v -56 c 0,-47 -5,-64 -35,-109 -20,-29 -66,-82 -104,-117 -121,-113 -234,-167 -528,-253 -433,-126 -614,-224 -840,-452 -97,-98 -134,-129 -185,-153 -83,-38 -187,-54 -318,-47 -124,6 -189,22 -325,77 -124,50 -160,57 -209,36 -23,-10 -67,-16 -111,-16 h -73 l -89,88 c -70,70 -111,100 -203,151 -203,112 -271,155 -330,208 -100,91 -141,170 -183,359 -26,113 -61,212 -165,464 -34,80 -72,185 -87,235 -28,97 -55,298 -55,407 v 68 h 53 53 l 24,-82 c 36,-125 159,-357 322,-609 81,-125 174,-276 208,-335 71,-126 93,-152 162,-189 49,-27 55,-27 217,-29 159,-1 168,-2 216,-27 48,-26 102,-78 192,-186 74,-89 214,-163 310,-163 62,0 155,30 267,86 219,111 381,169 766,275 335,92 559,167 699,234 111,54 235,124 229,130 -2,2 -36,-8 -76,-21 -39,-14 -116,-31 -170,-38 -64,-9 -127,-26 -184,-50 -94,-39 -197,-54 -282,-42 l -46,7 v 52 52 l 128,59 c 370,169 570,322 722,551 163,246 256,493 276,733 l 7,82 h 55 c 43,0 67,-7 108,-30 29,-16 55,-26 58,-22 2,4 0,37 -5,72 -5,36 -12,241 -16,455 -5,404 5,699 32,927 18,146 74,553 81,586 4,19 10,22 58,22 h 53 z M 4202,8109 c 51,-28 62,-143 24,-264 l -24,-75 25,-20 c 14,-11 28,-20 32,-20 3,0 38,31 78,69 148,145 306,184 638,161 83,-6 218,-11 300,-11 231,0 260,-19 260,-166 0,-81 -1,-86 -28,-109 -28,-24 -31,-24 -220,-24 -213,1 -297,-10 -449,-61 -170,-57 -320,-136 -548,-289 -152,-102 -147,-100 -240,-100 h -81 l -14,34 c -8,19 -18,80 -21,135 -4,55 -10,98 -15,96 -4,-3 -21,-29 -37,-58 -29,-52 -47,-65 -132,-96 -14,-5 -53,-29 -87,-55 -58,-43 -62,-47 -53,-71 6,-15 10,-75 10,-134 0,-146 -17,-178 -156,-308 l -105,-97 43,-20 c 63,-30 78,-68 78,-190 0,-54 -4,-149 -10,-210 -5,-61 -14,-192 -20,-291 -14,-247 -33,-327 -113,-483 -40,-80 -41,-84 -23,-97 10,-8 39,-17 65,-20 143,-20 178,-56 239,-247 34,-106 69,-167 111,-195 22,-14 45,-17 148,-14 176,4 213,-22 252,-171 90,-345 255,-602 556,-866 173,-152 306,-252 418,-314 l 97,-53 v -52 c 0,-52 0,-52 -35,-59 -20,-3 -106,-4 -193,-2 -189,6 -258,24 -474,123 l -143,66 -170,-1 c -197,-1 -246,9 -375,72 -70,33 -101,57 -176,132 -154,155 -201,275 -211,541 -6,166 -15,205 -53,225 -18,9 -21,3 -45,-74 -14,-46 -36,-95 -50,-110 -22,-24 -31,-26 -104,-26 -76,0 -82,2 -116,32 -50,43 -157,200 -202,293 -34,72 -37,87 -43,199 -7,131 -11,142 -90,272 -60,96 -72,131 -77,224 -9,137 42,312 116,400 65,78 108,152 171,301 34,79 70,159 80,177 20,32 19,32 0,22 -11,-6 -45,-31 -75,-56 -94,-76 -112,-84 -193,-84 -88,0 -133,18 -162,65 -16,27 -20,50 -20,130 0,85 4,106 31,173 91,229 248,453 490,700 119,121 130,136 124,160 -3,15 -9,74 -12,131 -10,193 22,236 262,351 88,42 202,103 253,134 52,31 128,74 170,96 43,21 92,50 111,64 31,23 45,26 114,26 43,0 87,-5 99,-11 z M 9186,7073 c 20,-90 41,-168 90,-329 85,-285 95,-336 101,-534 4,-134 2,-194 -10,-256 -29,-152 -95,-288 -163,-334 -31,-20 -53,-26 -117,-29 l -80,-3 6,78 c 3,44 12,122 21,174 28,180 36,353 36,806 v 454 h 55 c 51,0 55,-2 61,-27 z M 5002,5438 c 112,-94 284,-273 386,-399 92,-114 92,-114 92,-171 v -58 h -58 c -128,0 -257,53 -348,144 -71,71 -107,132 -192,316 -49,106 -62,145 -62,183 v 47 h 55 c 52,0 57,-3 127,-62 z m 4464,-129 c 3,-6 8,-56 11,-112 10,-200 -48,-353 -188,-502 -136,-143 -290,-220 -465,-232 l -84,-6 1,59 v 59 l 120,95 c 244,193 400,384 466,571 l 28,79 h 52 c 28,0 55,-5 59,-11 z M 7710,4041 v -60 l -77,-60 c -124,-97 -289,-170 -568,-251 -155,-45 -264,-38 -295,19 -5,11 -10,45 -10,75 0,54 2,58 57,119 93,101 93,101 213,108 81,4 134,15 230,44 161,48 243,63 358,64 l 92,1 z M 6674,3636 c 41,-17 56,-55 56,-141 0,-118 -45,-152 -315,-239 -360,-115 -439,-131 -625,-123 -138,6 -214,25 -315,80 l -60,32 -3,61 -3,61 83,6 c 109,8 229,40 472,127 162,58 321,103 501,143 47,11 178,6 209,-7 z M 4745,3106 c 282,-76 676,-116 1173,-116 h 202 v -54 -54 l -57,-38 c -77,-51 -209,-100 -325,-120 -143,-25 -456,-15 -598,19 -206,49 -353,112 -517,220 l -93,61 v 59 59 l 58,-4 c 31,-2 102,-17 157,-32 z"
       id="path6"
       inkscape:connector-curvature="0"
       sodipodi:nodetypes="cscccscccccccccscsccccccccccccccccccccccccsccsscccccccsccsccccccccscccsscccccccccccccscccscccsccccccccccssccccccsscccccsscscccccccccccccccccccccccsccscccccccscscscccsccccccccccccccccscccccccccscccccccccccccccccsscccccsscccccccccssccccccscccccccccccccccscccccccccscssccccccccscccscccscscscccccsccccscccsccccscccccccccccccssccccccccccccccccccccccccccsccccscccccscccccsccccccccccsccccccccscccscccccccccsscscscccscscccsccccccsccccccccsccccccccccsccccccccscccccccsccccccccccscccscccccccccccsccccccsccccccsccsscccssccccccccscccsccccccccccccscccccccccccsccccccccccscsccccccccsccccccccccscscccscsscscscccccccccccsccccscscccccccscccccccscccscccccccccccc" />
    <path
       d="M9671 4353 c-39 -47 -139 -158 -222 -246 -83 -87 -191 -206 -240 -262 -79 -91 -97 -106 -142 -121 -29 -9 -86 -34 -127 -55 -75 -37 -221 -128 -208 -129 4 0 42 14 85 31 151 59 299 150 472 289 108 87 176 126 237 135 l39 7 23 81 c12 45 53 144 90 220 38 75 67 137 67 137 -1 0 -34 -39 -74 -87z"
       id="path8" />
    <path
       d="m 8255,3374 c -204,-44 -341,-115 -496,-260 -114,-107 -188,-153 -302,-189 l -69,-22 -208,-24 c 26,-7 400,-5 515,-9 216,-8 228,-10 341,-55 41,-17 75,-24 90,-21 38,10 99,71 130,130 23,45 37,59 78,78 27,12 62,35 78,50 25,23 27,30 18,48 -10,19 -20,20 -155,20 -171,0 -175,2 -175,89 0,31 6,64 13,73 6,8 66,34 132,58 66,23 485,198 487,200 9,8 -409,-152 -477,-166 z"
       id="path10"
       inkscape:connector-curvature="0"
       sodipodi:nodetypes="ccccccccccccsscccc" />
  </g>
  <path
     style="fill:#66ff00;stroke-width:1.79802263"
     d="m 840.87214,1044.3268 c -4.20256,-7.8526 -2.32181,-11.8632 9.37636,-19.9949 53.68541,-37.31816 86.74456,-67.6209 83.36886,-76.41781 -1.53346,-3.99612 -12.04747,1.8564 -29.3151,16.31799 -7.72627,6.47074 -18.09331,14.47919 -23.03787,17.79657 -38.04301,25.52365 -58.67471,38.01975 -65.90001,39.91385 -4.59981,1.2059 -21.18657,2.709 -36.85946,3.3403 -31.82437,1.2818 -34.50981,0.6547 -41.47787,-9.6852 -3.45684,-5.1296 -4.1119,-8.508 -4.17848,-21.55005 -0.0433,-8.50675 -0.76714,-21.40851 -1.60827,-28.6706 -1.31402,-11.34498 -2.33741,-14.03756 -7.26953,-19.12619 -6.27563,-6.47481 -13.48523,-10.02155 -29.13326,-14.33206 -14.37792,-3.96063 -17.65421,-8.61634 -17.6293,-25.05183 0.0162,-11.13172 0.94838,-14.77802 7.1727,-28.07638 9.19734,-19.65023 9.18639,-23.18505 -0.0965,-31.13083 -7.27129,-6.22395 -30.34465,-15.22061 -33.7067,-13.14276 -0.93105,0.57542 -2.20048,3.58452 -2.82096,6.68688 -0.62046,3.10237 -3.9614,10.30476 -7.42432,16.00532 -3.4629,5.70056 -6.29619,12.03605 -6.29619,14.07888 0,4.26 21.29659,36.81149 31.96438,48.85703 3.94111,4.45011 11.70143,10.92299 17.24515,14.38418 9.38564,5.85989 10.08106,6.76834 10.10235,13.19708 l 0.0228,6.90399 -15.7327,-1.21458 c -38.02201,-2.93535 -63.18979,-11.22133 -81.36039,-26.78631 l -9.88913,-8.47106 v -15.05413 c 0,-18.6105 -1.81726,-21.52251 -21.66453,-34.7157 -30.74475,-20.43713 -33.88117,-24.62836 -33.92653,-45.33669 -0.0261,-11.85567 0.68722,-14.81964 5.90217,-24.52894 13.94251,-25.95845 44.74275,-59.60623 60.86878,-66.4962 3.18221,-1.35961 9.61656,-2.47203 14.29858,-2.47203 7.15557,0 9.46679,0.92467 14.49668,5.79984 4.34902,4.21523 6.6501,5.32055 8.42219,4.04555 1.34104,-0.96485 5.15968,-3.84165 8.48586,-6.39288 3.32618,-2.55123 12.52048,-7.3815 20.43177,-10.73393 11.60122,-4.91603 16.6788,-8.42611 26.24434,-18.14242 8.771,-8.90928 13.85819,-12.58514 19.53123,-14.11274 13.36431,-3.59863 25.75738,0.47946 34.24394,11.26837 7.16096,9.1037 9.51468,9.23538 19.79709,1.10762 15.37991,-12.15713 23.26972,-14.84397 45.95985,-15.65146 22.64394,-0.80586 38.60448,2.28093 49.71484,9.61492 9.75943,6.44225 12.9509,12.30509 12.9509,23.79129 0,7.96702 -0.75164,10.4362 -3.97028,13.0425 -6.34684,5.13936 -19.89029,6.13881 -33.04577,2.43864 -6.27116,-1.76386 -14.63856,-3.13717 -18.59421,-3.0518 -11.29204,0.24369 -47.6476,17.27991 -47.6476,22.32768 0,4.14644 6.48955,3.71101 14.86572,-0.99747 8.60403,-4.83655 9.61899,-4.98322 28.94042,-4.18189 20.26091,0.84028 29.78593,3.33247 35.82767,9.37422 4.72365,4.72366 4.19122,23.79942 -0.96026,34.40268 l -4.03546,8.30622 4.47952,3.62729 c 2.46374,1.99502 9.0138,5.9162 14.55568,8.71374 5.54188,2.79753 12.62406,7.23034 15.73816,9.85069 5.12496,4.31235 5.66136,5.7297 5.65527,14.94304 -0.007,10.8162 -3.24674,18.14879 -12.31326,27.87005 -7.13534,7.65064 -13.34607,10.1781 -25.01056,10.1781 -22.126,0 -59.1324,-13.46296 -64.2595,-23.37769 -3.05816,-5.91384 -3.56238,-18.39106 -0.94112,-23.28892 0.96479,-1.8027 5.96969,-6.30621 11.12201,-10.0078 l 9.36788,-6.73014 -7.38047,-6.88443 c -4.05927,-3.78644 -9.57776,-7.43592 -12.26332,-8.10996 -8.92513,-2.24007 -34.96465,13.46418 -34.96465,21.08694 0,1.92559 3.76128,6.91061 8.35841,11.07779 4.59713,4.16721 10.77961,9.85371 13.73885,12.63667 l 5.38046,5.05994 -0.94333,23.25891 -0.94335,23.25892 4.7352,-0.0637 c 2.60436,-0.0351 6.75797,-1.2201 9.23025,-2.63339 2.47228,-1.41328 8.85942,-2.59828 14.19363,-2.63331 8.99504,-0.0591 10.12598,0.42538 15.59044,6.67886 l 5.89187,6.74259 9.20098,-8.99011 9.201,-8.99012 h 12.65571 c 14.09173,0 12.02773,-1.44115 31.80786,22.20932 4.25776,5.09083 8.41491,9.25608 9.23814,9.25608 0.82322,0 6.64439,-3.66581 12.93591,-8.14627 6.29151,-4.48043 15.88923,-10.21489 21.32825,-12.74323 19.16661,-8.90965 20.35219,-13.57805 8.0911,-31.86006 -7.28124,-10.85675 -8.0911,-13.11195 -8.0911,-22.53124 0,-12.9757 2.25605,-15.30973 17.71352,-18.32582 12.39451,-2.41843 20.14926,-7.58199 24.7509,-16.48059 3.35286,-6.48372 2.36593,-11.19555 -4.77641,-22.80333 -2.95446,-4.8016 -6.98687,-13.42465 -8.96091,-19.16232 -7.50371,-21.8099 -33.59041,-62.85577 -52.80155,-83.08011 -6.93017,-7.29568 -19.11476,-17.99341 -27.07685,-23.77274 -7.96209,-5.77935 -18.33161,-14.45615 -23.04337,-19.28179 -7.41301,-7.59217 -8.82967,-10.26599 -10.51823,-19.85204 -2.6738,-15.17941 -4.21822,-16.1127 -19.12753,-11.55857 -8.43265,2.57579 -19.25946,3.98824 -35.50632,4.63213 -12.85586,0.50947 -27.8244,2.09457 -33.26342,3.52244 -16.44267,4.31655 -24.62951,5.18683 -28.63376,3.04383 -3.22359,-1.72522 -3.73065,-3.68718 -3.73065,-14.43488 0,-13.90344 1.41611,-18.08279 11.01875,-32.51962 12.45611,-18.72679 26.71455,-27.82909 51.88858,-33.12461 22.19968,-4.66985 27.85775,-10.60335 18.2755,-19.1651 -6.95734,-6.21637 -8.15093,-6.23675 -39.82827,-0.68025 -27.78335,4.87346 -36.38802,7.98202 -49.23139,17.78558 -7.92764,6.05131 -9.51163,6.54989 -20.80909,6.54989 -14.8968,0 -16.66291,-1.64367 -17.73812,-16.50824 l -0.78203,-10.8116 10.83966,-10.16388 c 18.51014,-17.35615 22.85891,-28.85992 13.64865,-36.10471 -6.16341,-4.84813 -7.12199,-4.73706 -14.42022,1.67087 -7.72788,6.78517 -19.80883,12.93419 -39.19004,19.94714 -17.96909,6.50198 -29.66491,13.87059 -37.50689,23.63016 -7.5333,9.3754 -13.33581,12.15805 -25.3525,12.15805 -11.31166,0 -15.71328,-3.25952 -19.21313,-14.22792 -1.13184,-3.54713 -2.68714,-7.13589 -3.45625,-7.97501 -1.7781,-1.93997 -41.67012,34.92146 -57.32159,52.96686 -6.52714,7.52549 -14.69941,18.62669 -18.1606,24.66935 -5.49339,9.59052 -6.97852,10.9899 -11.68715,11.01256 -8.58144,0.0413 -9.67401,-1.68027 -10.25184,-16.15369 l -0.53629,-13.43268 -10.4106,10.65494 c -12.08773,12.37142 -23.46506,28.30837 -44.37937,62.16497 -8.24692,13.35032 -19.31839,30.64611 -24.60328,38.43509 -8.61505,12.69706 -9.60887,15.14475 -9.60887,23.66563 0,29.22355 -17.67447,79.39332 -46.21619,131.18671 l -8.9175,16.18221 h -7.9441 c -7.79505,0 -7.99047,-0.14654 -10.41514,-7.81054 -2.14758,-6.78818 -2.0701,-10.43617 0.59196,-27.86935 4.00678,-26.23954 27.28184,-159.91651 30.8594,-177.23656 5.20209,-25.18493 11.88767,-32.51932 36.10578,-39.60966 13.93704,-4.08036 17.21626,-6.93348 23.94535,-20.83394 5.52076,-11.40437 18.59024,-22.27626 44.16511,-36.73892 15.8769,-8.97843 24.18334,-12.64609 28.64056,-12.64609 6.22954,0 6.27799,0.0616 6.27799,7.98499 0,4.39174 0.67658,8.40313 1.50351,8.91421 0.82693,0.51107 9.52193,-10.16189 19.32219,-23.71769 9.80029,-13.5558 22.89885,-30.47221 29.10792,-37.59202 13.82931,-15.85778 36.34672,-34.12468 51.62355,-41.87879 11.04935,-5.60836 11.91264,-5.75564 27.29693,-4.65719 33.35246,2.3814 28.73977,3.70325 40.99082,-11.74671 5.971,-7.5301 13.28368,-15.3676 16.25042,-17.41666 7.57908,-5.23471 23.99247,-6.66085 39.47168,-3.42965 11.51563,2.40383 13.42907,2.34428 24.26759,-0.75525 16.93439,-4.8428 33.24296,-4.4024 49.12041,1.32647 23.71648,8.55733 41.08174,13.17246 60.4113,16.05539 20.07165,2.99361 28.53702,2.66553 56.87591,-2.20428 8.90021,-1.52943 23.59443,-2.73935 32.65382,-2.68871 20.20369,0.11292 24.51285,2.05535 45.5896,20.55033 19.05778,16.72332 29.97643,28.42392 38.49038,41.24694 5.9071,8.89664 6.5741,11.0527 6.0832,19.66187 l -0.5515,9.66949 -8.7077,0.55484 c -7.51981,0.47916 -10.35517,-0.4406 -20.7853,-6.74258 -11.44574,-6.91562 -16.35654,-8.7555 -16.35654,-6.12813 0,0.64312 2.17804,5.62104 4.84006,11.06204 3.85877,7.88704 4.86124,12.55626 4.94456,23.03018 0.12874,16.1813 -2.00857,18.93567 -15.56571,20.05994 -8.90331,0.73833 -10.36015,0.2535 -21.21803,-7.06127 -6.41211,-4.31971 -14.15298,-9.71578 -17.20196,-11.99125 l -5.54361,-4.13724 -6.14353,3.54425 c -3.37896,1.94934 -12.61644,5.28535 -20.52774,7.41335 -17.63301,4.74297 -21.40731,7.10322 -26.11491,16.33089 -3.55111,6.96073 -3.57066,7.42002 -0.53448,12.55986 3.48367,5.89736 7.89875,6.67575 14.96224,2.63789 2.47228,-1.41329 9.22776,-2.59828 15.01218,-2.63332 9.02483,-0.0547 12.02812,0.86893 21.16605,6.50917 l 10.64892,6.57289 11.00141,-5.67388 c 8.55726,-4.41332 13.24222,-5.6651 21.08748,-5.63439 20.85431,0.0816 33.04683,10.37246 42.53908,35.90409 3.41973,9.19818 12.74163,28.68009 20.71533,43.29314 17.6571,32.35959 21.0436,41.00635 23.4389,59.84719 2.7491,21.62399 4.1246,24.67138 20.253,44.86978 8.1129,10.16021 16.6022,22.77682 18.865,28.0369 5.1773,12.0348 9.1655,30.61096 9.2061,42.87912 l 0.031,9.43962 h -10.2227 c -8.1267,0 -11.1057,-0.82948 -14.5291,-4.04555 -4.2324,-3.97611 -4.3502,-3.98564 -6.8585,-0.55536 -3.3331,4.55821 -3.2358,6.74667 1.0439,23.48015 8.8999,34.79797 0.7892,73.07958 -21.4421,101.20418 -13.9162,17.60537 -47.5739,39.25804 -99.69681,64.13699 -14.95885,7.1401 -37.07542,18.3717 -49.14798,24.9592 -21.15424,11.543 -22.40685,11.9772 -34.54866,11.9772 -10.61567,0 -12.89155,-0.5474 -14.45989,-3.4778 z"
     id="path3730"
     inkscape:connector-curvature="0"
     transform="scale(0.74999998)" />
  <path
     style="fill:#225500;stroke-width:1.79802263"
     d="m 704.67347,1052.3882 c -24.68138,-7.7135 -40.84201,-26.9673 -56.92534,-67.82103 -6.69514,-17.00652 -6.40984,-19.47159 2.25361,-19.47159 6.10285,0 8.85791,1.6521 22.02578,13.20799 14.92159,13.09492 32.67587,31.99453 48.88665,52.04033 6.85592,8.4778 8.41731,11.7297 8.41731,17.5307 v 7.1221 l -8.54061,-0.1203 c -4.69733,-0.066 -11.95016,-1.1858 -16.1174,-2.4882 z"
     id="path3732"
     inkscape:connector-curvature="0"
     transform="scale(0.74999998)" />
  <path
     style="fill:#44aa00;stroke-width:1.79802263"
     d="m 792.26227,1189.8692 c -6.42793,-0.8095 -19.77825,-4.5226 -29.66737,-8.2514 -18.55435,-6.9961 -19.90217,-7.162 -41.81892,-5.1476 l -13.05056,1.1995 -12.21898,-11.5267 c -8.01485,-7.5608 -20.69851,-16.4079 -36.86404,-25.7134 -41.42465,-23.8454 -48.33553,-32.1576 -58.69407,-70.5953 -2.99756,-11.1231 -11.84958,-36.6101 -19.67116,-56.6377 -15.39563,-39.42143 -19.95981,-58.7161 -19.95981,-84.37831 v -14.06734 h 5.95316 c 5.66043,0 6.06977,0.45497 8.32458,9.25279 4.74095,18.49819 20.45569,46.47389 77.90561,138.68916 3.211,5.1541 8.53867,10.461 13.30759,13.2558 6.9653,4.082 10.45405,4.7553 28.0964,5.4228 32.38753,1.2253 30.33097,0.3694 50.65666,21.0822 33.42679,34.0636 47.71004,36.0821 93.47031,13.2093 18.99662,-9.4952 41.24964,-17.2454 91.30102,-31.7979 26.9637,-7.8397 56.30691,-16.7912 65.20712,-19.8921 18.30279,-6.3769 45.17849,-18.9481 55.36909,-25.899 4.0933,-2.7921 9.3078,-4.6536 13.0356,-4.6536 6.0832,0 6.2133,0.1556 6.2133,7.4294 0,9.6084 -4.5409,16.793 -18.9703,30.0149 -14.347,13.1465 -27.7222,19.8113 -60.54329,30.1683 -71.3024,22.5004 -86.37091,30.5805 -123.79152,66.3805 -11.36616,10.8739 -17.97384,15.7026 -25.17231,18.395 -11.65196,4.3582 -32.30223,6.0901 -48.41811,4.0607 z"
     id="path3734"
     inkscape:connector-curvature="0"
     transform="scale(0.74999998)" />
  <path
     style="fill:#99ff55;stroke-width:1.79802263"
     d="m 952.62406,1142.8683 c 0.5415,-7.492 1.04524,-8.0879 14.32904,-16.9506 7.5723,-5.0521 27.92177,-15.4448 45.2211,-23.095 37.8805,-16.7517 53.6994,-26.8117 71.445,-45.4352 15.725,-16.503 25.4827,-30.6681 31.7623,-46.1088 4.9594,-12.19454 9.462,-31.42143 8.1753,-34.91004 -0.4596,-1.24616 -8.6859,6.03084 -18.8389,16.66494 -28.2841,29.6244 -49.293,42.0033 -80.735,47.5707 -6.3046,1.1164 -18.9568,4.4068 -28.11607,7.3121 -11.82785,3.7517 -20.29389,5.2823 -29.21787,5.2823 H 954.0843 l 0.0618,-6.7426 0.0618,-6.7426 24.55307,-11.6871 c 13.50418,-6.428 31.47903,-16.2436 39.94423,-21.8125 43.8185,-28.82675 77.7256,-84.78244 84.7995,-139.94183 l 2.084,-16.24994 5.6083,0.0396 c 3.0846,0.0218 9.1354,1.63994 13.4463,3.59604 4.3109,1.95611 7.9519,3.55664 8.0911,3.55673 0.1392,9e-5 0.2596,-39.03948 0.2674,-86.75459 0.014,-84.98051 0.1174,-87.51759 5.063,-124.05476 2.7768,-20.515 6.0272,-43.17009 7.2231,-50.34463 l 2.1744,-13.0447 6.4547,-0.54359 c 6.2053,-0.52257 6.5406,-0.24467 8.6775,7.1921 1.2776,4.44599 2.8232,26.8514 3.6347,52.68623 1.5434,49.14059 3.4881,60.46259 14.8238,86.30509 9.1813,20.93103 10.6364,28.58154 11.6272,61.13277 1.0906,35.83223 -0.8985,50.5562 -12.3027,91.06937 -5.051,17.94339 -7.0223,27.90432 -6.1836,31.24579 0.6771,2.69786 5.5915,9.47662 10.9209,15.0639 5.3293,5.5873 10.5472,12.41396 11.5952,15.17037 2.8253,7.43128 2.3186,38.36378 -0.8305,50.69886 -6.6704,26.12729 -19.4752,42.98759 -36.8206,48.48199 -20.7662,6.578 -25.086,11.4438 -28.657,32.2781 -2.3227,13.5518 -5.6583,20.662 -11.3651,24.2259 -3.8178,2.3843 -65.2369,27.8467 -90.8607,37.668 -19.2636,7.3835 -40.41631,12.2008 -60.26884,13.7257 l -15.84443,1.2169 z"
     id="path3736"
     inkscape:connector-curvature="0"
     transform="scale(0.74999998)" />
  <path
     style="fill:#99ff55;stroke-width:1.79802263"
     d=""
     id="path3738"
     inkscape:connector-curvature="0"
     transform="scale(0.74999998)" />
  <path
     style="fill:#7fff2a;stroke-width:1.79802263"
     d="m 653.81453,1247.3825 c -20.10874,-1.4471 -27.66175,-3.7414 -59.15775,-17.9696 -14.38143,-6.4968 -18.13814,-7.4951 -25.17231,-6.6897 -4.54746,0.5208 -16.43086,0.3663 -26.40754,-0.3433 -24.69214,-1.7562 -40.97604,-9.2751 -58.31494,-26.9263 -20.18455,-20.5481 -24.22807,-31.9048 -28.51676,-80.0928 -1.22162,-13.7261 -2.3217,-18.3858 -4.76184,-20.1701 -4.39918,-3.2168 -5.63931,-1.9585 -9.1987,9.3332 -4.45306,14.1267 -7.72212,16.9996 -19.34363,16.9996 -11.60252,0 -15.81677,-2.9014 -26.96422,-18.5643 -14.36472,-20.1833 -18.77745,-30.9627 -20.54454,-50.1857 -1.01931,-11.0885 -2.86658,-19.7212 -5.16752,-24.149 -1.96961,-3.7902 -6.62537,-12.555 -10.34615,-19.4774 -6.74064,-12.54073 -6.7619,-12.64774 -5.89443,-29.66734 0.99595,-19.54032 5.50686,-33.54783 14.66898,-45.55085 3.21952,-4.2178 8.02538,-11.37447 10.6797,-15.90373 5.62187,-9.59301 24.79449,-52.1422 23.8988,-53.03789 -0.33448,-0.33449 -6.19837,3.6458 -13.03088,8.84505 -12.37615,9.41775 -12.47221,9.45321 -25.61408,9.45321 -12.34111,0 -13.48186,-0.33774 -17.6986,-5.23999 -4.18681,-4.86747 -4.46335,-6.33748 -3.88987,-20.67726 0.55404,-13.85341 1.41492,-17.09731 8.39061,-31.61697 13.34342,-27.77386 27.51776,-47.17884 60.29957,-82.55141 l 15.93015,-17.18911 -0.27824,-21.50779 -0.27824,-21.50778 6.3018,-6.97534 c 4.0023,-4.43006 13.70913,-10.79584 26.60163,-17.44545 22.42605,-11.56677 66.83834,-36.01241 72.39305,-39.84694 4.96443,-3.42708 26.77493,-3.29603 29.65827,0.1782 3.83209,4.61738 4.25794,16.6697 1.05469,29.84909 -2.41547,9.9381 -2.61302,13.22381 -0.91786,15.26633 3.51479,4.23508 7.15552,3.05575 15.94373,-5.16459 21.55892,-20.16585 35.50286,-23.53615 90.96031,-21.98542 68.17226,1.90626 67.42585,1.65608 67.42585,22.59916 0,11.39853 -0.39292,12.787 -4.04555,14.29562 -2.22505,0.919 -18.60953,2.43034 -36.40996,3.35853 -28.52446,1.4874 -34.39105,2.34425 -49.44562,7.22188 -21.77912,7.05635 -42.85015,17.83584 -71.33034,36.49109 -20.74994,13.59173 -23.4969,14.87704 -33.31274,15.58706 -5.8839,0.4256 -11.43021,0.0416 -12.32512,-0.85331 -0.89493,-0.89491 -2.48642,-8.07623 -3.53666,-15.95848 -2.7039,-20.29334 -3.02149,-20.76067 -8.20334,-12.07108 -3.32803,5.58088 -7.56051,9.13555 -16.5454,13.89576 -21.37135,11.32259 -20.66408,10.24025 -20.30514,31.07328 0.2137,12.40292 -0.50385,19.99067 -2.27859,24.09488 -1.42478,3.29493 -9.08832,12.38349 -17.03008,20.19681 l -14.43956,14.20603 5.68061,3.82815 c 11.42379,7.69851 11.85242,11.88819 7.48083,73.12119 -3.46146,48.48482 -4.88134,56.41474 -13.5708,75.79184 -3.88095,8.65433 -7.05627,16.51469 -7.05627,17.46744 0,2.40819 5.01186,4.74977 13.42304,6.27138 14.80514,2.67826 21.29649,9.80115 27.93148,30.64885 3.25843,10.2383 9.97502,23.1571 13.61344,26.1843 2.095,1.7431 9.41047,2.8787 22.47724,3.4893 25.09425,1.1725 26.12497,2.0635 35.00536,30.2599 8.11283,25.7592 18.76467,47.245 32.70562,65.9705 19.68038,26.4347 63.98904,65.421 94.5882,83.2263 13.48035,7.844 14.04583,8.4339 13.01695,13.5783 -0.59159,2.958 -1.26948,5.5479 -1.50641,5.7554 -1.70808,1.4961 -21.57373,1.9123 -37.29023,0.7813 z"
     id="path3740"
     inkscape:connector-curvature="0"
     transform="scale(0.74999998)" />
  <path
     style="fill:#225500;stroke-width:1.79802263"
     d="m 763.49391,1277.9572 c -13.49833,-1.3825 -24.55157,-4.9072 -35.51095,-11.3237 -4.94551,-2.8956 -5.84357,-4.4575 -5.84357,-10.1634 v -6.742 l 15.66675,-2.1917 c 9.3523,-1.3083 30.91182,-7.1738 53.49118,-14.5529 51.96868,-16.9837 72.77781,-22.0603 86.84296,-21.1863 14.06371,0.874 16.97353,3.5054 17.87831,16.1679 1.25755,17.5996 -4.04294,21.8995 -42.62355,34.578 -45.466,14.9411 -63.81043,18.0864 -89.90113,15.4141 z"
     id="path3744"
     inkscape:connector-curvature="0"
     transform="scale(0.74999998)" />
  <path
     style="fill:#66ff00;stroke-width:1.79802263"
     d="m 1103.3202,797.94825 c 0,-3.91784 -1.5573,-19.49321 -3.4606,-34.61193 -5.0151,-39.83723 -6.0888,-62.81452 -3.8891,-83.22732 1.0656,-9.88913 2.4405,-19.80073 3.0553,-22.02578 0.8083,-2.92563 0.3526,-4.04555 -1.6461,-4.04555 -2.9361,0 -3.4214,-1.69922 -6.6752,-23.37429 -4.0246,-26.81009 -7.4242,-31.44811 -25.1425,-34.30156 -23.5698,-3.7958 -26.5628,-8.8568 -29.6916,-50.20551 -1.072,-14.16831 -0.8182,-15.91315 3.4793,-23.91894 8.0621,-15.01869 6.0549,-20.87569 -16.7586,-48.90009 -16.0133,-19.67101 -19.9602,-26.56893 -19.9602,-34.88455 0,-5.25473 0.3896,-5.57184 6.8452,-5.57184 8.0224,0 45.4664,17.84919 66.9447,31.91193 28.4311,18.615 39.2233,34.4645 48.4928,71.21668 4.7284,18.74742 5.3723,24.38562 5.339,46.74859 -0.033,22.28125 -0.5794,26.9646 -4.4112,37.82375 -2.4053,6.81656 -7.4452,16.93044 -11.1997,22.47529 -8.7038,12.85408 -8.6771,12.77856 -4.5248,12.77856 3.7238,0 10.4421,12.87523 15.0114,28.76836 4.1167,14.31879 2.8885,51.00449 -2.9004,86.62884 -4.6083,28.35958 -5.5674,31.89705 -8.8901,32.78935 -8.5472,2.29534 -10.0176,1.40379 -10.0176,-6.07399 z"
     id="path3746"
     inkscape:connector-curvature="0"
     transform="scale(0.74999998)" />
  <path
     style="fill:#44aa00;stroke-width:1.79802263"
     d="m 1202.2464,945.76684 c 0.019,-2.71951 1.3297,-13.03567 2.9122,-22.92479 2.1855,-13.65732 3.0809,-36.46064 3.7244,-94.84569 l 0.8471,-76.86547 h 6.1683 c 7.5194,0 6.1853,-3.13476 20.6608,48.54661 l 11.3312,40.45551 0.7569,28.60491 c 0.4991,18.86281 0,32.02857 -1.4724,38.65749 -3.3796,15.23888 -11.1913,30.93973 -18.6439,37.47241 -5.7802,5.06672 -7.9728,5.84358 -16.493,5.84358 -9.5297,0 -9.8255,-0.14942 -9.7916,-4.94456 z"
     id="path3748"
     inkscape:connector-curvature="0"
     transform="scale(0.74999998)" />
  <path
     style="fill:#55d400;stroke-width:1.79802263"
     d="m 1166.251,1094.908 c 0,-6.4286 0.9442,-7.6016 15.7939,-19.6216 31.347,-25.3735 54.5285,-54.0121 62.6985,-77.45821 3.2232,-9.25003 3.4964,-9.50581 9.603,-8.99011 6.0172,0.50815 6.3556,0.91443 7.9303,9.52092 2.4156,13.2028 -1.2221,35.1502 -8.1708,49.2972 -7.2407,14.7412 -27.224,35.0636 -42.1518,42.8669 -12.4027,6.4834 -28.8243,11.2222 -38.8888,11.2222 -6.6924,0 -6.8143,-0.1223 -6.8143,-6.8373 z"
     id="path3750"
     inkscape:connector-curvature="0"
     transform="scale(0.74999998)" />
  <path
     style="fill:#66ff00;stroke-width:1.79802263"
     d="m 909.70079,1209.7093 c -10.08964,-4.3097 -10.3231,-16.2943 -0.55807,-28.648 8.94619,-11.3178 13.75245,-13.7862 29.65839,-15.2322 6.92239,-0.6293 21.48637,-3.6191 32.36441,-6.644 13.18436,-3.6663 25.92255,-5.852 38.20798,-6.5558 l 18.4297,-1.0558 v 7.1483 c 0,6.608 -0.7814,7.7321 -10.3386,14.8728 -27.5695,20.5985 -92.86189,42.4798 -107.76381,36.1147 z"
     id="path3752"
     inkscape:connector-curvature="0"
     transform="scale(0.74999998)" />
  <path
     style="fill:#66ff00;stroke-width:1.79802263"
     d="m 642.97321,1245.482 c -10.32856,-1.5215 -22.49999,-5.7206 -48.49343,-16.7302 -13.89348,-5.8846 -16.83639,-6.4774 -32.3644,-6.5197 -33.76679,-0.092 -53.69526,-6.3192 -71.38074,-22.3053 -21.54685,-19.4764 -28.00393,-33.9021 -32.27712,-72.1102 -2.90488,-25.9735 -5.16909,-34.1624 -9.44583,-34.1624 -2.8375,0 -3.97034,1.7994 -9.29021,14.7563 -3.13786,7.6425 -4.96655,9.7328 -9.95513,11.3792 -12.43057,4.1024 -22.57261,-1.738 -35.13067,-20.2306 -11.22898,-16.5354 -15.54124,-27.6894 -18.61378,-48.146 -2.47023,-16.4466 -3.99692,-21.007 -12.03329,-35.9452 -9.17264,-17.05038 -9.20315,-17.16211 -8.92096,-32.6652 0.35108,-19.28774 5.02306,-35.18151 14.21966,-48.37432 3.75284,-5.38357 8.92812,-13.42931 11.50062,-17.87941 6.63879,-11.48428 23.64988,-50.39555 22.52398,-51.52146 -0.5176,-0.51759 -5.25179,2.23644 -10.52043,6.12006 -14.06493,10.36756 -16.30772,11.23897 -28.92598,11.23897 -9.63043,0 -12.08697,-0.65531 -15.16542,-4.04555 -5.09927,-5.61573 -5.94115,-10.93174 -4.19092,-26.46323 2.90122,-25.74543 24.77861,-61.06831 65.30915,-105.44708 l 19.41409,-21.25739 -1.21333,-20.74357 -1.21333,-20.74358 7.9752,-7.35128 c 4.38636,-4.04321 13.18734,-10.19009 19.55772,-13.65973 6.37038,-3.46963 27.36016,-15.03634 46.64395,-25.70379 33.33676,-18.4413 35.60061,-19.40515 46.02231,-19.59425 14.53594,-0.26375 16.92107,1.83718 16.86452,14.85496 -0.0241,5.56516 -0.87686,13.73302 -1.89487,18.15081 -4.3337,18.8067 2.57186,21.0027 19.85199,6.31303 20.59946,-17.5114 22.74369,-17.95881 85.47314,-17.83463 63.98294,0.12665 66.36992,0.61419 68.37193,13.96457 1.23844,8.25855 -0.10536,18.46024 -2.63781,20.02538 -0.77827,0.481 -17.26123,2.06679 -36.62881,3.52399 -30.01133,2.25802 -37.60791,3.45155 -51.41904,8.07871 -20.22729,6.77676 -36.19263,14.77754 -64.89037,32.51876 -29.69705,18.35901 -28.83835,17.97602 -40.30305,17.97602 -11.23502,0 -10.38153,1.23505 -13.57108,-19.63829 -2.26414,-14.8173 -3.99817,-16.41587 -9.01014,-8.30633 -2.66504,4.31213 -8.70103,9.18942 -18.03642,14.57407 -7.717,4.45116 -14.98983,9.24845 -16.16184,10.66064 -1.2202,1.47025 -2.46313,10.74573 -2.90821,21.70274 -0.43503,10.70974 -1.81069,21.10749 -3.12431,23.61463 -1.29088,2.46372 -8.65652,10.81222 -16.3681,18.55222 l -14.02105,14.07273 7.41736,7.05596 7.41735,7.05596 -0.0228,22.30417 c -0.0252,24.62753 -4.22138,79.06105 -7.14595,92.69865 -1.02831,4.79519 -4.81223,15.91966 -8.40869,24.72105 -7.62316,18.65569 -7.16566,20.53527 5.8037,23.84379 4.84827,1.23681 10.71602,3.26611 13.03944,4.50957 5.14831,2.75529 11.72498,13.64965 16.34321,27.07275 5.42429,15.766 11.14626,24.5295 17.25058,26.4202 2.96674,0.9189 12.62091,2.2211 21.45372,2.8937 20.81823,1.5854 23.1099,3.7544 32.2384,30.5131 8.9078,26.1118 19.31954,46.9842 31.76567,63.6809 19.7748,26.5282 68.6225,69.6799 97.72852,86.3327 8.51475,4.8717 10.10113,6.5755 10.10113,10.849 0,2.9643 -1.18116,5.523 -2.8441,6.1611 -3.91269,1.5015 -33.63203,0.9743 -45.7557,-0.8117 z"
     id="path3754"
     inkscape:connector-curvature="0"
     transform="scale(0.74999998)" />
  <path
     style="fill:#66ff00;stroke-width:1.79802263"
     d="m 846.64852,1046.619 c -5.69887,-1.2153 -8.60273,-7.1789 -5.87957,-12.0748 1.16886,-2.1014 14.75842,-13.1256 30.19906,-24.4981 28.49906,-20.99038 56.95944,-46.28072 61.38264,-54.54556 1.33827,-2.5006 1.95782,-5.78548 1.37673,-7.29974 -1.80654,-4.70778 -9.50917,-0.46319 -34.7974,19.17543 -25.7394,19.98897 -70.88352,49.06647 -82.3944,53.07047 -4.46102,1.5518 -18.84785,2.8825 -37.88675,3.5044 l -30.69465,1.0026 -5.81076,-5.2063 c -7.0758,-6.3396 -9.11526,-14.1734 -9.17299,-35.23458 -0.0924,-33.69919 -5.61341,-42.55067 -32.03345,-51.35735 -19.90648,-6.63549 -22.74274,-10.06481 -22.47902,-27.1792 0.15391,-9.9862 1.42628,-15.15909 6.65266,-27.04602 8.49956,-19.33147 8.39758,-23.3754 -0.7878,-31.23774 -7.19013,-6.15449 -24.16941,-13.85258 -30.55391,-13.85258 -2.4325,0 -5.51809,4.63674 -11.52714,17.32195 -4.51302,9.52708 -8.20549,18.68818 -8.20549,20.358 0,1.66983 4.65239,10.60073 10.33863,19.84647 9.54817,15.52513 25.58164,33.62396 42.39254,47.85335 4.54223,3.84473 6.60358,7.07861 6.60358,10.35988 0,4.46596 -0.43025,4.71573 -6.74259,3.91408 -3.70842,-0.47098 -12.0018,-1.33958 -18.42973,-1.93027 -28.37267,-2.60728 -53.8951,-11.78528 -71.28248,-25.63358 l -9.2507,-7.36777 -0.63842,-15.26022 c -0.73502,-17.569 -2.86202,-21.5918 -16.76273,-31.70342 -36.65751,-26.66528 -37.42761,-27.56451 -38.40397,-44.84387 -0.39046,-6.90996 0.26749,-15.292 1.49146,-19.00065 6.20278,-18.79459 45.89223,-65.96992 61.84603,-73.51086 10.74286,-5.07789 22.47211,-4.5852 30.14367,1.26618 3.48541,2.65845 6.92407,4.83355 7.64147,4.83355 0.71737,0 4.80059,-2.40548 9.07377,-5.34552 4.2732,-2.94002 13.97258,-8.3313 21.55419,-11.9806 8.36199,-4.02493 18.87214,-11.19999 26.71695,-18.23912 14.30977,-12.84013 18.01203,-14.77939 28.21539,-14.77939 10.08955,0 15.56211,2.62797 24.392,11.71327 4.31104,4.43574 8.5892,8.06498 9.50702,8.06498 0.91784,0 5.60039,-2.85159 10.40572,-6.33688 17.04083,-12.35968 22.70435,-14.14938 47.21981,-14.92172 27.96619,-0.88106 41.45571,2.23045 52.61929,12.13727 6.94071,6.15934 7.57081,7.47808 8.284,17.33788 0.66262,9.1606 0.23279,11.15937 -3.03591,14.11752 -5.3811,4.86981 -20.02569,5.66127 -36.58498,1.97717 -12.83953,-2.85652 -14.36618,-2.85918 -24.05725,-0.0419 -11.26614,3.27515 -30.24344,12.24576 -35.25852,16.66675 -1.7306,1.52559 -3.14654,3.86206 -3.14654,5.19217 0,3.58044 6.33123,2.93935 14.90532,-1.5093 13.00711,-6.74871 51.54082,-4.33494 62.40965,3.90937 3.99366,3.02931 4.479,4.67457 4.35105,14.74963 -0.0958,7.54521 -1.47326,14.32798 -4.11627,20.26902 l -3.97226,8.92903 4.11627,3.15539 c 2.26394,1.73545 8.75313,5.6454 14.42039,8.68873 13.95818,7.4956 20.54529,13.34435 21.7074,19.27423 3.18524,16.25302 -11.67941,38.882 -27.51647,41.88927 -14.28033,2.71168 -41.05139,-3.15658 -59.88332,-13.1265 -12.18234,-6.44955 -14.2117,-9.4973 -14.39456,-21.6184 -0.14402,-9.54756 0.9681,-11.08316 16.61683,-22.94425 l 6.04509,-4.58192 -9.48833,-7.55473 c -5.80707,-4.62367 -11.35302,-7.55473 -14.29449,-7.55473 -6.48353,0 -21.63054,7.74892 -27.86293,14.25415 -7.10428,7.41526 -5.3876,11.86896 9.74661,25.28645 l 12.59968,11.17047 -1.17373,23.19107 -1.17375,23.19108 h 5.7892 c 3.18406,0 7.42003,-0.8728 9.41326,-1.93953 1.99322,-1.06675 8.12951,-2.04502 13.63619,-2.17395 9.45132,-0.22129 10.33787,0.1424 15.82738,6.49282 l 5.81523,6.72725 9.90033,-9.04835 c 9.70456,-8.86942 10.12533,-9.04836 21.27775,-9.04836 h 11.3774 l 14.44182,15.31437 c 7.943,8.42291 15.02343,15.30035 15.73428,15.2832 0.71085,-0.018 6.77918,-3.5657 13.48517,-7.88568 6.706,-4.31997 15.83371,-9.6705 20.28382,-11.89005 11.15736,-5.5649 16.1822,-10.5932 16.1822,-16.19334 0,-2.60956 -3.35043,-10.29975 -7.44541,-17.08932 -6.1394,-10.17925 -7.46965,-14.02183 -7.58363,-21.90601 -0.17099,-11.82333 2.01542,-14.25998 16.08711,-17.929 13.51091,-3.52281 19.87462,-7.28572 24.23844,-14.33235 4.88044,-7.88087 4.4179,-11.47034 -3.51118,-27.24754 -3.84067,-7.64211 -9.09922,-18.92577 -11.68571,-25.07479 -10.03843,-23.86519 -34.91104,-61.07088 -52.4901,-78.51738 -4.86923,-4.83253 -16.13515,-14.62648 -25.03537,-21.76434 -23.43952,-18.7982 -30.91354,-27.47233 -32.43952,-37.64835 -0.68843,-4.59073 -2.66658,-10.0941 -4.39588,-12.2297 -3.13491,-3.87145 -3.18243,-3.8737 -16.07057,-0.76297 -7.1095,1.71596 -23.74653,3.8932 -36.97119,4.8383 -13.22463,0.94509 -29.15855,2.92392 -35.40867,4.3974 -13.932,3.28447 -24.16122,3.47459 -26.07665,0.48466 -0.79191,-1.23614 -1.30898,-7.68283 -1.14903,-14.32598 0.33789,-14.03393 5.53128,-25.29142 18.13683,-39.31439 10.17746,-11.32187 20.23065,-16.94625 39.51479,-22.10702 27.75997,-7.42906 32.01199,-11.42615 22.6026,-21.24745 -6.01387,-6.27711 -12.46371,-6.49975 -39.57835,-1.36618 -26.54938,5.02655 -35.5943,8.15281 -48.18837,16.65571 -9.69281,6.54411 -11.94378,7.29648 -22.17035,7.41025 -13.51928,0.1504 -15.4462,-1.60668 -17.10296,-15.59546 l -1.11641,-9.42628 11.39702,-11.69912 c 6.26836,-6.43452 12.72644,-13.69965 14.35128,-16.14475 4.27631,-6.43503 3.75564,-14.85195 -1.20716,-19.51426 -5.30868,-4.98724 -8.70074,-4.93007 -15.02934,0.25329 -8.15999,6.68331 -16.71329,11.34714 -31.71018,17.29052 -23.63677,9.36742 -32.25993,14.42231 -43.67539,25.60246 -12.58719,12.32773 -21.17594,15.48532 -33.26576,12.22987 -6.30732,-1.69838 -7.63874,-3.06897 -11.53111,-11.8703 l -4.40045,-9.95022 -5.87764,4.04893 c -11.83414,8.15217 -58.51528,56.65205 -67.54409,70.17564 -9.42726,14.12045 -14.07256,17.27713 -19.54067,13.27874 -2.36403,-1.72862 -3.34447,-5.57108 -3.89144,-15.25106 l -0.73119,-12.94023 -7.13157,6.90064 c -12.49895,12.09423 -23.7779,27.4994 -49.15331,67.1353 -33.2304,51.90525 -32.63435,50.74306 -34.11916,66.52594 -2.69554,28.65232 -14.74471,64.33893 -36.09092,106.89234 -17.47647,34.83911 -17.70842,35.15144 -26.10444,35.15144 -13.85124,0 -13.83657,-6.9003 0.18977,-89.28831 23.1542,-136.0032 24.98162,-143.72099 35.97297,-151.92508 2.46615,-1.84077 10.9568,-5.74596 18.8681,-8.6782 15.09746,-5.59571 18.14281,-8.19358 28.43459,-24.25645 6.92024,-10.80075 20.90178,-22.22105 41.60355,-33.98232 28.1031,-15.96617 35.14618,-16.52002 35.14618,-2.76382 0,4.8045 0.68607,6.64605 2.24753,6.0328 1.23614,-0.48548 10.96574,-12.48127 21.62134,-26.65731 10.65561,-14.17603 24.00592,-30.89469 29.66738,-37.15256 13.07797,-14.45569 33.7421,-30.91205 47.60051,-37.90775 10.57566,-5.33858 11.18433,-5.42541 34.01585,-4.8525 l 23.24752,0.58334 14.7466,-15.72581 c 8.11065,-8.64919 17.02435,-16.53802 19.80824,-17.53072 6.47276,-2.30811 23.22724,-2.31425 35.36189,-0.013 7.4392,1.41081 11.79372,1.16869 20.47317,-1.13838 18.84428,-5.00894 34.7561,-3.81261 60.46986,4.54643 42.40024,13.78351 66.60656,16.81231 97.09322,12.14872 49.08486,-7.50859 60.00763,-6.20377 79.62019,9.51137 16.65385,13.34438 38.78148,36.27088 45.99965,47.66036 4.5302,7.14804 5.6358,10.80604 5.6358,18.64584 v 9.75321 l -10.33862,-0.77333 c -7.12267,-0.53277 -12.66918,-2.25557 -17.83083,-5.53842 -8.11302,-5.15994 -16.78614,-8.03138 -16.77278,-5.55302 0.005,0.84889 2.00815,6.39809 4.45238,12.33157 3.07108,7.45521 4.45723,14.25994 4.48672,22.02578 0.0563,14.82174 -3.21902,18.42973 -16.73042,18.42973 -8.79345,0 -10.85197,-0.88679 -25.04293,-10.78814 -8.50406,-5.93347 -16.17728,-10.78813 -17.0516,-10.78813 -0.87433,0 -4.77582,1.53105 -8.67,3.40235 -3.89417,1.87129 -13.11037,5.19084 -20.48046,7.37678 -20.60914,6.11258 -31.40026,19.18137 -24.51507,29.68947 3.19108,4.87021 9.49548,5.86532 15.7961,2.49333 2.04366,-1.09374 8.36407,-2.0324 14.04532,-2.08592 8.58558,-0.0809 12.22864,0.96937 21.57775,6.22054 l 11.24817,6.31784 10.56362,-5.2787 c 11.7262,-5.85965 24.88208,-7.0541 36.27649,-3.2936 8.85758,2.92327 19.28854,15.26037 25.46822,30.12231 2.79914,6.73183 13.07654,28.01734 22.83854,47.30113 14.7489,29.1346 18.2403,37.64493 20.6544,50.34464 5.5224,29.05191 7.1345,33.03073 20.9038,51.59337 7.1928,9.69678 14.8216,20.47986 16.9528,23.96241 4.8957,7.99989 10.6976,29.50253 12.314,45.63745 l 1.2435,12.41288 -9.9679,-1.02877 c -5.4824,-0.56584 -12.0669,-2.40407 -14.6322,-4.08497 -3.7637,-2.46604 -5.1834,-2.6254 -7.3524,-0.82531 -3.4398,2.8548 -3.3971,9.30903 0.1627,24.60378 6.2649,26.91667 2.1771,60.07097 -10.2906,83.46283 -14.684,27.55 -39.0167,44.83145 -122.52129,87.01661 -58.91199,29.7613 -67.36345,32.9611 -79.96193,30.2745 z"
     id="path3756"
     inkscape:connector-curvature="0"
     transform="scale(0.74999998)" />
  <path
     style="fill:#66ff00;stroke-width:1.79802263"
     d="m 1105.1915,800.88462 c -2.4516,-6.302 -9.159,-79.58106 -9.1092,-99.51875 0.025,-10.06479 0.8998,-24.43944 1.9435,-31.94365 1.6228,-11.66762 1.4926,-14.04914 -0.899,-16.44075 -1.5382,-1.53819 -2.7967,-3.24552 -2.7967,-3.79407 0,-6.70819 -6.653,-37.20361 -9.2286,-42.30132 -3.4358,-6.80012 -8.6137,-9.22184 -27.9493,-13.07186 -13.1034,-2.60911 -18.2823,-14.35394 -19.8253,-44.96087 -0.7856,-15.58232 -0.402,-19.13912 2.876,-26.6699 7.2139,-16.57261 5.6713,-20.49224 -22.0658,-56.06774 -18.0089,-23.09805 -19.50821,-35.47709 -3.785,-31.24998 10.9122,2.93369 44.9998,19.90652 60.8727,30.30961 27.4955,18.02053 39.679,35.73687 48.8897,71.09185 4.0508,15.54856 4.6927,21.74931 4.7463,45.84958 0.07,31.52327 -1.4876,37.80585 -14.88,60.01064 l -7.3012,12.1056 4.4105,3.46933 c 2.4258,1.90814 6.7269,8.94389 9.558,15.63503 5.0163,11.85604 5.1431,12.9437 4.9781,42.73208 -0.164,29.61496 -4.8048,69.7814 -9.4845,82.09005 -2.3923,6.29225 -8.9296,7.91916 -10.9502,2.72512 z"
     id="path3758"
     inkscape:connector-curvature="0"
     transform="scale(0.74999998)" />
  <path
     style="fill:#66ff00;stroke-width:1.79802263"
     d="m 953.25465,1143.5752 c 0.73924,-4.3851 3.14389,-8.5622 6.82891,-11.8624 3.12834,-2.8016 24.70198,-14.4365 47.94144,-25.8552 48.1205,-23.6441 53.414,-26.9273 71.6676,-44.4511 22.3611,-21.467 34.9717,-41.7408 41.5242,-66.75736 4.1774,-15.94886 4.4492,-18.76543 1.8112,-18.76543 -1.0276,0 -10.9392,8.7428 -22.0258,19.42843 -21.8865,21.09506 -32.2327,28.90946 -46.7293,35.29436 -12.6436,5.5688 -72.53384,20.5383 -87.87358,21.964 l -12.31502,1.1446 v -6.5007 -6.5006 l 25.66,-12.6072 c 14.113,-6.934 31.7324,-16.5937 39.1543,-21.4661 15.1335,-9.93496 38.6945,-33.50222 49.6899,-49.70293 17.6045,-25.93888 31.2387,-60.43048 35.1028,-88.80307 1.2551,-9.21543 3.195,-17.10571 4.311,-17.53394 1.116,-0.42826 6.9664,0.88462 13.001,2.91752 6.0345,2.03288 11.3394,3.69614 11.7887,3.69614 0.4493,0 1.1573,-42.68056 1.5732,-94.84569 l 0.7563,-94.84569 5.6356,-37.75848 c 7.3493,-49.24073 6.3411,-45.84957 13.6313,-45.84957 4.7368,0 6.2963,0.87763 7.1886,4.04555 0.6268,2.22505 2.3148,25.65969 3.7513,52.07697 2.8698,52.77914 4.5347,62.56964 15.105,88.82951 10.0248,24.90438 11.5068,35.7884 10.5622,77.56911 -0.7995,35.36264 -0.8337,35.61361 -9.1775,67.2487 -4.6062,17.46448 -8.3712,33.64669 -8.3666,35.96045 0.01,2.48893 4.6775,9.9407 11.4421,18.24794 10.3189,12.67196 11.5386,15.04367 12.5085,24.32302 0.5911,5.65505 0.3619,17.13697 -0.5092,25.51539 -3.641,35.01797 -16.7849,55.54877 -41.2804,64.48027 -18.2736,6.6629 -22.4461,12.2926 -27.1795,36.672 -1.1169,5.7526 -3.765,12.3549 -5.9246,14.7716 -2.4427,2.7335 -18.6272,10.4701 -43.2213,20.661 -63.2552,26.2104 -79.8649,31.1842 -116.74841,34.9601 l -10.42496,1.0672 z"
     id="path3760"
     inkscape:connector-curvature="0"
     transform="scale(0.74999998)" />
  <path
     style="fill:#66ff00;stroke-width:1.79802263"
     d="m 1205.6676,948.94263 c -2.5428,-1.48736 -2.5855,-3.48601 -0.4122,-19.27407 1.4751,-10.71533 2.9991,-48.77979 3.8911,-97.1824 0.8064,-43.76227 1.9656,-80.06712 2.5759,-80.67745 0.6103,-0.61033 3.1038,-0.60921 5.541,0.002 5.1718,1.29805 6.8208,5.74324 20.9797,56.55691 l 9.1852,32.96392 -0.5827,35.36094 -0.5826,35.36094 -5.9511,12.58616 c -7.1447,15.11073 -13.2391,21.89199 -21.8161,24.27465 -7.755,2.15436 -9.1875,2.15749 -12.8282,0.0279 z"
     id="path3762"
     inkscape:connector-curvature="0"
     transform="scale(0.74999998)" />
  <path
     style="fill:#66ff00;stroke-width:1.79802263"
     d="m 1168.2206,1099.255 c -3.9712,-4.785 -0.059,-11.5027 13.0334,-22.3785 16.3848,-13.6109 38.9759,-36.5498 47.3092,-48.0375 3.5524,-4.897 9.6338,-15.5789 13.5143,-23.7374 6.3974,-13.45016 7.5326,-14.8337 12.1707,-14.8337 6.3972,0 7.3036,2.31384 7.2766,18.5768 -0.041,24.5955 -7.3824,42.2896 -25.1509,60.6158 -14.34,14.79 -26.0613,22.3969 -41.3546,26.8382 -17.9248,5.2056 -24.3443,5.9137 -26.7987,2.9563 z"
     id="path3764"
     inkscape:connector-curvature="0"
     transform="scale(0.74999998)" />
  <path
     style="fill:#66ff00;stroke-width:1.79802263"
     d="m 906.4416,1206.036 c -5.91941,-6.5409 -3.34191,-17.0698 6.97565,-28.4951 5.72886,-6.3439 11.9919,-8.978 26.55977,-11.1703 7.26455,-1.0933 21.13753,-3.9689 30.82884,-6.3903 16.80584,-4.199 54.70864,-8.9804 56.55464,-7.1344 0.4809,0.4809 0.3452,3.6953 -0.3016,7.1431 -1.384,7.3774 -10.7292,14.9271 -31.13285,25.1514 -40.78762,20.4387 -81.33031,29.9058 -89.48445,20.8956 z"
     id="path3766"
     inkscape:connector-curvature="0"
     transform="scale(0.74999998)" />
  <path
     style="fill:#66ff00;stroke-width:1.79802263"
     d="m 753.42822,1275.2801 c -6.03058,-1.312 -15.0641,-4.4628 -20.07448,-7.0017 -7.17752,-3.6372 -9.36928,-5.7978 -10.33317,-10.1863 -0.67286,-3.0635 -0.79287,-6.0006 -0.26669,-6.5267 0.52617,-0.5262 7.41639,-2.0777 15.31158,-3.4478 7.89519,-1.3701 27.56715,-6.5605 43.71547,-11.5343 65.97585,-20.3207 72.15674,-21.9112 88.91201,-22.879 15.02553,-0.8679 16.71955,-0.6266 20.22776,2.8816 2.98586,2.9859 3.82886,6.0242 3.82886,13.7997 0,16.1186 -4.59864,19.2254 -50.18441,33.904 -41.78308,13.4542 -66.25053,16.4048 -91.13693,10.9905 z"
     id="path3768"
     inkscape:connector-curvature="0"
     transform="scale(0.74999998)" />
  <path
     style="fill:#66ff00;stroke-width:1.79802263"
     d="m 703.66339,1333.532 c -27.55345,-2.9126 -58.35744,-14.0554 -83.56178,-30.227 -14.42092,-9.2527 -14.83369,-9.7129 -14.83369,-16.5365 0,-8.8164 0.73629,-8.8563 31.78547,-1.7209 41.66939,9.5759 91.25872,14.3996 148.57484,14.4524 l 30.22541,0.028 -0.55803,6.7369 c -0.49896,6.0234 -1.58755,7.3507 -10.27898,12.5332 -24.41323,14.5568 -57.51187,19.3685 -101.35324,14.7341 z"
     id="path3770"
     inkscape:connector-curvature="0"
     transform="scale(0.74999998)" />
  <path
     style="fill:#66ff00;stroke-width:1.79802263"
     d="m 785.96919,1187.8354 c -3.95565,-0.9085 -14.70594,-4.1403 -23.88952,-7.1817 -15.09803,-5.0001 -18.46889,-5.4734 -35.19157,-4.9408 l -18.49415,0.589 -9.75899,-8.6239 c -9.91584,-8.7624 -27.09073,-20.5715 -52.7478,-36.2682 -28.13875,-17.215 -33.52986,-24.5866 -45.33115,-61.9839 -4.53277,-14.364 -13.43375,-40.0759 -19.77994,-57.1375 -13.61168,-36.59475 -17.95203,-54.09627 -19.6186,-79.10772 -1.15883,-17.39132 -1.03384,-18.42973 2.21832,-18.42973 5.62121,0 8.93688,3.90277 12.22034,14.38418 4.06851,12.98745 16.60244,36.34428 41.97179,78.21397 45.71876,75.4545 42.52308,72.3578 77.03219,74.6463 12.6943,0.8419 25.47058,2.4394 28.39173,3.55 2.92114,1.1106 13.10805,9.5851 22.63758,18.8321 10.05269,9.7547 21.37453,18.8641 26.96932,21.6992 16.80928,8.5179 34.82825,6.0454 64.12146,-8.7986 17.61769,-8.9275 37.38669,-15.8446 95.73123,-33.4959 68.98787,-20.8713 76.54407,-23.6036 104.09007,-37.6391 24.882,-12.6782 27.8088,-13.6518 30.6706,-10.2035 1.6511,1.9895 1.6764,4.4281 0.1077,10.3793 -2.6341,9.9927 -23.1894,30.5763 -38.6175,38.6707 -5.9335,3.113 -28.184,11.4697 -49.44561,18.5705 -61.03371,20.3836 -73.22745,26.9226 -108.46753,58.1662 -11.69489,10.3686 -23.97409,20.1383 -27.28711,21.7104 -12.7524,6.0514 -40.94991,8.2072 -57.53279,4.3987 z"
     id="path3772"
     inkscape:connector-curvature="0"
     transform="scale(0.74999998)" />
  <path
     style="fill:#66ff00;stroke-width:1.79802263"
     d="m 714.9473,1053.2469 c -28.07318,-3.629 -48.14833,-23.847 -64.61681,-65.07655 -3.02834,-7.58159 -5.50607,-15.38384 -5.50607,-17.33835 0,-5.03837 4.73226,-6.21918 11.69079,-2.91715 15.0093,7.12238 67.43922,63.30085 70.98262,76.05755 2.39426,8.6197 2.30013,11.0732 -0.41388,10.7886 -1.23614,-0.1297 -6.69763,-0.8111 -12.13665,-1.5141 z"
     id="path3774"
     inkscape:connector-curvature="0"
     transform="scale(0.74999998)" />
  <path
     style="fill:none;stroke:#000000;stroke-width:0.75px;stroke-linecap:butt;stroke-linejoin:miter;stroke-opacity:1"
     d="m 955.90002,534.5 c 0.066,0.28707 0.48555,0.79505 0.19845,0.86121 -0.28702,0.0661 -0.19845,-1.15581 -0.19845,-0.86121 0,2.53546 0.14228,5.06896 0.19845,7.6038 0.11228,5.06382 0,2.27323 0,8.0911 0,0.32705 -0.0435,4.00218 0,4.04555 0.31785,0.31785 0.89903,0 1.3485,0 0.44955,0 0.89903,0 1.34858,0"
     id="path3776"
     inkscape:connector-curvature="0" />
  <path
     style="fill:#66ff00;stroke-width:1.79802263"
     d="m 1260.6359,797.42997 c -1.6937,-4.77342 -22.5553,-80.79686 -28.6434,-104.38184 -6.4754,-25.08521 -7.9341,-37.85427 -4.5625,-39.93804 1.0143,-0.6269 6.1471,-1.58391 11.4062,-2.12669 9.0973,-0.93893 9.7524,-0.71951 13.4798,4.51516 6.6364,9.31998 14.3615,27.51459 18.0832,42.59066 3.4468,13.96218 4.3076,33.55628 3.8508,87.6536 l -0.1177,13.93468 h -6.3495 c -3.4922,0 -6.7083,-1.01139 -7.1469,-2.24753 z"
     id="path3778"
     inkscape:connector-curvature="0"
     transform="scale(0.74999998)" />
  <path
     style="fill:#338000;stroke-width:1.79802263"
     d="m 845.01255,1046.1112 c -4.8605,-2.0877 -6.81758,-7.8439 -4.12369,-12.1288 1.12691,-1.7924 8.18258,-7.7091 15.67928,-13.1481 57.38978,-41.63755 89.44098,-73.71895 73.64954,-73.71895 -2.38197,0 -13.07596,6.85306 -25.62183,16.41929 -22.13412,16.87732 -58.67336,41.49066 -76.63754,51.62416 -12.1528,6.8554 -26.64852,9.1354 -58.59245,9.216 -21.49635,0.054 -22.12311,-0.057 -27.51531,-4.889 -6.70261,-6.0062 -8.79571,-14.0932 -8.95843,-34.61197 -0.26959,-33.99532 -6.28081,-43.2922 -33.77307,-52.23288 -6.6226,-2.15371 -14.04538,-5.84627 -16.49506,-8.20566 -3.97576,-3.82924 -4.4359,-5.68935 -4.28578,-17.32571 0.13791,-10.68541 1.3462,-15.85428 6.70148,-28.66681 3.59333,-8.59701 6.53332,-17.18582 6.53332,-19.08627 0,-6.11373 -7.46831,-13.20321 -20.47515,-19.43658 -18.86338,-9.04002 -18.83245,-9.05273 -28.86409,11.86332 -5.8216,12.13807 -8.27083,19.27815 -7.57032,22.0692 0.56954,2.26923 6.06923,11.68961 12.22154,20.93414 10.87609,16.34259 23.38607,30.32551 38.8988,43.47885 5.49797,4.66175 7.58724,7.78655 7.58724,11.34781 0,4.7314 -0.28477,4.87933 -7.6416,3.96933 -4.20288,-0.51986 -12.49626,-1.4298 -18.42973,-2.02207 -28.6754,-2.86235 -56.22523,-13.13312 -72.42721,-27.00141 -7.10354,-6.08038 -7.13081,-6.1542 -7.93528,-21.48132 -0.99539,-18.96472 -2.39706,-21.07288 -24.69362,-37.14006 -28.04201,-20.20746 -30.70706,-23.96718 -30.67703,-43.27767 0.0209,-13.43997 4.01211,-22.87212 18.09422,-42.76079 12.0175,-16.97274 36.32608,-41.35765 45.53712,-45.68011 10.80336,-5.06969 22.78957,-4.56299 30.46021,1.28769 3.48712,2.65976 6.85525,4.83592 7.48473,4.83592 0.62949,0 4.52676,-2.30238 8.66058,-5.11641 4.13383,-2.81403 14.23325,-8.58984 22.44317,-12.83513 8.20991,-4.24528 20.21013,-12.50638 26.66717,-18.35801 13.10692,-11.87803 17.39864,-14.03508 27.92441,-14.03508 9.15864,0 17.24271,3.81005 24.94479,11.75657 3.31771,3.42302 7.48384,6.22366 9.25805,6.22366 1.77424,0 8.44302,-3.57179 14.81952,-7.93732 15.15413,-10.37493 25.08468,-12.51132 53.35097,-11.4776 18.1941,0.66539 23.8161,1.54701 30.56816,4.79363 13.42731,6.4563 18.33798,12.83576 19.21514,24.96249 0.63508,8.77989 0.17927,10.85986 -3.01345,13.74919 -5.35607,4.84716 -18.9531,5.62556 -36.7119,2.10164 -14.82899,-2.94256 -15.42957,-2.92445 -26.48194,0.79882 -20.68772,6.96919 -35.89953,15.84022 -35.89953,20.93542 0,3.45641 5.05474,2.92769 14.38418,-1.50455 14.61776,-6.94464 57.76548,-3.56916 64.9431,5.08053 3.8651,4.65783 2.91726,23.28977 -1.7144,33.70005 -4.58015,10.29453 -5.5139,9.02687 15.88429,21.56458 20.40876,11.95799 23.36416,16.73312 19.7306,31.87943 -2.99027,12.46488 -15.8145,26.33834 -26.53937,28.7107 -13.54003,2.99507 -39.28147,-2.5597 -60.09987,-12.96903 -11.89592,-5.94802 -14.3769,-9.62602 -14.55724,-21.58075 -0.14546,-9.64704 2.60871,-13.6839 15.36965,-22.52726 l 7.14304,-4.95012 -5.13535,-4.27075 c -8.21189,-6.82932 -15.6634,-11.144 -19.25838,-11.15125 -4.78328,-0.009 -20.9735,8.41964 -26.78196,13.94378 -2.71951,2.58638 -4.94456,6.22948 -4.94456,8.09575 0,1.88962 6.01778,9.09904 13.58024,16.26941 l 13.58025,12.87616 -1.25924,23.16484 -1.25926,23.16485 7.00775,-0.96905 c 3.85426,-0.53297 11.15472,-1.86131 16.22325,-2.95187 11.16137,-2.40154 16.80814,-0.65624 22.41554,6.92818 l 4.00297,5.41433 10.29649,-8.92001 c 10.07698,-8.72983 10.54641,-8.91999 22.02,-8.91999 h 11.72351 l 13.87514,15.2832 c 7.63131,8.40575 14.6292,15.28319 15.55084,15.28319 0.92163,0 6.2837,-3.12255 11.91568,-6.93902 5.63198,-3.81645 13.88097,-8.76353 18.33107,-10.99351 13.61785,-6.82398 19.77825,-12.29511 19.77825,-17.56533 0,-2.61166 -3.35024,-10.38775 -7.44496,-17.2802 -6.12171,-10.30438 -7.46962,-14.23667 -7.58363,-22.12413 -0.17405,-12.03763 1.75045,-14.03761 17.78588,-18.4841 9.97584,-2.76622 13.86227,-4.9277 19.25482,-10.70881 8.16125,-8.74928 8.37976,-12.48811 1.54434,-26.42387 -2.86657,-5.84418 -9.62384,-19.93057 -15.01618,-31.30307 -19.31952,-40.74499 -42.40809,-70.61095 -75.0671,-97.10219 -24.77449,-20.09572 -31.13255,-27.57632 -33.87698,-39.85808 -3.15078,-14.1002 -4.87086,-15.16558 -18.82567,-11.66025 -6.24308,1.5682 -22.62821,3.74757 -36.41142,4.84301 -13.78321,1.09545 -30.57476,3.14733 -37.31458,4.55975 -18.89696,3.96013 -24.3365,3.50902 -26.50637,-2.19819 -3.15744,-8.3047 -0.0843,-24.79613 6.74398,-36.19043 12.90389,-21.53258 26.16765,-30.98534 53.59287,-38.19434 23.66412,-6.22035 28.70212,-11.48727 19.15105,-20.02116 -6.93068,-6.19255 -10.75725,-6.35326 -37.26632,-1.56517 -27.50545,4.96806 -36.20625,7.88456 -49.44376,16.57352 -10.44109,6.85344 -12.65033,7.59181 -22.93654,7.66588 -13.43779,0.0968 -15.42161,-1.67384 -17.24085,-15.38798 l -1.20864,-9.11124 12.74614,-13.41837 c 12.81239,-13.48812 16.18692,-19.0195 16.18692,-26.53288 0,-4.21472 -6.73534,-11.88351 -10.43706,-11.88351 -1.16278,0 -7.18256,3.46996 -13.37729,7.71103 -6.19471,4.24106 -18.13694,10.4417 -26.53829,13.77918 -24.72133,9.82069 -32.1287,14.1227 -44.78651,26.01082 -13.34651,12.53495 -22.11613,15.56415 -33.84877,11.69203 -5.10616,-1.68519 -7.02678,-3.83864 -10.57082,-11.85236 l -4.33094,-9.79301 -5.81964,4.06183 c -11.57081,8.07588 -56.67665,54.92207 -66.66174,69.2338 -5.62127,8.05703 -11.42499,15.11136 -12.89718,15.67628 -7.47109,2.86693 -11.62393,-4.24177 -11.74447,-20.10382 l -0.0777,-10.22157 -11.54419,12.27132 c -12.15517,12.92077 -27.75637,35.25739 -58.20641,83.33552 l -18.41767,29.08002 -2.60341,18.56758 c -4.6572,33.21516 -13.51804,59.24765 -35.08415,103.07465 -18.08632,36.75529 -18.16217,36.85946 -26.83881,36.85946 -14.05461,0 -14.04978,-6.66045 0.0652,-89.90113 15.03056,-88.64039 22.88352,-130.074 26.24571,-138.47694 3.81716,-9.54 10.39811,-14.75052 26.20986,-20.75186 17.78451,-6.75008 20.21729,-8.56942 27.50861,-20.57223 9.55849,-15.73497 27.9586,-30.52582 54.82387,-44.06994 19.5491,-9.85568 25.18888,-9.39996 25.18888,2.03534 0,3.34011 0.73377,6.07292 1.63059,6.07292 2.00999,0 11.3719,-11.26935 29.87378,-35.96045 23.88965,-31.88115 48.01582,-54.34604 70.34503,-65.50118 8.55544,-4.2741 11.06518,-4.6217 33.36965,-4.6217 h 24.1184 l 13.26004,-14.61407 c 7.29303,-8.03773 15.91718,-15.72428 19.16478,-17.08121 6.24313,-2.60855 22.51094,-2.9938 37.48561,-0.88772 5.7538,0.80923 12.87368,0.35376 19.77825,-1.26525 19.48799,-4.56961 35.03434,-3.34643 60.27678,4.74254 42.77791,13.70824 66.01165,16.68129 95.66815,12.24194 47.30676,-7.08146 61.39033,-5.89718 77.44243,6.51207 15.63382,12.0859 40.81989,37.59918 48.21204,48.83844 5.917,8.99625 6.9832,12.08476 6.9832,20.22775 v 9.61037 h -8.3486 c -6.07396,0 -11.93003,-1.81905 -21.49285,-6.67621 -7.22927,-3.67192 -13.66445,-6.15591 -14.30038,-5.51998 -0.63594,0.63593 0.94474,6.40783 3.51259,12.82645 3.23467,8.08544 4.66881,15.02791 4.66881,22.60119 0,14.47756 -3.36812,18.12307 -16.74412,18.12307 -8.72778,0 -10.92712,-0.93833 -25.48745,-10.87399 l -15.93541,-10.87398 -8.22549,3.45963 c -4.524,1.90281 -13.88924,5.28021 -20.81162,7.50534 -14.90383,4.7907 -22.88881,10.29181 -26.06338,17.95589 -4.52439,10.92283 4.78783,19.11979 16.30265,14.3502 10.26595,-4.2523 23.43838,-2.87093 35.4165,3.71408 l 10.86422,5.97265 11.30556,-5.07364 c 12.46695,-5.59483 25.05587,-6.59869 36.28334,-2.89329 9.49323,3.13304 19.61349,15.67157 27.33382,33.86531 3.66691,8.64144 12.96031,27.84837 20.65191,42.68205 15.9118,30.68642 20.5771,42.93903 23.5564,61.86606 2.8064,17.8286 4.4693,21.33097 20.5675,43.31826 7.6024,10.38359 14.9275,21.00589 16.2779,23.60515 4.0295,7.75605 9.4826,29.51571 10.8341,43.23183 l 1.2645,12.83274 -9.9886,-1.03093 c -5.4937,-0.56699 -12.0876,-2.40619 -14.6529,-4.08709 -3.7637,-2.46604 -5.1834,-2.6254 -7.3524,-0.82531 -3.4511,2.86415 -3.3971,9.35333 0.2047,24.60378 3.6418,15.41988 3.575,42.9293 -0.139,57.19879 -4.2469,16.31718 -14.3844,35.5242 -24.7167,46.82943 -14.5117,15.87806 -45.98575,35.2567 -108.76618,66.96747 -47.34553,23.9145 -59.22947,29.215 -67.22727,29.9849 -5.34335,0.5144 -11.46453,0.1839 -13.60262,-0.7344 z"
     id="path3780"
     inkscape:connector-curvature="0"
     transform="scale(0.74999998)" />
  <path
     style="fill:#338000;stroke-width:1.79802263"
     d="m 745.39621,1272.0364 c -16.47416,-5.6162 -21.4588,-9.2066 -21.4588,-15.4566 0,-4.959 0.42848,-5.1917 14.83369,-8.0562 8.15853,-1.6224 33.84777,-8.6549 57.08722,-15.6279 52.52633,-15.7605 60.4062,-17.6121 77.69447,-18.2569 17.6282,-0.6575 20.16933,1.3478 20.16933,15.9158 0,9.1617 -0.54291,10.5926 -5.62793,14.8337 -8.75554,7.3024 -52.81718,22.6146 -82.88476,28.8039 -16.92319,3.4835 -46.38594,2.4216 -59.81322,-2.1558 z"
     id="path3782"
     inkscape:connector-curvature="0"
     transform="scale(0.74999998)" />
  <path
     style="fill:#338000;stroke-width:1.79802263"
     d="m 1169.0781,1098.9214 c -1.5549,-1.5548 -2.8271,-3.6614 -2.8271,-4.6811 0,-1.0198 13.9929,-15.7283 31.0953,-32.6855 26.7347,-26.5079 32.2188,-32.9132 39.107,-45.6765 13.0384,-24.15947 14.0475,-25.6104 17.8111,-25.6104 5.9983,0 7.8647,6.41192 6.7715,23.2629 -1.2593,19.4102 -6.3153,33.1417 -17.179,46.6558 -16.0394,19.9527 -30.3811,30.2943 -49.7366,35.8646 -19.9915,5.7534 -21.9362,5.9763 -25.0422,2.8702 z"
     id="path3784"
     inkscape:connector-curvature="0"
     transform="scale(0.74999998)" />
  <path
     style="fill:#7fff2a;stroke-width:1.79802263"
     d="m 906.4416,1206.036 c -6.18574,-6.8352 -3.68766,-16.4998 7.45182,-28.8299 4.89642,-5.4198 8.29281,-7.3346 15.5843,-8.7861 5.12787,-1.0209 17.41449,-3.5377 27.30362,-5.5931 9.88912,-2.0553 23.23944,-4.8298 29.66737,-6.1656 6.42793,-1.3358 18.36229,-2.9664 26.52079,-3.6236 14.0416,-1.1311 14.8337,-1.0025 14.8337,2.4077 0,7.6909 -3.7943,12.6821 -15.6029,20.5243 -35.59441,23.6388 -96.02735,40.8193 -105.7587,30.0663 z"
     id="path3786"
     inkscape:connector-curvature="0"
     transform="scale(0.74999998)" />
  <path
     style="fill:#7fff2a;stroke-width:1.79802263"
     d="m 650.21849,1246.1713 c -11.78282,-1.1951 -22.44986,-4.4154 -47.0111,-14.192 -23.10743,-9.1979 -25.46263,-9.7701 -40.45551,-9.8292 -35.33785,-0.1392 -58.14249,-8.3383 -77.19043,-27.7526 -17.67692,-18.017 -22.26113,-30.307 -28.48924,-76.3781 -3.94406,-29.1754 -8.28046,-32.4274 -16.30106,-12.2248 -2.96276,7.4626 -5.16618,10.136 -10.53673,12.7839 -6.46702,3.1886 -7.17088,3.2029 -14.77194,0.3 -8.45617,-3.2294 -16.05113,-11.2565 -25.56773,-27.0223 -6.92125,-11.4663 -10.27959,-21.6143 -13.75534,-41.5653 -2.04413,-11.7333 -5.23953,-21.0626 -12.04199,-35.1578 l -9.25952,-19.18642 0.92904,-16.77406 c 1.11701,-20.16793 4.46355,-29.60617 18.16846,-51.24033 9.61166,-15.17269 31.17707,-61.10422 29.48405,-62.79724 -0.4447,-0.4447 -4.77074,1.91696 -9.61342,5.24814 -14.46132,9.94763 -19.6616,12.00335 -30.36459,12.00335 -8.28377,0 -10.83942,-0.77928 -14.47347,-4.41334 -3.8884,-3.88838 -4.40882,-5.97351 -4.3754,-17.53072 0.0864,-29.87188 19.20837,-62.68496 67.98368,-116.65898 l 16.77797,-18.56625 -0.59576,-21.53612 -0.59577,-21.53612 10.24282,-8.2101 c 5.63355,-4.51555 29.5023,-18.6982 53.04166,-31.51699 40.63429,-22.12813 43.39681,-23.3424 54.6219,-24.00898 16.50304,-0.98 18.68088,1.35112 17.24492,18.45869 -0.58514,6.97124 -1.5281,15.50687 -2.09547,18.96806 -2.22983,13.60328 4.95161,13.92067 20.67511,0.91376 19.67648,-16.27695 18.93792,-16.12043 79.11299,-16.7659 51.73046,-0.55489 64.94082,0.0233 69.80341,3.05542 3.3251,2.07337 5.78055,14.18848 4.51176,22.26074 -1.29228,8.22147 0.74663,7.67352 -41.90196,11.26121 -47.50401,3.99613 -62.35703,9.34646 -115.34558,41.54954 -22.83381,13.87695 -27.03352,15.79838 -36.01438,16.47715 -11.75748,0.88862 -12.84534,-0.20049 -14.90514,-14.92212 -2.74897,-19.64718 -3.59307,-20.39628 -12.08486,-10.72467 -3.06961,3.4961 -11.09152,9.63022 -17.82647,13.63138 -6.73495,4.00116 -13.11539,8.32316 -14.17876,9.60444 -1.06337,1.28128 -2.63841,11.77563 -3.50008,23.32078 -1.74881,23.43164 -0.63479,21.17422 -20.6685,41.88183 l -12.56237,12.98494 7.83097,7.22949 7.83096,7.22951 -1.14972,32.82723 c -2.06431,58.94114 -4.84548,78.69068 -14.85282,105.47215 -3.47451,9.29842 -5.93171,17.91104 -5.46043,19.13916 0.47127,1.22811 6.05917,3.96416 12.41756,6.08009 15.79496,5.25623 19.13918,9.29504 30.04235,36.28218 7.91608,19.5935 10.14625,21.2084 33.18484,24.0284 25.37444,3.1061 26.46171,4.1205 37.18134,34.6899 13.39922,38.211 28.4199,61.3103 59.35857,91.2835 22.24213,21.5481 38.28749,34.648 61.02071,49.8189 17.34968,11.5782 20.80553,16.3215 14.98981,20.574 -3.07825,2.2509 -22.07558,2.8195 -38.50934,1.1526 z"
     id="path3788"
     inkscape:connector-curvature="0"
     transform="scale(0.74999998)" />
  <path
     style="fill:#7fff2a;stroke-width:1.79802263"
     d="m 1105.1926,800.98864 c -2.5344,-6.29959 -9.0694,-77.45643 -9.0668,-98.72376 0,-10.55925 0.8648,-25.39957 1.9189,-32.97849 1.6032,-11.52654 1.49,-14.12046 -0.6921,-15.8628 -1.4836,-1.18464 -3.9508,-9.83721 -5.7207,-20.06318 -5.1492,-29.74982 -7.7059,-33.35616 -26.7843,-37.78074 -20.0769,-4.65615 -22.7629,-7.69555 -26.198,-29.64511 -2.9251,-18.69046 -2.306,-34.68633 1.7398,-44.95056 1.9778,-5.01778 3.5863,-10.91379 3.5744,-13.10223 -0.031,-5.60645 -6.1878,-15.73514 -22.8606,-37.60535 -16.2835,-21.35956 -20.5518,-30.69251 -16.0815,-35.16284 2.5236,-2.52356 3.8811,-2.40248 14.1351,1.26064 14.1538,5.05627 44.7917,21.02763 59.5366,31.03606 25.167,17.08258 36.4365,34.15231 45.4699,68.87221 4.0347,15.5074 4.684,21.77734 4.7464,45.83428 0.082,31.44707 -1.4609,37.68051 -14.7956,59.78962 l -7.1679,11.88463 5.09,5.08998 c 2.7995,2.79949 7.0357,9.93471 9.4138,15.85603 3.9726,9.89124 4.3172,13.17664 4.2414,40.43341 -0.08,28.81065 -3.7808,62.81456 -8.6764,79.72347 -2.5711,8.88058 -9.3051,12.35206 -11.8224,6.09473 z"
     id="path3790"
     inkscape:connector-curvature="0"
     transform="scale(0.74999998)" />
  <path
     style="fill:none;stroke:#000000;stroke-width:0.75px;stroke-linecap:butt;stroke-linejoin:miter;stroke-opacity:1"
     d="m 1005.9936,760.5635 c -10.49786,37.26165 -20.99572,52.07168 -31.49358,68.43653 z"
     id="path3792"
     inkscape:connector-curvature="0"
     sodipodi:nodetypes="ccc" />
  <path
     style="fill:#7fff2a"
     d=""
     id="path3794"
     inkscape:connector-curvature="0"
     transform="scale(0.74999998)" />
  <path
     style="fill:#000000"
     d="m 1310.5076,1083.975 c 1.2458,-4.0248 22.1902,-48.6692 22.466,-47.8878 0.5299,1.5019 -8.5319,23.6418 -14.26,34.8402 -5.2157,10.1965 -9.3664,16.7962 -8.206,13.0476 z"
     id="path3796"
     inkscape:connector-curvature="0"
     transform="scale(0.74999998)" />
  <path
     style="fill:#55d400"
     d="m 838.16481,1315.1097 c -1.44468,-1.4447 -1.99575,-3.3189 -1.98468,-6.75 0.008,-2.6125 0.34592,-5.223 0.75,-5.8011 0.40407,-0.5781 3.88468,-1.9967 7.73468,-3.1524 3.85,-1.1558 20.5,-6.1804 37,-11.1658 16.5,-4.9854 36.96658,-10.8927 45.48128,-13.1271 8.5147,-2.2345 16.86011,-5.0075 18.54534,-6.1623 1.68524,-1.1547 5.28899,-5.2461 8.00835,-9.0919 6.69198,-9.4641 18.486,-20.3081 27.94499,-25.694 9.69257,-5.5189 23.91713,-10.3153 37.02003,-12.483 31.5616,-5.2213 31.0883,-5.0808 54.1365,-16.067 15.6998,-7.4835 21.6581,-11.2596 43.5113,-27.5757 26.5233,-19.803 37.3235,-25.4004 54.8522,-28.4277 11.5912,-2.0018 16.4998,-4.078 22.3148,-9.438 4.8779,-4.4964 6.221,-7.1627 7.1588,-14.212 0.3401,-2.5563 2.4,-8.3322 4.5776,-12.8352 5.1061,-10.5587 11.0797,-16.4867 30.5983,-30.3643 17.1876,-12.2203 25.5905,-20.2066 34.8822,-33.1525 12.2854,-17.1169 19.4451,-35.6437 19.4613,-50.35875 0.01,-5.89143 -2.0401,-27.16212 -7.0373,-73.14125 -3.8292,-35.23185 -8.2569,-57.83848 -15.6686,-80 -3.0056,-8.98702 -4.6879,-15.92363 -5.0325,-20.75 l -0.5176,-7.25 h 6.1667 c 7.5684,0 9.1412,0.96102 16.8712,10.30867 12.3281,14.908 23.6802,34.9814 29.3447,51.88902 4.1352,12.34264 6.4354,24.87428 8.8895,48.42966 2.9579,28.392 5.6942,44.38994 9.5898,56.06882 2.8668,8.59423 3.3942,11.57936 3.3572,19.00003 -0.097,19.5087 0.037,19.0885 -20.0638,62.7985 l -18.3923,39.9947 -10.3713,12.0053 c -5.7042,6.6029 -18.3219,20.5553 -28.0393,31.0053 -9.7174,10.45 -23.1745,25.1434 -29.9048,32.6521 -6.7302,7.5086 -13.3267,14.3662 -14.6588,15.2391 -1.3321,0.8728 -5.4829,2.7383 -9.2239,4.1455 -8.5918,3.2318 -25.1267,11.9566 -35.0134,18.4751 -9.8265,6.4789 -49.307,21.1998 -76.3783,28.4788 -23.2087,6.2404 -38.9077,14.6367 -56.291,30.1063 -19.0841,16.983 -27.4284,22.4407 -42.57765,27.8482 -16.38731,5.8494 -73.10205,10.5549 -127.21796,10.5549 -26.49024,0 -27.91942,-0.096 -29.82358,-2 z"
     id="path3798"
     inkscape:connector-curvature="0"
     transform="scale(0.74999998)" />
  <path
     style="fill:#55d400"
     d="m 521.66481,1343.4731 c -29.26469,-15.4193 -54.10226,-29.6906 -62.02896,-35.6411 -6.2233,-4.6717 -7.18583,-5.8651 -9.12947,-11.3196 -3.73907,-10.4929 -7.24125,-28.3644 -8.30946,-42.4027 -1.15254,-15.1466 -1.37325,-54.8866 -0.38236,-68.8464 l 0.64974,-9.1536 h 6.81786 6.81786 l 4.03382,5.3427 c 9.75698,12.9231 13.75976,20.9091 28.14748,56.1573 6.46037,15.8271 13.23583,26.1974 27.03771,41.383 34.61878,38.0894 44.3664,51.1692 42.25173,56.6955 -1.28014,3.3453 -13.41335,18.4317 -14.77581,18.3721 -0.62158,-0.027 -10.13014,-4.7915 -21.13014,-10.5872 z"
     id="path3800"
     inkscape:connector-curvature="0"
     transform="scale(0.74999998)" />
  <path
     style="fill:#112b00"
     d="m 1203.472,657.92289 c -1.5588,-1.96348 -3.9877,-10.09869 -6.3633,-21.31319 -1.165,-5.5 -4.6153,-16.51388 -7.6673,-24.47529 -11.7958,-30.7708 -10.7462,-26.01865 -10.7623,-48.72998 l -0.014,-20.20526 -8.5692,-10.29474 c -4.7131,-5.6621 -15.9176,-19.96973 -24.8989,-31.79473 -28.9808,-38.15695 -38.4902,-47.65957 -57.0394,-56.99865 -9.4286,-4.74704 -15.0909,-6.43017 -28.687,-8.52719 -12.3092,-1.89854 -18.4149,-4.1853 -20.7694,-7.77873 -0.8979,-1.37041 -2.989,-6.025 -4.6467,-10.34354 -7.249,-18.88344 -17.0486,-28.97506 -37.27056,-38.38086 -22.67121,-10.54504 -48.96852,-13.53743 -92.93852,-10.57555 -28.08366,1.89175 -36.26365,1.99004 -42.15524,0.50652 -5.49402,-1.38341 -7.67732,-3.75124 -10.95884,-11.88508 -1.43855,-3.5657 -4.15265,-8.0657 -6.03135,-10 -4.73215,-4.87223 -5.65977,-7.88652 -6.28752,-20.43124 -0.52192,-10.4299 -0.46186,-10.88076 1.35324,-10.15831 7.67452,3.05466 38.25745,7.78863 58.8994,9.11712 15.96974,1.02779 47.48627,-2.01177 69.30091,-6.6836 l 9.30091,-1.99189 9.19909,3.01941 c 5.0595,1.66068 17.29618,5.32992 27.19268,8.15386 21.7726,6.21277 22.3694,6.45473 32.0739,13.00325 4.2501,2.86793 10.4736,6.32196 13.83,7.67561 14.161,5.71122 14.6025,6.24601 14.6025,17.68638 0,6.20198 -0.3899,7.88801 -2.5659,11.09443 -2.1657,3.19142 -2.4353,4.34375 -1.7287,7.38955 0.9193,3.96263 0.8448,3.92869 19.7946,9.0212 9.3012,2.49956 25.7435,10.16445 34.7339,16.19189 19.4623,13.04797 62.0622,64.07394 72.3614,86.67395 9.479,20.80033 10.1096,26.12362 13.4703,113.72147 0.6119,15.95 1.269,29.15903 1.4602,29.35339 0.3659,0.37188 -4.9939,15.37383 -6.3731,17.83832 -0.6577,1.17516 -0.9915,1.19713 -1.8455,0.12148 z"
     id="path3802"
     inkscape:connector-curvature="0"
     transform="scale(0.74999998)" />
  <path
     style="fill:#112b00"
     d="m 522.66481,1343.4655 c -40.34855,-21.4378 -64.37606,-35.8402 -68.4654,-41.0389 -3.99364,-5.0771 -8.85287,-24.2208 -11.09571,-43.7133 -1.14228,-9.9276 -1.45898,-75.6832 -0.38512,-79.9618 0.62748,-2.5001 0.99255,-2.6407 6.80464,-2.6214 l 6.14159,0.02 4.57877,6.2295 c 8.57601,11.668 13.82149,21.9267 24.40515,47.7296 10.23272,24.9473 14.14687,30.8513 39.19209,59.1161 27.56692,31.1105 34.38802,40.6057 33.00363,45.942 -0.94769,3.653 -12.51133,17.9483 -14.48083,17.9017 -0.93434,-0.022 -9.79881,-4.3439 -19.69881,-9.604 z"
     id="path3804"
     inkscape:connector-curvature="0"
     transform="scale(0.74999998)" />
</svg>
