<svg xmlns="http://www.w3.org/2000/svg" viewBox="0 0 80 80" width="240px" height="240px"><path fill="#ba9b48" d="M71.237,62.838L59.075,75h7.07l8.627-8.627c2.812-2.812,2.812-7.387,0-10.198L60.34,41.742 l-3.535,3.535L71.237,59.71C72.1,60.572,72.1,61.976,71.237,62.838z"/><path fill="#ffeea3" d="M71.944,63.545L60.489,75h4.242l9.334-9.334c2.422-2.422,2.422-6.362,0-8.784L59.633,42.449	l-2.121,2.121l14.433,14.433C73.196,60.255,73.196,62.293,71.944,63.545z"/><path fill="#ba9b48" d="M13.84,75h7.07L8.748,62.838c-0.862-0.862-0.862-2.266,0-3.128l14.433-14.433l-3.535-3.535 L5.213,56.175c-2.812,2.812-2.812,7.387,0,10.198L13.84,75z"/><path fill="#ffeea3" d="M15.254,75h4.242L8.041,63.545c-1.252-1.252-1.252-3.29,0-4.542L22.474,44.57l-2.121-2.121	L5.92,56.882c-2.422,2.422-2.422,6.362,0,8.784L15.254,75z"/><rect width="49" height="49.875" x="15.493" y="25.125" fill="#ffeea3"/><polygon fill="#ba9b48" points="15.993,75 15.993,26.588 64.039,26.588 64.039,75 64.993,75 64.993,25.588 15.061,25.52 15.061,75"/><path fill="#ffeea3" d="M57.1,39.5l-39.6-0.191c0.005,1.498-0.702,2.971-1.85,3.971c-0.841,0.733-2.064,1.295-3.289,1.295	c-4.804,0-4.876-5.604-4.876-8.944c0-13.358,11.378-30.056,32.508-30.056S72.5,22.273,72.5,35.631c0,3.34,0,8.944-4.876,8.944	c-1.256,0-2.453-0.616-3.292-1.375c-1.117-1.009-1.832-2.453-1.832-3.935L57.7,39.3L57.1,39.5z"/><path fill="#ba9b48" d="M67.624,45.074c-1.248,0-2.57-0.548-3.627-1.503C62.746,42.441,62,40.831,62,39.265V37.11h1v2.154	c0,1.288,0.623,2.621,1.667,3.564c0.876,0.791,1.954,1.245,2.957,1.245c4.038,0,4.376-4.171,4.376-8.443	c0-11.92-10.173-29.557-32.007-29.557c-21.835,0-32.008,17.637-32.008,29.557c0,4.085,0.338,8.443,4.376,8.443	c0.996,0,2.131-0.448,2.96-1.171c1.056-0.919,1.683-2.262,1.679-3.592V37.11h1v2.199c0.005,1.614-0.751,3.24-2.022,4.348	c-1.019,0.888-2.37,1.417-3.616,1.417C6.985,45.074,7,38.696,7,35.631C7,20.936,19.605,5.074,39.993,5.074S73,20.936,73,35.631	C73,38.931,73,45.074,67.624,45.074z"/><path fill="#ba9b48" d="M39.993,41c-5.791,0-10.423-3.394-10.616-3.538l0.596-0.803C30.018,36.692,34.541,40,39.993,40 c5.451,0,9.975-3.308,10.02-3.341l0.596,0.803C50.415,37.606,45.783,41,39.993,41z"/><circle cx="25.451" cy="25.451" r="8.951" fill="#66798f"/><path fill="#36404d" d="M25.451,34.902c-5.211,0-9.451-4.24-9.451-9.451S20.24,16,25.451,16s9.451,4.24,9.451,9.451 S30.662,34.902,25.451,34.902z M25.451,17C20.791,17,17,20.791,17,25.451s3.791,8.451,8.451,8.451s8.451-3.791,8.451-8.451 S30.111,17,25.451,17z"/><circle cx="25" cy="24" r="6" fill="#e1ebf2"/><circle cx="54.5" cy="25.5" r="9" fill="#66798f"/><path fill="#36404d" d="M54.5,35c-5.238,0-9.5-4.262-9.5-9.5s4.262-9.5,9.5-9.5s9.5,4.262,9.5,9.5S59.738,35,54.5,35z M54.5,17c-4.687,0-8.5,3.813-8.5,8.5s3.813,8.5,8.5,8.5s8.5-3.813,8.5-8.5S59.187,17,54.5,17z"/><circle cx="55" cy="24" r="6" fill="#e1ebf2"/><path fill="#f5ce85" d="M39.993,25.5c-17.748,0.402-16.179,14.485-14.56,18.685c0.987,2.546,3.042,4.315,4.853,4.315 c4.853,0,5.694-7.307,6.472-11.507c0.307-1.769,1.797-2.474,3.235-2.646c1.44,0.172,2.929,0.877,3.235,2.646 c0.776,4.2,1.618,11.507,6.472,11.507c1.812,0,3.867-1.769,4.853-4.315C56.171,39.985,57.741,25.902,39.993,25.5z"/><path fill="#967a44" d="M49.699,49c-4.87,0-6.012-6.509-6.767-10.815c-0.067-0.384-0.133-0.753-0.196-1.101 c-0.274-1.582-1.63-2.089-2.743-2.233c-1.114,0.145-2.47,0.651-2.743,2.228c-0.065,0.355-0.13,0.726-0.198,1.111 C36.297,42.494,35.154,49,30.286,49c-2.042,0-4.279-1.949-5.319-4.635c-0.981-2.546-1.995-8.612,1.186-13.36 C28.721,27.17,33.374,25.15,39.981,25c6.631,0.15,11.283,2.17,13.852,6.005C57.014,35.753,56,41.819,55.02,44.364 C53.979,47.051,51.741,49,49.699,49z M39.993,33.843l0.06,0.008c2.036,0.243,3.373,1.357,3.667,3.058 c0.064,0.345,0.13,0.717,0.197,1.104C44.656,42.228,45.669,48,49.699,48c1.618,0,3.505-1.718,4.388-3.996 c1.063-2.762,1.653-8.355-1.085-12.442c-2.377-3.549-6.757-5.42-13.021-5.562c-6.24,0.142-10.621,2.013-12.998,5.562 c-2.738,4.087-2.148,9.681-1.084,12.443C26.781,46.282,28.668,48,30.286,48c4.028,0,5.041-5.77,5.781-9.983 c0.068-0.389,0.134-0.763,0.199-1.114c0.293-1.694,1.63-2.809,3.667-3.052L39.993,33.843z"/><g><path fill="#66798f" d="M47.5,34c0-1.933-3.358-3.5-7.5-3.5s-7.5,1.567-7.5,3.5s3.358,3.5,7.5,3.5S47.5,35.933,47.5,34z"/><path fill="#36404d" d="M40,38c-4.486,0-8-1.757-8-4s3.514-4,8-4s8,1.757,8,4S44.486,38,40,38z M40,31c-4.125,0-7,1.581-7,3 s2.875,3,7,3s7-1.581,7-3S44.125,31,40,31z"/></g><g><path fill="#fff" d="M35.374,34.086c-0.148,0-0.295-0.065-0.394-0.191c-0.17-0.218-0.132-0.532,0.085-0.702 c1.068-0.836,3.095-1.289,5.297-1.218c0.275,0.011,0.491,0.243,0.48,0.52c-0.011,0.275-0.209,0.478-0.52,0.48 c-1.928-0.084-3.765,0.319-4.641,1.005C35.591,34.051,35.482,34.086,35.374,34.086z"/></g></svg>