<?xml version="1.0" encoding="utf-8"?>
<!-- Generator: Adobe Illustrator 16.0.0, SVG Export Plug-In . SVG Version: 6.00 Build 0)  -->
<!DOCTYPE svg PUBLIC "-//W3C//DTD SVG 1.1//EN" "http://www.w3.org/Graphics/SVG/1.1/DTD/svg11.dtd">
<svg version="1.1" id="Calque_1" xmlns="http://www.w3.org/2000/svg" xmlns:xlink="http://www.w3.org/1999/xlink" x="0px" y="0px"
	 width="240px" height="240px" viewBox="0 0 432 432" enable-background="new 0 0 432 432" xml:space="preserve">
<g>
	<g>
		<path fill="#BE1622" d="M277.293,203.185c-0.178-0.75-0.37-1.497-0.576-2.24c-0.576-2.087-1.273-4.14-2.064-6.159
			c-2.648-6.757-6.477-13.084-11.416-18.635c-2.816-3.166-5.987-6.083-9.506-8.681c-0.113-0.083-0.226-0.167-0.34-0.25
			c-1.383-1.007-2.816-1.968-4.303-2.874c-3.81-2.321-7.771-4.179-11.817-5.601c-1.448-0.509-2.908-0.965-4.376-1.362
			c-26.063-7.042-54.69,3.535-69.446,27.75c-0.652,1.07-1.264,2.153-1.844,3.246c-0.143,0.269-0.27,0.542-0.408,0.813
			c-3.303,6.442-5.391,13.229-6.307,20.081c-0.017,0.125-0.035,0.249-0.051,0.374c-0.229,1.794-0.378,3.593-0.449,5.39
			c-0.319,8.076,0.94,16.125,3.663,23.681c1.523,4.226,3.503,8.298,5.922,12.133c0.419,0.665,0.849,1.324,1.294,1.974
			c16.213-1.275,36.996-6.74,58.509-16.093C246.425,226.884,265.365,214.69,277.293,203.185z"/>
		<path fill="#BE1622" d="M194.936,275.971c4.011,1.497,8.115,2.542,12.246,3.177c22.419,3.442,45.668-5.584,59.669-24.655
			c1.062-1.446,2.073-2.947,3.024-4.508c1.678-2.754,3.117-5.586,4.323-8.473c-11.972,6.723-24.977,13.194-38.764,19.189
			C221.638,266.7,208.026,271.8,194.936,275.971z"/>
	</g>
	<g>
		<path fill="#F39200" d="M253.73,167.47c-0.113-0.083-0.226-0.167-0.34-0.25c-1.383-1.007-2.816-1.968-4.303-2.874
			c-3.81-2.321-7.771-4.179-11.817-5.601c-23.13,13.138-54.596,23.922-76.074,30.447c-3.303,6.442-5.391,13.229-6.307,20.081
			c-0.017,0.125-0.035,0.249-0.051,0.374c-0.229,1.794-0.378,3.593-0.449,5.39c29.396-6.761,82.326-20.745,108.847-38.885
			C260.42,172.985,257.249,170.068,253.73,167.47z"/>
		<path fill="#F39200" d="M277.293,203.185c-0.178-0.75-0.37-1.497-0.576-2.24c-0.576-2.087-1.273-4.14-2.064-6.159
			c-30.056,25.573-87.637,38.701-116.6,43.931c1.523,4.226,3.503,8.298,5.922,12.133c0.419,0.665,0.849,1.324,1.294,1.974
			c16.213-1.275,36.996-6.74,58.509-16.093C246.425,226.884,265.365,214.69,277.293,203.185z"/>
		<path fill="#F39200" d="M207.182,279.148c22.419,3.442,45.668-5.584,59.669-24.655
			C246.38,264.433,221.662,273.868,207.182,279.148z"/>
	</g>
</g>
<g>
	<path fill="#3C3C3B" d="M350.751,157.412c-8.954-20.595-58.479-19.682-117.856-0.029c5.568,1.504,11.02,3.81,16.193,6.962
		c1.486,0.906,2.92,1.867,4.303,2.874c18.934-2.632,32.716-0.262,36.133,7.598c0.084,0.192,0.158,0.388,0.229,0.585
		c0.1,0.194,0.196,0.391,0.283,0.592c3.056,7.027-2.001,16.829-12.742,27.19c-11.928,11.505-30.868,23.699-53.516,33.546
		c-21.513,9.354-42.295,14.818-58.509,16.093c-16.225,1.276-27.873-1.644-31.098-9.061c-0.087-0.201-0.166-0.406-0.24-0.612
		c-0.096-0.186-0.188-0.373-0.272-0.565c-3.579-8.23,4.994-20.667,21.231-33.313c0.954-7.139,3.166-14.211,6.715-20.893
		c-54.867,30.021-89.31,65.615-80.355,86.208c8.744,20.111,56.173,19.713,113.687,1.383c13.09-4.171,26.702-9.271,40.5-15.27
		c13.787-5.995,26.792-12.466,38.764-19.189C326.845,211.949,359.496,177.526,350.751,157.412z M93.397,276.573
		c0.388,1.939,1.685,3.057,3.747,3.437c1.445,0.267,2.917,0.148,4.385-0.213c3.779-0.93,6.587-3.121,8.822-6.06
		c0.247-0.325,0.29-0.524-0.132-0.673c-0.321-0.114-0.633-0.25-0.931-0.405c-0.813-0.423-1.096-1.209-0.734-1.992
		c0.367-0.796,1.285-1.229,2.221-1.042c0.169,0.034,0.339,0.079,0.492,0.147c1.773,0.796,3.631,1.446,5.348,2.338
		c0.198,0.103,0.398,0.21,0.567,0.346c0.581,0.468,0.717,1.163,0.378,1.835c-0.336,0.668-1.023,1.061-1.817,1.04
		c-0.487-0.013-0.887-0.212-1.292-0.412c-0.568-0.281-0.583-0.279-0.976,0.247c-1.394,1.868-2.966,3.593-4.96,4.949
		c-3.363,2.286-7.022,3.553-11.081,3.293c-2.846-0.182-5.116-1.251-6.584-3.47c-0.947-1.431-1.248-3.051-1.16-4.771
		c0.131-2.572,1.128-4.943,2.557-7.208c1.835-2.909,4.167-5.484,6.659-7.947c3.542-3.502,7.457-6.598,11.78-9.229
		c2.066-1.258,4.208-2.389,6.352-3.199c2.85-1.215,5.65-2.044,8.56-2.426c1.57-0.207,3.127-0.234,4.642,0.096
		c3.063,0.667,4.827,2.826,4.596,5.774c-0.175,2.23-0.992,4.302-2.647,6.098c-0.139,0.15-0.282,0.298-0.436,0.435
		c-0.746,0.66-1.719,0.762-2.416,0.259c-0.675-0.487-0.792-1.315-0.283-2.12c0.122-0.193,0.271-0.376,0.432-0.545
		c0.944-0.993,1.41-2.16,1.67-3.391c0.423-2-0.43-3.115-2.561-3.378c-1.555-0.192-3.109,0.047-4.66,0.379
		c-4.418,0.949-8.444,2.826-12.224,5.222c-5.482,3.476-10.248,7.666-14.287,12.553c-1.266,1.532-2.39,3.139-3.189,4.904
		C93.478,273.118,93.047,274.822,93.397,276.573z M147.601,256.603c-0.108,0.902-0.904,1.622-1.931,1.75
		c-0.431,0.054-0.847-0.012-1.254-0.087c-0.421-0.079-0.653-0.017-0.937,0.399c-2.925,4.289-5.429,8.786-8.175,13.164
		c-2.068,3.297-4.1,6.613-6.146,9.921c-0.1,0.162-0.192,0.328-0.285,0.486c0.135,0.271,0.438,0.227,0.654,0.321
		c0.874,0.383,1.285,1.125,1.075,1.976c-0.207,0.84-0.964,1.455-1.921,1.53c-0.323,0.025-0.652,0.006-0.972-0.027
		c-1.608-0.166-3.225-0.259-4.854-0.257c-0.424,0-0.844-0.041-1.231-0.198c-0.816-0.331-1.238-1.076-1.075-1.895
		c0.162-0.813,0.854-1.448,1.761-1.56c0.452-0.056,0.917-0.077,1.363-0.035c0.59,0.055,0.942-0.125,1.253-0.645
		c1.338-2.241,2.725-4.459,4.092-6.688c3.102-5.053,6.201-10.106,9.305-15.158c0.381-0.62,0.785-1.229,1.206-1.887
		c-0.401-0.096-0.742-0.156-1.065-0.258c-0.981-0.31-1.505-1.136-1.3-2.018c0.216-0.928,1.14-1.64,2.204-1.538
		c2.284,0.22,4.571,0.442,6.812,0.862C147.173,254.947,147.708,255.713,147.601,256.603z M170.512,258.074
		c-0.092,0.206-0.216,0.407-0.352,0.596c-3.347,4.624-6.473,9.364-9.774,14.012c-2.337,3.289-4.747,6.539-6.853,9.947
		c-0.228,0.368-0.486,0.72-0.859,1.002c-1.125,0.851-2.673,0.449-2.93-0.774c-0.078-0.37-0.042-0.753-0.024-1.135
		c0.165-3.46,0.67-6.921,1.04-10.382c0.451-4.224,0.898-8.447,1.352-12.671c0.041-0.381,0.071-0.768,0.18-1.141
		c0.264-0.912,1.094-1.478,2.024-1.425c0.879,0.049,1.532,0.677,1.521,1.547c-0.008,0.623-0.104,1.253-0.172,1.88
		c-0.558,5.151-1.12,10.301-1.674,15.452c-0.02,0.181-0.116,0.378,0.09,0.662c1.028-1.43,2.034-2.796,3.001-4.181
		c3.162-4.525,6.309-9.058,9.464-13.586c0.267-0.383,0.536-0.766,0.82-1.14c0.607-0.799,1.56-1.107,2.373-0.779
		C170.595,256.302,170.917,257.168,170.512,258.074z M184.316,255.58c-1.318,0.263-2.559,0.795-3.862,1.087
		c-0.314,0.07-0.481,0.171-0.498,0.489c-0.177,3.541-0.565,7.087-0.682,10.626c-0.001,0.046,0.04,0.09,0.066,0.145
		c0.365,0.051,0.701-0.119,1.049-0.213c1.024-0.278,1.911,0.108,2.193,0.944c0.266,0.789-0.188,1.634-1.118,2.07
		c-0.584,0.273-1.206,0.434-1.824,0.597c-0.424,0.112-0.66,0.296-0.707,0.747c-0.113,1.084-0.303,2.169-0.47,3.31
		c1.396-0.344,2.739-0.557,4.026-1.055c1.119-0.432,2.113-0.059,2.431,0.88c0.317,0.937-0.313,1.967-1.452,2.29
		c-1.142,0.324-2.295,0.603-3.446,0.887c-0.885,0.219-1.774,0.415-2.661,0.625c-0.389,0.092-0.778,0.13-1.164,0.097
		c-1.024-0.087-1.704-0.724-1.741-1.665c-0.013-0.321,0.03-0.655,0.1-0.978c0.708-3.237,0.97-6.475,1.12-9.722
		c0.145-3.158,0.409-6.321,0.624-9.482c0.026-0.382,0.011-0.745-0.1-1.116c-0.272-0.909,0.371-1.901,1.416-2.133
		c1.875-0.415,3.714-0.944,5.524-1.601c0.198-0.072,0.414-0.1,0.623-0.133c1.09-0.172,1.902,0.321,2.06,1.245
		C185.97,254.372,185.293,255.384,184.316,255.58z M231.068,259.247c-0.928,0.317-1.934-0.083-2.345-0.89
		c-2.138-4.197-4.18-8.435-5.807-12.855c-0.026-0.073-0.087-0.132-0.13-0.197c-0.307,0.011-0.31,0.254-0.39,0.411
		c-0.604,1.174-1.197,2.352-1.788,3.531c-0.283,0.564-0.581,1.121-0.969,1.642c-0.749,1.005-1.742,1.454-2.986,1.247
		c-0.781-0.13-1.55-0.305-2.311-0.493c-1.807-0.447-3.583-0.969-5.417-1.344c-0.341-0.07-0.685-0.134-1.01-0.197
		c-0.244,0.239-0.048,0.39,0.023,0.536c1.681,3.425,2.789,7.052,3.694,10.754c0.286,1.17,0.579,2.338,0.785,3.529
		c0.041,0.238,0.088,0.476,0.102,0.718c0.051,0.952-0.572,1.748-1.522,1.958c-0.965,0.213-1.871-0.322-2.077-1.251
		c-0.214-0.968-0.389-1.945-0.607-2.912c-1.066-4.722-2.576-9.281-4.896-13.539c-0.141-0.258-0.276-0.523-0.364-0.802
		c-0.423-1.341,0.53-2.555,2.119-2.722c0.67-0.07,1.307,0.035,1.945,0.135c2.998,0.469,5.883,1.245,8.775,2
		c0.335,0.087,0.678,0.156,1.001,0.229c0.282-0.265,0.368-0.567,0.509-0.845c1.172-2.301,2.337-4.604,3.509-6.905
		c0.104-0.204,0.214-0.409,0.351-0.598c0.855-1.181,2.478-1.312,3.325-0.264c0.394,0.487,0.642,1.053,0.87,1.625
		c0.833,2.085,1.646,4.179,2.489,6.259c1.197,2.95,2.588,5.812,4.153,8.591C232.731,257.718,232.297,258.826,231.068,259.247z
		 M248.149,251.724c-1.598,0.888-3.25,1.675-4.939,2.387c-0.565,0.231-1.126,0.477-1.697,0.69c-1.116,0.418-2.023,0.203-2.606-0.679
		c-0.473-0.715-0.862-1.48-1.287-2.225c-2.088-3.658-3.697-7.538-5.487-11.334c-0.285-0.604-0.573-1.208-0.895-1.795
		c-0.223-0.407-0.349-0.839-0.416-1.292c-0.111-0.748,0.273-1.43,1.053-1.803c1.87-0.896,3.751-1.771,5.626-2.656
		c0.524-0.247,1.038-0.516,1.567-0.751c1.026-0.455,2.006-0.313,2.49,0.342c0.518,0.699,0.345,1.613-0.433,2.215
		c-0.311,0.24-0.653,0.437-1.027,0.583c-1.425,0.559-2.783,1.258-4.141,1.945c-1.141,0.577-1.06,0.343-0.578,1.391
		c0.836,1.822,1.68,3.642,2.527,5.46c0.334,0.718,0.35,0.722,1.146,0.258c0.635-0.371,1.312-0.651,1.989-0.926
		c1.057-0.428,2.006-0.145,2.384,0.682c0.373,0.815-0.047,1.728-1.044,2.235c-0.707,0.359-1.425,0.696-2.133,1.052
		c-0.577,0.29-0.606,0.326-0.344,0.822c0.463,0.875,0.979,1.724,1.436,2.602c0.173,0.333,0.391,0.315,0.708,0.163
		c1.182-0.569,2.365-1.134,3.548-1.7c0.385-0.184,0.761-0.399,1.161-0.537c0.906-0.313,1.819,0.001,2.179,0.708
		C249.322,250.321,249.032,251.233,248.149,251.724z M274.932,237.289c-1.058,1.583-2.639,2.63-4.422,3.479
		c-2.87,1.01-5.566,0.83-8.096-0.383c-1.128-0.541-2.085-1.291-3.012-2.067c-0.186-0.156-0.345-0.351-0.463-0.556
		c-0.427-0.739-0.205-1.649,0.505-2.161c0.755-0.544,1.701-0.562,2.38,0.018c0.669,0.571,1.355,1.122,2.127,1.576
		c1.163,0.686,2.46,1.029,3.938,0.855c1.572-0.185,2.813-0.936,3.801-2.078c0.616-0.713,0.603-1.271,0.054-1.933
		c-0.424-0.511-1.016-0.836-1.624-1.137c-1.398-0.692-2.905-1.177-4.454-1.581c-1.292-0.336-2.595-0.649-3.837-1.1
		c-1.303-0.473-2.499-1.089-3.49-1.98c-0.682-0.613-1.184-1.333-1.455-2.193c-0.553-1.748,0.24-3.535,2.011-4.636
		c1.013-0.63,2.104-0.942,3.256-1.09c1.495-0.192,2.929-0.061,4.302,0.359c0.556,0.17,1.074,0.398,1.48,0.782
		c0.612,0.576,0.672,1.395,0.149,2.079c-0.524,0.688-1.398,0.947-2.255,0.659c-0.189-0.064-0.359-0.169-0.545-0.241
		c-1.308-0.501-2.673-0.585-4.09-0.044c-0.883,0.337-1.035,0.809-0.514,1.473c0.512,0.651,1.237,1.074,2.018,1.429
		c1.091,0.497,2.276,0.796,3.459,1.095c1.89,0.479,3.751,1.015,5.48,1.819c1.319,0.613,2.548,1.325,3.366,2.484
		C276.14,233.826,276.105,235.53,274.932,237.289z M290.574,218.771c-1.128,2.671-3.131,4.728-5.764,6.319
		c-0.389,0.236-0.779,0.48-1.195,0.664c-0.437,0.192-0.447,0.406-0.237,0.705c0.727,1.034,1.439,2.076,2.178,3.103
		c0.175,0.244,0.328,0.491,0.417,0.772c0.234,0.74-0.098,1.511-0.836,1.954c-0.754,0.452-1.611,0.421-2.216-0.118
		c-0.242-0.216-0.439-0.48-0.62-0.745c-2.211-3.241-4.399-6.495-6.625-9.727c-1.417-2.058-2.85-4.107-4.41-6.075
		c-0.133-0.168-0.245-0.353-0.342-0.543c-0.639-1.269-0.445-1.857,0.844-2.859c1.677-1.302,3.452-2.447,5.449-3.291
		c3.67-1.45,7.114-1.28,10.258,0.484C290.987,211.386,292.158,215.017,290.574,218.771z M316.495,209.678
		c-0.716,0.451-1.461,0.571-2.183,0.215c-2.447-1.208-4.892-2.419-7.341-3.625c-1.005-0.495-0.694-0.555-1.552,0.229
		c-2.34,2.137-4.658,4.291-7.018,6.41c-0.438,0.393-0.468,0.705-0.329,1.136c0.491,1.526,0.95,3.063,1.419,4.598
		c0.072,0.238,0.15,0.477,0.189,0.723c0.123,0.776-0.318,1.528-1.106,1.918c-0.76,0.377-1.719,0.276-2.275-0.26
		c-0.266-0.256-0.476-0.555-0.545-0.917c-0.612-1.982-1.219-3.965-1.839-5.944c-0.364-1.162-0.732-2.322-1.13-3.471
		c-1.439-4.16-3.218-8.182-5.023-12.192c-0.159-0.353-0.327-0.706-0.426-1.079c-0.38-1.426,0.851-2.731,2.561-2.736
		c0.683-0.002,1.303,0.169,1.914,0.362c3.033,0.953,5.866,2.226,8.618,3.615c3.517,1.775,6.986,3.614,10.481,5.418
		c1.735,0.896,3.493,1.758,5.323,2.519c0.667,0.277,1.155,0.688,1.185,1.416C317.446,208.685,317.158,209.261,316.495,209.678z
		 M328.639,198.264c-0.756,2.385-2.592,3.837-5.218,4.538c-2.968,0.792-5.775,0.535-8.483-0.228
		c-1.856-0.523-3.598-1.237-5.27-2.059c-3.998-1.964-7.761-4.187-10.765-7.227c-1.208-1.223-2.278-2.531-3-4.216
		c-0.59-1.312-0.665-2.847-0.276-4.455c0.486-2.012,2.11-3.985,4.926-4.565c1.646-0.339,3.256-0.476,4.832-0.174
		c0.559,0.106,1.097,0.256,1.539,0.563c0.699,0.485,0.879,1.317,0.448,2.05c-0.433,0.735-1.354,1.174-2.265,1.055
		c-0.281-0.037-0.545-0.131-0.816-0.199c-1.062-0.264-2.154-0.165-3.271,0.111c-0.856,0.212-1.311,0.716-1.496,1.442
		c-0.336,1.317-0.076,2.493,0.609,3.57c0.894,1.406,2.06,2.615,3.386,3.696c3.687,3.005,7.898,5.355,12.694,6.961
		c0.993,0.333,2.038,0.549,3.134,0.627c1.096,0.078,2.192,0.016,3.305-0.269c1.4-0.358,2.109-1.008,2.267-2.235
		c0.748-5.804-7.365-7.629-1.839-8.777c1.042-0.217,1.939-0.076,2.622,0.583c2.108,2.033,3.366,4.426,3.243,7.408
		C328.92,197.066,328.828,197.666,328.639,198.264z M345.45,177.741c-0.523,1.054-1.125,2.069-1.856,3.021
		c-1.316,1.713-2.997,2.494-5.162,2.141c-2.376-0.388-4.767-0.724-7.14-1.125c-4.581-0.775-9.198-1.397-13.833-1.94
		c-6.497-0.761-12.909-1.877-19.376-2.765c-0.929-0.127-1.751-0.463-2.54-0.873c-0.737-0.382-1.127-1.022-0.967-1.828
		c1.244-6.275-2.219-11.537,2.274-11.375c2.539,0.091,2.262,8.056,2.166,9.462c-0.053,0.769-0.005,0.703,0.733,0.817
		c8.32,1.29,16.664,2.475,25.05,3.478c0.979,0.117,1.979,0.133,3.074,0.203c0.163-0.673,0.123-1.478,0.146-2.284
		c0.022-0.842,0.387-1.54,1.236-1.94c1.149-0.541,2.425-0.039,2.811,1.063c0.128,0.367,0.169,0.749,0.147,1.138
		c-0.043,0.776-0.077,1.554-0.179,2.328c-0.06,0.454,0.087,0.63,0.55,0.698c2.218,0.325,4.434,0.663,6.643,1.026
		c0.521,0.085,0.836-0.081,1.126-0.491c0.492-0.697,0.941-1.414,1.297-2.172c2.85-6.071,1.523-7.472,4.447-7.699
		C350.473,168.287,347.362,173.889,345.45,177.741z"/>
	<path fill="#3C3C3B" d="M278.319,211.986c-0.87,0.427-1.965,0.961-2.952,1.673c-0.592,0.426-0.598,0.428-0.215,0.96
		c0.911,1.267,1.838,2.523,2.736,3.798c1.023,1.45,2.02,2.917,3.032,4.374c0.351,0.504,0.371,0.524,0.981,0.196
		c0.643-0.345,1.283-0.706,1.874-1.122c1.845-1.298,3.171-2.915,3.701-4.958c0.29-1.12,0.154-2.168-0.498-3.102
		C285.33,211.445,281.638,210.602,278.319,211.986z"/>
	<path fill="#3C3C3B" d="M302.253,203.798c-2.522-1.353-5.088-2.647-7.751-3.805c-0.594-0.258-1.199-0.5-1.799-0.749
		c-0.057,0.052-0.113,0.105-0.171,0.157c1.619,3.325,2.888,6.792,4.131,10.226c0.349-0.008,0.449-0.188,0.585-0.313
		c1.699-1.555,3.396-3.113,5.089-4.673C302.876,204.145,302.876,204.132,302.253,203.798z"/>
</g>
</svg>
