<?xml version="1.0" encoding="UTF-8" standalone="no"?>
<svg
   xmlns:dc="http://purl.org/dc/elements/1.1/"
   xmlns:cc="http://creativecommons.org/ns#"
   xmlns:rdf="http://www.w3.org/1999/02/22-rdf-syntax-ns#"
   xmlns:svg="http://www.w3.org/2000/svg"
   xmlns="http://www.w3.org/2000/svg"
   xmlns:sodipodi="http://sodipodi.sourceforge.net/DTD/sodipodi-0.dtd"
   xmlns:inkscape="http://www.inkscape.org/namespaces/inkscape"
   version="1.0"
   width="1600"
   height="1600"
   viewBox="0 0 1200 1200"
   preserveAspectRatio="xMidYMid meet"
   id="svg124"
   sodipodi:docname="app-launcher.svg"
   inkscape:version="0.92.5 (2060ec1f9f, 2020-04-08)">
  <metadata
     id="metadata130">
    <rdf:RDF>
      <cc:Work
         rdf:about="">
        <dc:format>image/svg+xml</dc:format>
        <dc:type
           rdf:resource="http://purl.org/dc/dcmitype/StillImage" />
        <dc:title></dc:title>
      </cc:Work>
    </rdf:RDF>
  </metadata>
  <defs
     id="defs128" />
  <sodipodi:namedview
     pagecolor="#ffffff"
     bordercolor="#666666"
     borderopacity="1"
     objecttolerance="10"
     gridtolerance="10"
     guidetolerance="10"
     inkscape:pageopacity="0"
     inkscape:pageshadow="2"
     inkscape:window-width="1875"
     inkscape:window-height="1052"
     id="namedview126"
     showgrid="false"
     inkscape:zoom="0.53717077"
     inkscape:cx="566.39462"
     inkscape:cy="784.61985"
     inkscape:window-x="45"
     inkscape:window-y="28"
     inkscape:window-maximized="0"
     inkscape:current-layer="svg124"
     inkscape:pagecheckerboard="false"
     units="px"
     width="1500px" />
  <g
     transform="matrix(0.1,0,0,-0.1,148.94972,1200)"
     id="g122"
     style="fill:#000000;stroke:none">
    <path
       d="m 5129,11738 c -29,-54 -245,-332 -336,-433 -126,-139 -372,-381 -484,-477 -47,-40 -137,-109 -200,-152 -63,-43 -130,-94 -150,-113 l -37,-35 -1,137 c -1,120 -11,200 -28,229 -3,4 -18,-15 -34,-44 -41,-75 -181,-272 -261,-366 -135,-161 -336,-341 -568,-509 -204,-148 -301,-229 -361,-301 -65,-78 -128,-180 -162,-259 l -24,-58 -11,33 c -15,41 -89,152 -143,214 -23,26 -115,107 -203,179 -247,202 -401,370 -463,505 -23,48 -43,68 -43,41 0,-7 -36,-102 -81,-213 -158,-390 -234,-619 -309,-931 -92,-377 -111,-703 -54,-903 31,-107 128,-268 192,-319 9,-7 14,-14 11,-16 -2,-2 -44,-13 -92,-25 -136,-33 -142,-45 -71,-141 26,-34 45,-63 43,-64 -2,-2 -33,-12 -69,-24 -36,-11 -113,-39 -171,-62 -152,-58 -349,-119 -459,-142 -146,-31 -236,-18 -387,59 -29,14 -55,24 -58,21 -12,-12 -11,-77 2,-148 17,-93 105,-431 179,-686 129,-443 247,-696 403,-867 l 51,-56 -58,-6 c -127,-15 -143,-18 -152,-36 -15,-28 -4,-44 68,-104 37,-30 84,-72 105,-94 l 38,-39 -78,-50 C 465,5350 361,5298 193,5241 102,5210 22,5178 17,5169 c -21,-34 6,-73 156,-227 84,-86 219,-230 301,-319 225,-248 421,-429 516,-478 19,-10 57,-24 85,-30 l 49,-11 23,-135 c 37,-211 83,-373 156,-546 l 35,-81 -16,-54 c -23,-79 -22,-286 2,-363 35,-117 83,-194 186,-296 70,-70 108,-116 139,-175 58,-106 147,-235 225,-326 l 64,-75 v -80 c -1,-108 18,-157 114,-310 106,-170 112,-182 142,-301 34,-134 67,-213 116,-278 63,-84 122,-104 187,-64 37,22 111,118 141,182 80,173 93,194 124,215 77,51 126,39 179,-45 46,-73 68,-159 84,-340 29,-306 97,-701 145,-848 40,-120 111,-189 186,-181 84,9 133,72 164,214 32,148 40,162 116,226 91,76 129,143 154,274 31,160 33,225 15,389 -9,84 -17,196 -18,250 l -2,99 45,3 c 105,7 343,55 451,91 64,22 164,63 224,93 124,61 324,207 434,316 l 74,73 26,-23 c 14,-13 53,-48 86,-79 106,-97 132,-114 160,-101 21,10 25,19 25,55 0,25 -5,68 -10,97 -6,29 -8,55 -6,57 2,2 19,-5 37,-16 19,-11 63,-30 99,-42 59,-21 83,-23 255,-23 202,-1 320,14 715,85 288,53 284,49 220,173 -24,45 -54,110 -68,146 -50,133 -132,364 -129,367 2,1 37,-4 78,-13 152,-33 405,-1 656,82 56,18 168,60 250,92 81,33 213,81 293,107 80,26 153,55 164,65 30,29 12,55 -74,106 -154,92 -179,117 -477,490 -23,29 -47,55 -52,59 -23,13 -9,23 42,30 92,12 124,23 130,47 8,28 -41,75 -124,121 -32,17 -59,34 -59,37 0,3 37,18 81,33 45,15 120,47 166,70 158,78 399,291 595,527 168,202 376,395 711,661 111,88 223,178 250,200 79,67 62,99 -68,130 -214,50 -752,240 -715,252 8,3 56,17 105,32 102,31 130,44 164,76 l 24,23 -27,23 c -15,13 -33,23 -40,23 -25,0 -201,78 -361,159 -88,45 -185,91 -217,103 l -58,21 76,43 c 418,238 558,586 679,1689 14,127 37,293 50,371 48,274 31,303 -118,195 -163,-117 -342,-207 -487,-245 -52,-14 -196,-44 -320,-66 -124,-23 -235,-44 -248,-47 l -24,-6 25,49 c 41,82 69,169 65,205 -5,56 -36,50 -168,-35 -63,-40 -116,-73 -117,-72 -1,1 9,32 23,70 49,136 84,466 84,797 0,216 10,341 41,489 10,52 20,109 21,125 1,17 6,36 11,43 6,8 5,17 -3,27 -10,12 -17,12 -53,-2 -23,-9 -67,-33 -97,-53 -97,-64 -235,-139 -427,-231 -104,-50 -234,-113 -291,-141 -114,-56 -297,-164 -353,-208 l -37,-29 5,122 c 14,319 -96,587 -482,1173 -268,408 -403,686 -530,1097 -20,64 -38,117 -40,117 -2,0 -10,-10 -16,-22 z m 36,-273 c 55,-185 216,-552 289,-658 14,-21 33,-52 42,-69 9,-18 63,-102 119,-188 146,-224 321,-519 376,-635 62,-133 97,-246 117,-382 19,-131 11,-221 -36,-415 -16,-65 -26,-118 -22,-118 4,0 27,25 50,55 112,145 275,251 680,438 226,105 404,197 515,268 33,21 60,37 62,36 1,-1 -7,-37 -17,-80 -29,-122 -40,-238 -40,-432 0,-287 -32,-655 -67,-774 -9,-31 -30,-87 -48,-126 -60,-132 -88,-205 -82,-212 4,-3 39,16 79,42 126,84 268,165 268,152 0,-7 -25,-59 -55,-116 -30,-57 -55,-109 -55,-114 0,-18 119,-2 560,79 252,46 443,124 639,260 35,25 65,44 66,42 2,-2 -6,-48 -16,-103 -11,-55 -31,-194 -44,-310 -91,-767 -150,-1057 -270,-1310 -99,-207 -237,-334 -502,-460 -84,-40 -113,-58 -113,-72 0,-11 8,-19 18,-20 85,-6 207,-53 448,-171 l 261,-127 -56,-17 c -30,-10 -100,-25 -154,-35 -106,-18 -122,-30 -91,-65 21,-24 210,-116 354,-173 140,-55 406,-142 477,-155 l 62,-12 -87,-67 c -278,-213 -539,-437 -696,-596 -37,-38 -131,-142 -207,-231 -92,-107 -182,-198 -266,-271 -189,-162 -240,-193 -434,-264 -101,-37 -261,-118 -274,-139 -3,-4 14,-11 37,-15 85,-12 144,-28 188,-51 29,-14 40,-24 30,-27 -8,-3 -44,-13 -80,-22 -119,-31 -124,-43 -49,-100 49,-37 136,-137 312,-357 87,-109 147,-165 224,-211 29,-18 53,-34 53,-37 0,-3 -39,-19 -87,-34 -49,-16 -180,-63 -293,-106 -346,-132 -506,-171 -707,-171 -121,0 -181,13 -309,66 -46,19 -89,35 -95,35 -5,0 1,-15 14,-33 41,-53 82,-143 140,-307 69,-194 113,-304 140,-352 11,-21 19,-40 16,-42 -7,-6 -410,-73 -574,-95 -174,-24 -303,-30 -409,-20 -121,12 -279,71 -338,127 -15,14 -31,23 -34,19 -6,-6 8,-135 23,-211 6,-28 3,-26 -75,39 -47,39 -79,72 -75,79 4,6 41,56 84,111 221,288 374,590 480,945 12,41 35,91 50,110 41,52 87,150 103,222 8,35 20,128 26,208 5,80 14,179 19,220 5,41 12,164 16,274 l 8,198 36,-6 c 20,-4 64,-11 99,-16 49,-8 69,-16 88,-38 34,-38 100,-176 114,-242 39,-175 90,-278 148,-298 28,-10 30,-9 28,12 -2,13 -17,48 -34,78 -17,30 -46,108 -63,173 -38,144 -64,204 -112,268 l -37,47 h 28 c 51,0 178,38 253,75 105,53 183,111 265,198 120,125 180,258 229,503 4,17 19,24 81,39 68,16 102,17 298,10 289,-10 290,-10 365,-1 74,9 77,19 -26,-100 -33,-40 -66,-81 -72,-92 -10,-18 -9,-20 9,-17 52,10 178,126 249,229 47,68 52,91 19,83 -140,-32 -193,-38 -328,-36 -411,7 -482,5 -530,-17 l -45,-21 v 201 c 0,180 -2,209 -23,281 -55,188 -130,327 -220,405 -102,87 -286,154 -427,154 -114,0 -175,-23 -265,-99 -76,-64 -86,-69 -162,-83 -31,-6 -85,-22 -119,-36 -35,-14 -64,-24 -65,-23 -1,1 10,52 26,112 15,61 36,162 45,225 14,94 44,212 72,287 7,19 -16,16 -103,-12 -42,-14 -80,-25 -85,-25 -4,0 -2,18 6,40 20,58 34,209 37,422 l 3,188 -43,42 c -76,74 -124,189 -162,396 -25,133 -38,157 -79,148 -121,-28 -229,-15 -450,55 -172,55 -414,109 -596,135 -142,19 -403,22 -495,5 -138,-25 -447,-125 -762,-246 -15,-6 -18,-2 -18,21 0,39 -40,181 -54,193 -41,34 -404,-170 -641,-360 -181,-145 -392,-349 -442,-426 -18,-29 -38,-53 -43,-53 -5,0 -56,-32 -115,-71 -175,-117 -315,-271 -372,-409 -38,-93 -26,-205 28,-260 l 28,-28 -34,-83 c -94,-233 -112,-270 -149,-300 -80,-66 -126,-200 -126,-365 0,-135 -13,-199 -52,-254 -132,-186 -163,-259 -162,-385 0,-57 7,-96 22,-134 12,-30 21,-56 19,-57 -1,-1 -31,-11 -67,-22 -98,-32 -172,-42 -294,-42 l -111,1 -178,185 c -97,102 -177,189 -177,192 1,4 67,28 148,55 121,39 172,62 288,131 78,45 170,103 205,128 35,25 83,55 106,67 24,12 43,23 43,25 0,2 -21,16 -47,32 -46,27 -172,137 -173,152 0,4 40,12 90,18 50,7 94,15 98,18 9,10 -25,63 -83,131 -162,188 -264,390 -374,741 -62,197 -221,774 -221,802 0,19 4,23 17,17 117,-50 259,-59 398,-26 121,29 332,98 505,167 l 143,56 126,2 c 146,2 180,13 103,32 -81,21 -126,49 -171,105 -23,29 -39,54 -37,56 8,8 202,53 229,53 28,0 28,1 -34,68 -129,139 -184,228 -221,359 -20,68 -23,101 -22,248 1,258 39,484 144,845 84,285 248,725 278,744 6,3 31,-24 57,-60 66,-92 207,-231 365,-359 74,-60 158,-132 185,-160 72,-73 167,-219 200,-306 15,-41 30,-83 35,-94 5,-15 13,0 35,65 42,129 73,198 122,275 94,145 139,187 433,402 179,131 429,350 526,459 75,85 171,212 214,282 17,28 34,52 37,52 7,0 -6,-179 -19,-266 -5,-39 -9,-78 -7,-87 3,-11 32,11 102,78 54,51 144,125 200,164 168,116 262,196 466,396 205,201 316,324 446,494 65,85 80,100 86,85 4,-11 19,-59 34,-109 z M 4270,7959 c 185,-21 471,-85 639,-143 133,-46 275,-70 365,-63 l 71,6 27,-131 c 21,-104 37,-152 76,-232 27,-56 64,-119 82,-141 l 32,-40 -6,-220 c -8,-249 -17,-316 -53,-397 -41,-92 -22,-105 96,-68 35,11 65,19 67,17 2,-2 -1,-19 -6,-38 -5,-19 -16,-86 -25,-149 -22,-149 -57,-288 -94,-367 -49,-104 -28,-119 94,-63 115,53 169,71 235,76 40,4 60,11 73,27 97,118 217,167 360,147 257,-37 421,-185 501,-450 40,-135 50,-211 43,-350 -11,-226 -53,-404 -130,-555 -76,-149 -254,-296 -437,-361 -98,-35 -256,-44 -378,-21 -46,9 -89,14 -97,11 -15,-6 -19,-45 -36,-344 -6,-107 -15,-229 -20,-270 -5,-41 -14,-131 -19,-200 -13,-164 -46,-266 -114,-347 -13,-16 -32,-58 -41,-94 -19,-77 -66,-204 -130,-354 -132,-310 -314,-578 -579,-853 -193,-199 -398,-320 -683,-402 -88,-25 -291,-60 -349,-60 -23,0 -2,32 77,114 77,82 99,124 99,190 0,36 6,52 30,80 30,34 107,79 121,71 3,-3 10,-25 13,-49 9,-57 42,-106 86,-129 77,-40 213,2 267,82 41,61 47,106 29,202 -23,124 -23,123 42,182 98,89 129,126 161,191 40,81 51,166 41,297 -8,97 -7,106 13,135 12,19 47,44 86,64 130,64 263,173 363,299 141,176 192,363 134,486 -94,202 -276,269 -559,206 -163,-37 -417,-172 -662,-351 -167,-122 -273,-190 -392,-249 -288,-145 -609,-231 -858,-231 -230,0 -393,26 -659,104 -83,25 -179,50 -214,57 -176,33 -351,-36 -430,-170 -24,-41 -27,-56 -27,-136 0,-83 3,-96 34,-160 25,-50 57,-92 112,-147 l 78,-77 51,-198 c 28,-109 53,-207 57,-218 14,-49 -191,246 -251,360 -24,47 -54,85 -89,115 -76,65 -123,125 -162,205 -58,122 -69,239 -39,410 l 16,90 -40,95 c -110,261 -173,580 -202,1019 -6,85 -8,156 -6,159 8,7 35,-54 61,-136 30,-94 70,-137 159,-171 80,-30 123,-27 265,21 l 126,42 165,2 c 213,2 294,24 362,97 44,48 58,80 79,184 10,52 25,104 34,116 8,12 47,49 87,82 51,43 81,77 101,115 26,50 28,63 25,135 -4,67 -9,90 -38,144 -19,35 -64,95 -100,135 -37,39 -73,82 -80,96 -7,13 -17,82 -21,155 -4,71 -15,150 -24,174 -30,86 -103,159 -193,194 -51,20 -205,23 -328,6 -79,-11 -81,-11 -150,19 -82,36 -199,55 -272,43 -29,-4 -52,-7 -52,-6 0,4 96,236 110,266 11,24 19,27 81,32 79,7 192,49 369,137 394,197 970,398 1305,455 143,25 430,37 575,25 451,-38 684,-75 1085,-172 173,-42 227,-51 305,-52 83,-1 100,2 139,24 71,40 86,68 86,158 0,67 -4,84 -30,131 -73,133 -259,269 -490,359 -188,74 -524,151 -745,171 -213,20 -619,11 -890,-20 -132,-15 -406,-63 -588,-104 -191,-43 -356,-98 -522,-174 l -129,-59 29,37 c 83,100 361,332 545,454 114,76 304,177 331,177 16,0 33,-58 44,-156 4,-42 10,-77 12,-80 3,-2 30,7 60,20 89,40 442,165 577,206 222,67 390,79 651,49 z m -120,-419 c 296,-31 647,-123 843,-221 141,-70 287,-193 331,-277 22,-42 30,-111 17,-144 -26,-67 -145,-79 -341,-34 -450,104 -539,122 -806,155 -574,72 -841,68 -1169,-17 -132,-34 -571,-184 -745,-254 -69,-28 -233,-101 -365,-163 -304,-143 -374,-164 -450,-135 -50,19 -70,116 -40,199 40,115 191,278 362,391 116,77 369,205 522,265 289,112 773,207 1221,238 111,8 534,6 620,-3 z M 1659,5971 c 66,-30 81,-33 135,-27 34,3 115,9 181,12 110,6 125,5 172,-16 64,-27 128,-94 142,-147 6,-22 15,-98 20,-170 11,-155 17,-169 116,-275 82,-87 116,-148 123,-219 9,-100 -15,-142 -136,-237 -58,-46 -90,-106 -108,-203 -20,-108 -49,-158 -111,-191 -63,-35 -88,-38 -283,-41 l -165,-3 -125,-43 c -135,-46 -176,-49 -243,-15 -57,29 -76,55 -102,139 -30,100 -67,152 -143,204 -87,59 -136,119 -157,193 -32,115 -3,223 96,353 94,123 101,144 110,325 4,85 13,173 19,195 29,99 90,171 166,195 16,5 72,8 124,7 82,-3 105,-8 169,-36 z m -630,-1246 43,-35 -28,-11 c -80,-31 -114,-40 -202,-54 -94,-15 -242,-19 -259,-6 -4,3 -21,20 -36,38 l -29,31 114,-1 c 112,0 225,21 313,59 39,17 34,19 84,-21 z m 60,-277 c 6,-92 14,-188 18,-214 l 6,-47 -32,6 c -51,11 -129,67 -262,189 -68,64 -135,127 -147,141 l -24,25 84,1 c 94,1 206,19 288,49 30,10 56,19 56,18 1,-1 7,-76 13,-168 z m 4094,-575 47,-22 v -69 c 0,-83 -31,-209 -65,-268 -38,-65 -99,-100 -187,-107 -76,-7 -105,-21 -142,-71 -18,-24 -22,-47 -27,-169 -6,-155 -21,-205 -75,-244 l -26,-19 11,-90 c 30,-245 6,-321 -149,-467 -85,-80 -93,-90 -98,-132 -2,-25 1,-73 8,-108 16,-81 15,-129 -4,-165 -30,-59 -133,-97 -186,-70 -24,13 -38,44 -54,121 -9,38 -41,67 -73,67 -62,-1 -176,-78 -209,-141 -8,-16 -14,-46 -14,-68 0,-61 -15,-88 -90,-168 -38,-40 -84,-101 -102,-135 -32,-62 -33,-65 -31,-185 0,-67 7,-164 14,-215 18,-140 15,-296 -9,-411 C 3693,601 3674,566 3586,493 3503,424 3482,383 3455,244 3425,84 3359,28 3292,104 c -43,49 -66,118 -106,322 -60,298 -76,426 -111,890 -8,105 -19,204 -25,220 -6,15 -33,61 -61,101 -57,84 -60,106 -28,216 26,86 21,131 -17,176 -58,69 -146,60 -229,-23 -50,-50 -55,-60 -95,-185 -28,-91 -50,-142 -70,-164 l -28,-32 -36,18 c -45,21 -70,61 -91,146 -36,143 -72,190 -151,199 -71,8 -69,2 -178,422 -13,52 -31,131 -40,175 -8,44 -29,151 -46,238 -33,170 -60,338 -60,375 0,17 6,22 28,22 24,0 30,-7 52,-62 32,-80 106,-194 154,-235 64,-57 114,-77 186,-77 100,0 178,52 241,162 l 23,39 38,-58 c 52,-77 129,-145 205,-181 51,-24 74,-29 138,-29 64,0 87,5 131,27 l 53,27 47,-38 c 54,-44 80,-83 97,-143 10,-39 14,-42 37,-37 35,9 35,10 22,63 -17,62 -67,135 -120,173 -24,17 -41,36 -38,43 3,6 16,37 29,68 l 24,57 38,-39 c 59,-61 123,-85 226,-85 79,0 92,3 155,35 87,45 132,102 170,219 16,47 30,88 31,90 1,2 14,-6 30,-16 94,-65 220,-66 317,-2 54,36 119,130 141,203 9,28 19,82 22,119 3,37 9,66 12,64 64,-35 114,-50 187,-55 76,-4 87,-2 147,25 35,17 83,50 106,74 43,45 104,158 116,217 l 7,34 82,-4 c 55,-2 96,-11 129,-25 z m -293,0 c 0,-33 -48,-121 -90,-166 -58,-64 -126,-91 -209,-83 -63,5 -156,42 -156,60 0,21 274,157 380,187 76,22 75,22 75,2 z m -563,-321 c -11,-130 -81,-254 -166,-289 -74,-31 -196,-8 -246,46 -16,19 -15,20 12,37 80,49 170,110 276,188 65,47 121,86 124,86 3,0 3,-30 0,-68 z m -523,-332 c -21,-91 -67,-175 -113,-206 -43,-28 -120,-54 -161,-54 -59,0 -132,31 -181,77 -27,25 -49,49 -49,53 0,5 24,14 53,20 85,21 269,86 359,129 45,22 88,40 95,40 8,1 7,-15 -3,-59 z m -1569,-60 c 116,-35 187,-54 278,-74 l 28,-7 -23,-40 c -31,-55 -88,-105 -137,-120 -66,-20 -124,2 -196,75 -50,50 -135,183 -135,210 0,9 32,1 185,-44 z m 960,-122 c -15,-66 -62,-138 -111,-169 -51,-31 -146,-26 -221,11 -59,29 -146,110 -172,159 l -13,24 65,-7 c 85,-10 300,-7 357,3 25,5 58,9 73,10 27,1 28,-1 22,-31 z M 1950,2525 c 17,-9 30,-23 30,-33 0,-14 37,-153 116,-440 21,-77 66,-122 127,-129 60,-7 80,-30 100,-120 28,-124 71,-193 134,-219 105,-44 169,20 228,226 28,101 58,150 109,181 39,24 68,24 97,1 29,-24 29,-64 0,-159 -30,-95 -23,-129 43,-228 55,-82 76,-130 76,-172 0,-22 -4,-20 -49,26 -59,61 -99,72 -177,47 -74,-23 -127,-85 -182,-213 -49,-116 -124,-216 -163,-221 -57,-7 -128,117 -177,303 -32,122 -55,173 -138,302 -31,48 -70,114 -85,148 -27,56 -29,68 -29,185 0,115 -4,140 -44,300 -24,96 -49,187 -55,203 -12,32 -4,34 39,12 z"
       id="path90"
       inkscape:connector-curvature="0" />
    <path
       d="m 6372,3749 c -42,-27 -42,-65 -1,-62 21,1 26,-2 22,-17 -6,-23 11,-33 46,-25 33,7 74,42 66,56 -8,12 -51,11 -78,-2 -12,-6 -8,1 11,16 17,15 32,33 32,41 0,22 -60,17 -98,-7 z"
       id="path92"
       inkscape:connector-curvature="0" />
    <path
       d="m 4235,6551 c -82,-20 -143,-73 -209,-181 -46,-75 -60,-90 -119,-125 -123,-74 -176,-145 -198,-261 -15,-79 -6,-164 28,-263 l 27,-82 -22,-112 c -31,-158 -30,-285 2,-354 36,-77 108,-125 240,-159 53,-14 71,-25 141,-93 87,-83 152,-120 246,-141 51,-11 64,-11 130,10 102,31 140,52 187,105 55,62 91,75 211,75 200,0 320,52 376,163 30,61 33,145 9,252 -27,118 -27,125 7,225 56,164 41,280 -49,373 -20,21 -53,47 -74,58 -63,32 -78,61 -78,149 0,45 -7,96 -17,125 -20,61 -84,126 -147,150 -47,18 -50,18 -176,-5 -144,-26 -178,-23 -230,18 -79,64 -123,82 -191,81 -35,-1 -77,-4 -94,-8 z m 218,-110 c 117,-81 130,-83 305,-50 109,21 115,21 152,4 77,-35 110,-96 110,-204 0,-74 23,-143 56,-172 11,-9 38,-27 62,-40 48,-26 97,-92 113,-153 14,-51 7,-96 -33,-218 l -32,-98 18,-72 c 10,-40 20,-113 23,-163 5,-107 -8,-137 -83,-185 -59,-37 -121,-50 -244,-50 -134,0 -178,-16 -260,-94 -56,-53 -76,-65 -143,-86 -70,-21 -83,-23 -125,-11 -80,21 -132,51 -196,115 -89,90 -96,95 -176,117 -218,60 -249,132 -188,442 23,116 23,114 -22,262 -17,55 -20,87 -17,148 7,113 39,166 142,235 102,68 126,91 172,170 42,71 101,128 148,141 16,5 56,10 88,10 55,1 64,-2 130,-48 z"
       id="path94"
       inkscape:connector-curvature="0" />
    <path
       d="m 4278,6361 c -44,-14 -84,-48 -124,-104 -57,-80 -85,-107 -132,-129 -57,-27 -117,-97 -131,-153 -12,-48 -10,-80 16,-215 15,-82 15,-89 -6,-190 -34,-171 -26,-260 30,-324 27,-32 100,-66 138,-66 9,0 93,66 186,146 216,186 406,338 615,494 91,67 167,127 168,131 2,5 -6,17 -17,27 -14,11 -29,44 -41,93 -55,222 -143,278 -323,208 -81,-32 -115,-26 -191,33 -55,42 -75,52 -114,54 -26,2 -59,-1 -74,-5 z"
       id="path96"
       inkscape:connector-curvature="0" />
    <path
       d="m 4870,5773 c -250,-191 -363,-282 -545,-438 -77,-66 -155,-132 -172,-147 l -33,-26 36,-21 36,-22 102,99 c 116,111 270,245 419,364 90,72 358,266 396,287 13,8 13,12 -2,35 -10,14 -21,26 -25,26 -4,0 -100,-70 -212,-157 z"
       id="path98"
       inkscape:connector-curvature="0" />
    <path
       d="m 5000,5632 c -194,-146 -338,-262 -460,-371 -117,-104 -250,-233 -250,-241 0,-13 61,-40 102,-46 l 43,-6 115,114 c 124,123 249,230 430,368 87,66 118,96 127,121 6,19 21,60 33,93 11,32 20,64 18,72 -2,8 -64,-33 -158,-104 z"
       id="path100"
       inkscape:connector-curvature="0" />
    <path
       d="m 4986,5396 c -108,-84 -336,-275 -336,-282 0,-1 21,6 47,18 36,16 63,20 122,18 188,-6 208,-4 249,23 57,37 76,85 68,166 -7,73 -23,141 -34,141 -4,0 -56,-38 -116,-84 z"
       id="path102"
       inkscape:connector-curvature="0" />
    <path
       d="m 6307,5926 c -99,-27 -201,-119 -270,-246 -72,-130 -118,-292 -93,-326 7,-9 39,-19 79,-24 84,-12 137,-38 192,-96 l 43,-44 13,37 c 12,36 11,38 -27,71 -54,47 -118,78 -192,92 -34,7 -62,14 -62,15 0,2 16,45 36,97 49,129 96,209 161,274 61,62 115,90 190,100 60,7 121,-16 167,-62 31,-31 65,-98 66,-128 0,-14 5,-17 23,-12 12,3 25,6 30,6 14,0 6,46 -17,95 -61,133 -191,190 -339,151 z"
       id="path104"
       inkscape:connector-curvature="0" />
    <path
       d="m 2705,4576 c -88,-116 -168,-285 -207,-441 -27,-106 -22,-255 12,-332 68,-158 243,-203 479,-124 167,56 291,134 276,174 -8,19 -47,8 -115,-34 -96,-59 -280,-118 -368,-119 -99,0 -187,55 -219,138 -29,76 -25,224 11,337 35,113 112,271 171,350 l 45,59 -23,13 c -31,17 -33,17 -62,-21 z"
       id="path106"
       inkscape:connector-curvature="0" />
    <path
       d="m 1433,5892 c -74,-26 -117,-64 -150,-129 -26,-54 -28,-68 -33,-213 -3,-85 -9,-162 -14,-170 -5,-8 -36,-52 -68,-97 -82,-114 -98,-153 -98,-241 0,-115 32,-170 137,-238 31,-21 62,-52 78,-78 l 26,-44 61,67 c 139,148 530,535 669,661 l 149,135 v 88 c 0,92 -11,129 -54,175 -48,53 -66,57 -267,54 -165,-3 -192,-1 -243,17 -88,31 -134,34 -193,13 z"
       id="path108"
       inkscape:connector-curvature="0" />
    <path
       d="m 2010,5332 c -343,-327 -680,-673 -680,-699 0,-17 22,-63 30,-63 3,0 31,30 60,68 144,179 438,482 634,652 60,52 122,106 138,120 27,23 28,27 16,58 -7,17 -15,32 -18,32 -3,0 -84,-76 -180,-168 z"
       id="path110"
       inkscape:connector-curvature="0" />
    <path
       d="m 2279,5322 c -15,-15 -93,-90 -175,-167 -186,-175 -380,-374 -517,-530 l -105,-120 47,-3 c 25,-2 72,4 103,14 52,15 64,25 125,98 99,118 399,416 536,530 64,55 117,103 117,106 0,11 -85,100 -96,100 -5,-1 -21,-13 -35,-28 z"
       id="path112"
       inkscape:connector-curvature="0" />
    <path
       d="m 2395,5175 c -16,-17 -86,-81 -155,-142 -117,-104 -283,-269 -410,-408 l -55,-60 h 182 c 167,1 185,3 210,21 40,29 71,98 91,200 21,107 41,143 109,195 68,51 87,87 81,156 -3,30 -9,57 -14,62 -5,4 -22,-7 -39,-24 z"
       id="path114"
       inkscape:connector-curvature="0" />
    <path
       d="m 4425,3251 c -61,-38 -122,-130 -154,-231 -9,-31 -41,-220 -36,-220 1,0 16,5 34,11 33,12 33,12 52,127 16,107 82,232 138,261 34,19 43,4 52,-91 7,-73 23,-149 35,-170 3,-4 17,-2 32,4 15,7 28,12 29,13 1,0 -4,19 -12,42 -8,22 -18,82 -23,133 -8,73 -14,96 -33,116 -27,29 -72,32 -114,5 z"
       id="path116"
       inkscape:connector-curvature="0" />
    <path
       d="m 2607,2635 c -37,-25 -67,-50 -67,-55 0,-22 66,-14 108,13 48,32 62,29 62,-14 0,-19 5,-29 15,-30 51,-5 50,-5 46,36 -9,107 -57,121 -164,50 z"
       id="path118"
       inkscape:connector-curvature="0" />
    <path
       d="m 4456,1539 c -57,-68 -73,-136 -82,-364 -9,-207 15,-304 86,-352 67,-46 182,-20 257,59 80,84 72,207 -25,361 -40,63 -51,89 -56,139 -9,74 -40,153 -70,173 -36,26 -81,19 -110,-16 z m 82,-61 c 7,-13 19,-61 27,-108 10,-59 24,-98 45,-130 70,-108 84,-142 85,-212 0,-57 -3,-70 -25,-93 -54,-58 -134,-80 -177,-50 -38,27 -48,78 -47,250 1,177 15,285 44,333 23,38 33,40 48,10 z"
       id="path120"
       inkscape:connector-curvature="0" />
  </g>
  <path
     style="fill:#d3bc5f;stroke-width:1.39620399"
     d="m 662.88912,997.10811 -6.49633,-5.9802 11.8184,-16.42763 c 19.37688,-26.93385 30.83083,-49.15387 41.3543,-80.22487 2.91951,-8.61997 7.51656,-19.30095 10.21567,-23.73547 2.69913,-4.43453 5.87546,-11.51843 7.05853,-15.74198 2.41698,-8.6286 5.78587,-42.3033 7.22839,-72.2535 0.52703,-10.94277 1.28982,-19.89593 1.69507,-19.89593 0.40525,0 4.71869,0.69341 9.58544,1.54092 7.00691,1.2202 9.3902,2.30995 11.45073,5.23577 4.76738,6.76944 8.47446,15.24992 11.48817,26.28092 3.85135,14.09715 8.8386,23.88637 13.17594,25.86262 5.21858,2.37773 5.58472,0.5613 1.66878,-8.2788 -1.96302,-4.43145 -5.4889,-14.34045 -7.83529,-22.02 -2.34641,-7.67955 -6.07873,-16.82092 -8.29407,-20.31415 l -4.02788,-6.35132 8.0789,-1.53534 c 14.92894,-2.83713 28.56226,-10.64607 41.90859,-24.00453 13.11636,-13.12829 18.76194,-22.83683 22.82138,-39.24527 1.23487,-4.99143 2.82858,-10.45725 3.54158,-12.14626 2.19087,-5.18993 9.90422,-6.16634 45.1772,-5.71883 l 32.51525,0.41254 -7.41945,8.99794 c -7.6947,9.33164 -8.65447,11.24702 -5.63587,11.24702 6.16357,0 28.93282,-23.49604 28.93282,-29.8564 0,-2.63392 -1.28587,-2.72169 -9.7734,-0.66717 -3.49065,0.84492 -21.4857,1.62463 -40.48994,1.75437 -22.95354,0.15671 -35.47015,0.7821 -38.04657,1.90097 l -3.83955,1.66744 v -20.35351 c 0,-18.98732 -0.28666,-21.21076 -4.27059,-33.12529 -5.11625,-15.30083 -9.491,-23.28543 -17.199,-31.39075 -10.32371,-10.85589 -29.39435,-18.38043 -46.5845,-18.38043 -10.36519,0 -16.37233,2.23874 -26.47596,9.86706 -5.1229,3.86782 -11.09392,6.65424 -19.4458,9.07452 -6.62906,1.92102 -12.25063,3.29497 -12.49238,3.05321 -0.71996,-0.71995 8.99724,-47.3109 11.24844,-53.93276 1.14211,-3.35952 1.76562,-6.61135 1.38555,-7.2263 -0.38007,-0.61496 -4.8231,0.0635 -9.87339,1.50783 -8.16243,2.33424 -9.08718,2.37781 -8.32529,0.39235 1.84489,-4.80769 3.40151,-21.60357 3.8073,-41.08088 l 0.42507,-20.4025 -5.27277,-6.43473 c -7.10702,-8.67317 -10.11722,-15.95709 -14.33261,-34.68116 -1.95806,-8.69736 -4.1107,-16.37217 -4.78366,-17.05512 -0.67296,-0.68297 -8.01579,-1.34021 -16.31739,-1.46055 -13.26672,-0.1923 -17.54452,-0.93577 -35.33881,-6.14187 -38.57132,-11.28485 -51.48919,-13.37452 -83.07414,-13.43852 l -27.92407,-0.0566 -19.25528,5.97971 c -10.5904,3.28883 -26.79849,8.78638 -36.01797,12.21678 -9.21948,3.43035 -16.94728,6.23704 -17.1729,6.23704 -0.22562,0 -1.19771,-3.61267 -2.1602,-8.02817 -2.50009,-11.46927 -4.64428,-14.41204 -9.48828,-13.02205 -10.16675,2.91733 -36.5306,18.32234 -54.50388,31.84785 -15.13557,11.39005 -40.59003,34.93121 -47.13903,43.59577 -3.04832,4.03306 -8.99801,9.54591 -13.22153,12.25077 -24.96171,15.9862 -41.92693,36.16989 -44.17239,52.55232 -0.95273,6.95089 1.18104,14.80229 4.94969,18.21288 2.46476,2.23058 2.33393,2.85818 -3.5781,17.16421 -6.75246,16.33969 -10.02812,22.2547 -14.57942,26.32669 -5.55351,4.96868 -8.26823,14.12763 -10.16007,34.27818 l -1.80351,19.20965 -7.1493,10.90767 c -3.93212,5.99921 -8.13098,13.2676 -9.33083,16.15194 -3.3963,8.16459 -4.07124,20.21106 -1.58196,28.23525 1.18612,3.82341 1.70355,7.36521 1.14985,7.87069 -2.65755,2.42613 -20.63452,5.42219 -32.51051,5.41823 l -13.17473,-0.005 -16.4054,-17.44553 c -9.02297,-9.59503 -16.4054,-17.95132 -16.4054,-18.56953 0,-0.61823 4.55512,-2.56898 10.12248,-4.33501 13.7617,-4.36538 27.97612,-11.59077 47.8634,-24.32961 9.19107,-5.88736 17.33933,-10.99501 18.10724,-11.35031 0.76791,-0.35532 -0.45544,-2.08365 -2.71857,-3.84071 -7.06692,-5.48669 -16.13018,-13.97287 -16.13018,-15.10313 0,-0.59471 3.76975,-1.51882 8.37722,-2.05357 5.4138,-0.62834 8.37723,-1.61032 8.37723,-2.77591 0,-0.99199 -2.98439,-5.73248 -6.63198,-10.5344 -16.80192,-22.11912 -23.23862,-33.46233 -31.96682,-56.33411 -7.01593,-18.38487 -28.419,-93.02853 -28.419,-99.11188 0,-1.87882 0.5405,-2.08757 2.57962,-0.99626 1.41879,0.75932 6.5529,2.02046 11.40914,2.80253 15.70912,2.52988 35.57499,-1.95056 74.44207,-16.78924 16.11844,-6.1537 19.06981,-6.84462 29.32028,-6.86384 13.16573,-0.0247 17.87999,-1.73774 11.35045,-4.12446 -9.79696,-3.58106 -11.69507,-4.66723 -16.10226,-9.21429 -2.89417,-2.98603 -4.14889,-5.28054 -3.32475,-6.07999 0.72801,-0.70621 5.93742,-2.22966 11.57646,-3.38541 5.63904,-1.15575 10.5549,-2.40348 10.92415,-2.77272 0.36924,-0.36925 -2.41014,-4.07403 -6.17639,-8.23287 -10.12769,-11.18334 -15.71744,-19.91397 -19.36457,-30.24547 -6.29929,-17.84452 -3.97957,-55.58837 5.78774,-94.17147 7.14299,-28.21645 27.39064,-86.52668 31.58422,-90.95788 0.84039,-0.88802 2.64392,0.35596 5.06058,3.49051 7.39083,9.58631 18.0416,20.13151 34.53409,34.19182 25.19643,21.48065 34.62906,32.86716 41.27209,49.82123 1.59942,4.08202 3.39615,7.92346 3.99273,8.53656 0.59657,0.6131 2.83127,-3.78494 4.96598,-9.77342 9.07551,-25.45943 19.04053,-37.76152 48.71001,-60.13378 36.93771,-27.85288 57.47301,-47.17436 72.99233,-68.67773 8.14538,-11.2862 8.17878,-11.3124 8.59026,-6.7309 0.22719,2.5296 -0.17057,9.3073 -0.88389,15.0615 -0.71331,5.7543 -0.81972,10.9816 -0.23647,11.61621 0.58327,0.63466 5.0649,-2.44621 9.95919,-6.84651 4.89431,-4.4003 15.82868,-13.1517 24.29863,-19.4475 28.28037,-21.0211 62.4073,-54.5068 85.19359,-83.5927 l 9.4979,-12.1238 4.48752,13.6555 c 5.27916,16.0644 16.93938,43.5976 23.60613,55.741 2.58974,4.7172 12.20159,20.4245 21.3597,34.9051 32.46136,51.32733 40.32719,66.45394 45.82411,88.12346 4.29149,16.91752 4.26591,29.97154 -0.0977,49.86431 -1.84846,8.42672 -3.12754,15.55461 -2.84241,15.83975 0.28515,0.28514 4.69565,-3.90964 9.80113,-9.32171 12.41443,-13.15995 24.88082,-20.86531 66.69531,-41.22375 19.37139,-9.43144 39.51157,-19.79006 44.75595,-23.01914 7.14118,-4.397 9.34514,-5.24435 8.77816,-3.37492 -2.90509,9.57848 -3.86765,19.30668 -5.08222,51.36328 -2.00595,52.94321 -4.0329,67.17085 -12.58822,88.35905 -7.02779,17.40508 -7.75114,19.84711 -5.8787,19.84633 0.57593,-2.5e-4 7.59685,-4.08415 15.60204,-9.07533 8.00521,-4.99119 15.08139,-9.07489 15.72488,-9.07489 0.64346,0 -1.03697,4.38237 -3.73432,9.73858 -2.69734,5.35622 -4.90426,10.38255 -4.90426,11.16963 0,2.31377 7.58696,1.68539 33.27982,-2.75637 46.52475,-8.04316 59.69985,-12.39169 82.95412,-27.37956 10.18,-6.56115 10.223,-6.53412 8.0282,5.03927 -0.768,4.04928 -3.3024,22.51257 -5.6322,41.02954 -7.6769,61.01474 -12.90822,87.42049 -21.58107,108.93355 -10.78208,26.74498 -24.28148,40.49154 -54.81368,55.81756 -10.66515,5.35349 -12.72172,8.62692 -6.28297,10.00049 9.12135,1.94585 25.36867,8.55416 45.28672,18.41954 l 21.38205,10.59047 -9.7734,2.45068 c -5.3754,1.34786 -11.067,2.50194 -12.64807,2.5646 -1.581,0.0627 -4.07048,0.98837 -5.53208,2.05715 -2.36355,1.72822 -2.43165,2.21894 -0.6159,4.43545 4.8777,5.9544 54.1721,25.80599 83.4103,33.5906 l 4.5775,1.21874 -21.3333,16.98427 c -27.9449,22.24794 -49.51302,41.75556 -63.16812,57.13332 -18.08588,20.36739 -46.91385,48.38151 -56.03633,54.45426 -4.68427,3.11828 -12.85204,7.44998 -18.15066,9.62595 -18.67199,7.66808 -35.46362,15.92295 -35.46362,17.4342 0,1.80818 1.02112,2.1876 11.33506,4.21178 4.31451,0.84675 8.98796,2.37562 10.38543,3.39742 2.29123,1.67543 1.76755,2.08275 -5.33015,4.14608 -4.32904,1.2585 -8.28212,2.95342 -8.78459,3.76642 -0.50248,0.81308 3.74016,6.30233 9.42811,12.19845 5.68796,5.89613 15.42249,17.0031 21.6323,24.68228 12.3418,15.26197 17.81455,20.7621 26.1487,26.27932 5.4471,3.606 5.4582,3.6321 2.0943,4.8939 -18.37065,6.89085 -59.86761,21.58448 -67.60727,23.93888 -5.37539,1.63522 -16.21483,3.6966 -24.08765,4.581 -16.80704,1.88782 -27.14404,0.58117 -42.23228,-5.33843 -5.38482,-2.11267 -10.14204,-3.48982 -10.57158,-3.0603 -0.42953,0.4296 1.16313,4.2258 3.53925,8.436 2.37612,4.21027 8.32694,18.32715 13.22404,31.37077 4.89709,13.0437 9.90311,25.64828 11.12448,28.0101 1.22137,2.3619 1.75176,4.57868 1.17863,4.92623 -1.81618,1.10137 -53.45985,9.1401 -69.43768,10.80847 -24.09262,2.51573 -42.54319,-0.68692 -57.07488,-9.90712 -3.73624,-2.3706 -7.1494,-3.95393 -7.58478,-3.51855 -0.43539,0.43537 -0.14234,5.33677 0.6512,10.89202 0.79354,5.55525 1.30614,10.27842 1.13913,10.49592 -0.16701,0.2175 -3.22701,-2.2956 -6.79999,-5.58484 z M 795.11201,835.24214 c 5.38604,-2.835 6.82915,-6.77205 2.48229,-6.77205 -1.97431,0 -2.47311,-0.72113 -1.93147,-2.7924 0.60601,-2.31735 0.0428,-2.7924 -3.31055,-2.7924 -4.69488,0 -10.24694,3.44715 -10.24694,6.3621 0,1.10835 1.18331,2.01517 2.62956,2.01517 1.45536,0 2.95565,1.24688 3.3598,2.7924 0.83201,3.1815 2.64543,3.48833 7.01731,1.18718 z"
     id="path138"
     inkscape:connector-curvature="0" />
  <path
     style="fill:#55ffdd;stroke-width:1.39620399"
     d="m 533.7166,1043.8346 c 1.03054,-1.3438 4.57204,-5.4104 7.87,-9.0368 6.62421,-7.2839 8.74887,-11.6831 8.74887,-18.1152 0,-3.1013 1.37489,-5.5786 4.98613,-8.9844 5.71502,-5.39 10.37212,-6.2165 10.37212,-1.8408 0,4.0364 3.6124,10.5383 7.2837,13.1098 7.35455,5.1513 22.93853,0.9136 29.58443,-8.0448 3.1985,-4.3115 3.82613,-13.11192 1.78703,-25.05664 l -1.13664,-6.65828 9.05475,-8.8782 c 4.98011,-4.88302 10.81084,-12.25357 12.95715,-16.37902 3.58879,-6.89813 3.92474,-8.88053 4.18043,-24.66788 0.16293,-10.06027 0.91661,-17.93647 1.82061,-19.02569 0.84842,-1.02233 6.39919,-4.69658 12.33504,-8.16503 27.08201,-15.82462 47.8217,-44.02207 47.77822,-64.95877 -0.0293,-14.09663 -11.51704,-28.92795 -25.65951,-33.1278 -15.43706,-4.5843 -35.43249,-1.04085 -58.79719,10.4196 -13.85708,6.79695 -22.11399,11.9832 -51.66237,32.44972 -40.08845,27.76703 -83.07231,41.56755 -124.12402,39.85163 -20.04014,-0.8376 -28.24776,-2.3424 -59.78343,-10.96073 -18.06113,-4.9359 -22.37372,-5.65035 -29.87599,-4.94977 -16.76727,1.5657 -31.54183,12.88042 -33.45199,25.61827 -2.01337,13.42613 2.23234,24.21247 14.72977,37.42155 7.84596,8.29267 8.01354,8.64547 12.49998,26.31345 2.50107,9.84945 4.30012,18.1554 3.99788,18.45765 -0.58833,0.5883 -19.24881,-27.08993 -22.12244,-32.81325 -0.9468,-1.88565 -6.05058,-8.00235 -11.34175,-13.59255 -16.5428,-17.47785 -21.20537,-31.87537 -17.9949,-55.56667 l 1.70483,-12.58065 -4.99512,-12.8685 c -9.75524,-25.1316 -16.73531,-61.1121 -18.17276,-93.67595 -0.60494,-13.70433 -0.44794,-15.64986 0.97909,-12.13291 0.93475,2.30374 3.28637,7.28408 5.22582,11.06743 6.78952,13.24455 20.66006,16.61903 40.53089,9.86052 8.17404,-2.78017 14.67924,-3.74422 31.43529,-4.65863 18.43702,-1.00613 21.90584,-1.58221 27.23202,-4.52255 8.01498,-4.42469 11.7374,-10.24292 14.76228,-23.0738 2.36771,-10.04328 2.95512,-11.00667 12.52886,-20.54821 11.15125,-11.11372 13.5837,-16.57199 12.176,-27.32212 -1.12789,-8.6133 -4.24645,-14.46438 -14.20626,-26.65394 l -8.36427,-10.23682 -0.9244,-11.99271 c -1.60254,-20.79071 -4.75941,-27.89821 -15.84602,-35.67629 l -6.04425,-4.2405 -21.85918,-0.0828 c -17.49896,-0.0662 -23.25167,-0.58963 -28.8402,-2.62382 -3.83956,-1.39757 -11.85028,-2.85472 -17.8016,-3.23809 -5.95132,-0.38337 -10.82058,-0.87477 -10.82058,-1.09201 0,-1.26267 10.17282,-23.87492 11.4133,-25.36961 0.82195,-0.99039 3.32222,-1.8007 5.55615,-1.8007 6.15764,0 18.77657,-4.66867 42.14885,-15.59396 35.60996,-16.64574 75.60896,-31.26742 107.8009,-39.40672 21.41078,-5.41343 38.24388,-6.90352 68.26107,-6.04255 37.10884,1.06438 71.26957,6.03915 117.36124,17.09112 35.84617,8.59529 50.38586,5.34121 52.01772,-11.64192 2.3425,-24.37895 -30.14802,-48.14671 -84.13041,-61.54383 -28.4421,-7.05864 -35.73983,-7.78562 -77.48933,-7.71927 -44.0684,0.07 -57.17656,1.35501 -98.62445,9.66808 -25.74697,5.16398 -44.38286,10.63853 -62.25602,18.28856 -6.18898,2.649 -11.63389,4.42287 -12.09981,3.94195 -1.68684,-1.74117 32.49483,-30.36018 51.2742,-42.92992 15.76032,-10.54898 33.32165,-19.5089 34.50008,-17.60217 0.52011,0.84156 1.71513,6.03443 2.6556,11.53973 1.44825,8.47764 2.11946,9.97724 4.38552,9.79799 1.47156,-0.11639 14.61311,-4.62578 29.20344,-10.02087 31.41019,-11.61459 44.41501,-15.20136 61.65598,-17.00491 21.38589,-2.23715 57.66382,2.64939 89.13405,12.0061 22.62782,6.7277 33.35514,8.92644 43.60478,8.9375 9.87607,0.0106 10.11413,0.0945 10.93456,3.85045 5.16797,23.65925 9.31445,34.58179 17.02741,44.85305 l 3.53852,4.71219 -0.76476,24.6081 c -0.61748,19.86936 -1.32895,26.28002 -3.69468,33.29033 -1.61146,4.77522 -2.92994,9.64448 -2.92994,10.82058 0,2.53184 4.02302,2.75029 11.64961,0.63258 2.95168,-0.81961 5.55255,-1.28733 5.77972,-1.03937 1.07444,1.17277 -6.82521,39.28262 -9.93354,47.92177 -1.93402,5.37538 -3.85476,10.8653 -4.26831,12.19982 -1.41308,4.56014 3.73643,4.34258 16.0844,-0.67959 6.65649,-2.70732 14.93003,-5.38309 18.38563,-5.94615 4.51484,-0.73566 7.97624,-2.57777 12.30013,-6.54595 8.38834,-7.69827 15.96401,-10.82827 26.29746,-10.8652 30.98839,-0.11072 53.74963,23.36821 59.06931,60.93187 1.63655,11.55606 -0.32428,36.63778 -3.97908,50.89823 -7.49509,29.24464 -27.05717,50.63192 -53.71776,58.72982 -8.61351,2.61628 -11.7978,2.84961 -28.17251,2.06428 l -18.46137,-0.88539 -0.8163,7.31188 c -0.44896,4.02153 -1.1975,13.90894 -1.6634,21.97204 -1.32611,22.95045 -4.70223,58.61678 -6.29594,66.51225 -0.7964,3.94545 -3.67385,10.8567 -6.39432,15.35828 -2.72047,4.5015 -7.01787,14.4675 -9.54976,22.14667 -13.88241,42.1047 -35.16385,77.58795 -65.63155,109.42957 -18.6388,19.47925 -35.35166,30.58705 -59.01591,39.22355 -10.35284,3.7783 -37.33552,9.816 -43.86801,9.816 -2.53774,0 -2.66269,-0.2997 -1.01879,-2.4433 z M 452.07405,831.04221 c 12.45949,-4.5084 23.22564,-11.48257 24.00957,-15.55312 0.70973,-3.68535 -2.56377,-2.91908 -16.72602,3.9153 -16.23667,7.83547 -29.98525,10.98127 -38.55847,8.82255 -20.47687,-5.15618 -22.50738,-31.51208 -5.07297,-65.84674 2.79367,-5.50175 6.89104,-12.48047 9.10523,-15.50824 4.11998,-5.63378 3.65186,-7.68734 -1.76376,-7.73752 -4.06364,-0.0377 -15.70572,19.68151 -22.24378,37.6761 -2.70212,7.43707 -3.30417,11.8479 -3.33504,24.43357 -0.0338,13.80128 0.31081,15.96683 3.39966,21.36113 8.38955,14.65125 25.99275,17.55285 51.18558,8.43697 z M 601.3287,720.85108 c 6.95348,-2.14773 11.16014,-4.549 16.15676,-9.22275 l 6.75551,-6.319 17.25956,-1.79624 c 19.01536,-1.979 26.05048,-4.58079 32.22377,-11.91735 2.01661,-2.39659 4.01837,-6.03681 4.44834,-8.08939 0.42999,-2.05257 1.02329,-4.92332 1.31848,-6.37946 0.29517,-1.45611 -0.43487,-8.30331 -1.6223,-15.21599 -2.09478,-12.19478 -2.06715,-12.87786 0.92929,-22.97136 5.92415,-19.95555 2.56259,-32.73647 -11.1815,-42.51301 -3.4556,-2.45807 -6.70127,-5.08142 -7.21261,-5.82965 -0.51133,-0.74824 -1.36983,-5.80693 -1.90777,-11.24151 -1.15046,-11.62251 -2.94087,-15.60202 -9.68266,-21.5214 -6.64259,-5.83227 -10.47409,-6.57975 -23.82905,-4.64883 -15.77147,2.28033 -18.6439,2.07856 -23.55581,-1.65459 -7.57509,-5.75718 -13.06924,-7.88604 -20.35226,-7.88604 -12.77737,0 -21.26409,5.38137 -30.09802,19.085 -2.92522,4.53773 -7.81711,9.36627 -13.17624,13.00557 -18.69773,12.6974 -23.22048,28.13239 -15.53565,53.01922 2.09366,6.78018 2.16569,8.77448 0.58198,16.115 -2.76393,12.81072 -2.7573,32.57079 0.0126,37.9209 3.40574,6.57798 11.51447,12.55869 20.79731,15.33933 5.92764,1.77563 10.69245,4.59153 16.89123,9.9824 9.39754,8.17274 14.03469,10.98211 22.59648,13.68985 7.48405,2.36689 7.4326,2.36958 18.18243,-0.9507 z m 175.27189,-42.68351 c 1.17432,-3.08869 0.87983,-4.26632 -1.77981,-7.11688 -3.89097,-4.17033 -12.35893,-8.65129 -20.21155,-10.69532 l -5.85493,-1.52404 4.19479,-10.42831 c 8.71269,-21.65982 20.26215,-33.53059 33.67001,-34.60678 9.40092,-0.75456 15.74045,3.15013 20.41698,12.57537 3.09246,6.23262 7.15638,8.66377 9.13387,5.46412 1.30771,-2.11592 -2.31686,-11.20651 -6.48386,-16.2618 -5.81107,-7.04983 -11.4465,-9.58453 -21.29783,-9.5793 -10.29342,0.005 -17.99971,3.64649 -26.72996,12.62925 -10.79509,11.10735 -22.87756,40.69437 -18.68256,45.74905 0.88794,1.06988 4.74624,2.6169 8.57405,3.43781 8.80987,1.88938 13.43583,4.31296 18.59998,9.7447 2.25543,2.3723 4.31293,4.31326 4.57222,4.31326 0.25928,0 1.10466,-1.6655 1.8786,-3.70113 z"
     id="path140"
     inkscape:connector-curvature="0" />
  <path
     style="fill:#55ffdd;stroke-width:1.39620399"
     d="m 662.83007,996.11721 -5.35324,-5.48228 11.12352,-15.80985 c 18.91277,-26.88075 30.33096,-48.45262 39.40733,-74.45047 2.41285,-6.91117 7.83645,-19.83705 12.05246,-28.7241 8.69514,-18.32872 10.30755,-26.88517 13.13605,-69.7083 2.53029,-38.30823 2.42073,-37.69876 6.77445,-37.68969 2.0565,0.005 6.13467,0.673 9.06259,1.48605 7.1937,1.99761 11.89317,9.67457 19.07444,31.15967 5.87398,17.57392 10.89039,25.98705 15.49507,25.98705 1.48017,0 2.69121,-0.4296 2.69121,-0.95468 0,-2.77425 -14.77917,-42.678 -18.10956,-48.8958 -4.07587,-7.60951 -4.04422,-8.79008 0.23565,-8.79008 5.48629,0 20.35329,-6.09886 29.21029,-11.98288 11.5514,-7.67398 26.53043,-23.40819 31.46127,-33.04737 2.06153,-4.03006 5.39898,-12.98202 7.41654,-19.89323 3.02255,-10.35386 4.31407,-12.87747 7.33688,-14.33616 2.72255,-1.31379 12.3584,-1.67385 37.36676,-1.3962 l 33.69814,0.37412 -6.36547,8.19616 c -3.50108,4.50789 -6.36555,8.74887 -6.36555,9.42438 0,3.42705 6.36435,0.36084 14.11432,-6.79996 10.17675,-9.40304 16.60215,-17.79584 16.60215,-21.68544 0,-2.4711 -0.63412,-2.66669 -5.93385,-1.83032 -3.26362,0.51504 -22.8978,1.46907 -43.63139,2.12006 -20.73363,0.65101 -38.79702,1.63615 -40.14087,2.1892 -2.26171,0.9308 -2.44335,-0.51824 -2.44335,-19.49166 0,-18.18646 -0.39541,-21.67513 -3.50744,-30.94568 -5.07197,-15.10914 -9.82321,-23.75043 -17.55184,-31.92232 -11.26339,-11.90937 -28.23675,-18.80816 -46.35242,-18.83987 -10.66393,-0.0187 -15.972,1.80837 -28.22828,9.71613 -7.94269,5.12463 -27.89882,12.39913 -29.53259,10.76535 -0.83931,-0.83931 6.76173,-39.19108 10.09063,-50.91323 1.15234,-4.05782 1.75544,-7.92756 1.3402,-8.59942 -0.41599,-0.6731 -4.35258,-0.38528 -8.76764,0.64102 -4.40696,1.02444 -8.1464,1.72887 -8.30986,1.56542 -0.16347,-0.16346 0.25056,-4.35726 0.92006,-9.31955 0.66949,-4.9623 1.65486,-18.61022 2.1897,-30.32874 l 0.97246,-21.30639 -5.84312,-7.57378 c -6.78483,-8.79439 -9.71791,-15.92685 -14.75554,-35.88157 -2.00757,-7.9522 -4.16097,-14.98203 -4.78534,-15.62186 -0.62438,-0.63981 -8.9052,-1.70426 -18.40183,-2.36543 -13.58903,-0.9461 -21.42982,-2.41014 -36.81345,-6.87385 -31.94506,-9.26916 -45.1323,-11.32624 -78.18742,-12.19648 l -29.32028,-0.77193 -33.5089,11.44381 c -18.42989,6.29411 -34.67163,11.55257 -36.09274,11.6855 -2.01263,0.18825 -3.16958,-1.64922 -5.23331,-8.31159 -3.68606,-11.89981 -5.04715,-12.74488 -14.40796,-8.9456 -10.8806,4.41611 -35.64611,19.54563 -51.07559,31.20263 -7.29517,5.51152 -22.47814,19.20665 -33.73992,30.43362 -11.26178,11.22698 -26.45861,24.90935 -33.77074,30.40527 -24.04269,18.07089 -35.11034,33.96378 -35.11034,50.41762 0,7.11132 0.66394,10.00608 3.06794,13.37622 l 3.06794,4.3009 -6.10634,14.9834 c -3.35848,8.24086 -8.64555,18.2747 -11.74903,22.29738 -8.77481,11.37379 -10.16449,16.32056 -13.46209,47.92024 -0.76517,7.33239 -2.13517,10.58878 -9.08529,21.59518 -9.4541,14.97178 -11.87707,23.07198 -10.53842,35.23092 1.84607,16.76796 2.40738,15.2055 -6.15616,17.13609 -4.22351,0.95216 -13.99948,2.15514 -21.72437,2.67331 l -14.04525,0.94214 -15.97313,-17.0045 c -8.78523,-9.35249 -15.97314,-17.71518 -15.97314,-18.58378 0,-0.86859 5.96877,-3.8355 13.26394,-6.5931 7.29516,-2.75762 17.03369,-7.15111 21.64116,-9.76334 14.28282,-8.09769 39.79185,-24.15212 39.79104,-25.04298 -4.3e-4,-0.4659 -4.09266,-4.50629 -9.09385,-8.97862 -5.00118,-4.47236 -8.7335,-8.71332 -8.29404,-9.42438 0.43946,-0.71108 2.48974,-1.30142 4.55618,-1.3119 5.72072,-0.029 10.04008,-1.50758 10.04008,-3.43679 0,-0.95367 -5.07156,-8.89111 -11.27012,-17.63876 -19.18635,-27.0765 -27.88075,-47.95042 -44.42517,-106.65806 -9.93359,-35.2492 -11.63195,-43.00173 -9.21752,-42.07522 1.05024,0.40301 5.86455,1.44994 10.69847,2.32649 15.22162,2.76021 32.15247,-0.6893 69.52618,-14.16534 19.74563,-7.11977 24.95858,-8.44761 36.04842,-9.18217 7.13056,-0.4723 13.3023,-1.40508 13.71499,-2.07281 0.41269,-0.66775 -2.59409,-2.70631 -6.68173,-4.53013 -7.26793,-3.24279 -16.41408,-11.14127 -14.78621,-12.76914 0.45073,-0.45075 5.33082,-1.97994 10.84464,-3.39822 5.51382,-1.4183 10.36638,-2.91996 10.78346,-3.33705 0.41709,-0.41709 -3.13167,-5.33442 -7.88612,-10.92743 -18.01259,-21.18952 -22.77753,-38.41196 -19.76166,-71.42681 2.04052,-22.3376 5.59935,-40.56143 12.81741,-65.63454 8.22639,-28.57575 24.93865,-74.85923 27.03053,-74.85923 0.40896,0 8.12787,7.38941 17.15311,16.42093 9.02524,9.0315 23.49683,22.91641 32.15909,30.85534 16.61863,15.2309 23.90399,24.59712 30.32405,38.98525 2.1528,4.82471 4.56385,8.55565 5.35787,8.29099 0.79402,-0.26469 3.89408,-6.3856 6.88904,-13.60205 2.99495,-7.21644 7.619,-16.39552 10.27567,-20.39795 5.45203,-8.21386 19.18303,-21.61903 32.6503,-31.87556 35.44985,-26.99822 61.29959,-50.983 75.2995,-69.86693 3.415,-4.6064 6.79065,-9.0035 7.50141,-9.7715 0.79535,-0.8592 1.00866,4.1068 0.5547,12.914 -0.40569,7.8706 -0.25288,14.60975 0.33956,14.9759 1.10299,0.68168 28.68694,-20.7653 54.03811,-42.0155 17.7246,-14.8574 49.58262,-47.3559 63.14127,-64.4108 5.64704,-7.1032 10.6628,-12.9137 11.1461,-12.9123 0.48332,0 3.03078,6.1273 5.66104,13.613 9.31562,26.5123 20.49012,49.8265 35.63367,74.3452 40.4704,65.52517 44.81656,73.34945 51.18641,92.14949 6.06475,17.89958 7.01756,38.46561 2.77727,59.94653 -1.58184,8.01344 -2.57151,14.87444 -2.1993,15.24666 0.37224,0.37224 5.5439,-4.05381 11.49259,-9.83565 5.9487,-5.78184 14.58556,-12.93131 19.19303,-15.88773 8.03157,-5.15349 97.21188,-51.15571 97.87856,-50.48903 0.17783,0.17781 -0.25498,3.4188 -0.96178,7.20215 -0.70682,3.78336 -2.24772,25.1271 -3.42423,47.43055 -2.92355,55.42211 -4.04135,62.61999 -13.41497,86.38404 -5.3776,13.63327 -6.36965,17.77354 -4.25877,17.77354 0.61704,0 7.49796,-3.76976 15.29094,-8.37723 7.79299,-4.60747 14.48681,-8.37723 14.87517,-8.37723 0.38836,0 -1.15158,3.92683 -3.4221,8.72628 -2.27054,4.79945 -4.12873,9.60232 -4.12933,10.67306 -0.001,2.63772 14.04257,1.47762 39.79074,-3.28693 38.53358,-7.13043 52.71135,-11.76163 72.1722,-23.57515 5.88863,-3.57461 11.15213,-6.49929 11.69683,-6.49929 1.1217,0 1.1284,-0.0601 -5.6544,50.26334 -9.5549,70.88868 -14.61485,93.79191 -25.75655,116.58303 -10.09793,20.65591 -22.50495,32.25344 -50.01473,46.7516 -4.79947,2.52939 -8.82052,5.13965 -8.93572,5.80059 -0.1152,0.66092 -0.27225,1.85728 -0.34905,2.6586 -0.0768,0.80132 5.38162,3.3123 12.1299,5.57997 13.08247,4.3962 54.05017,23.42952 54.05017,25.11134 0,0.55256 -5.346,2.12656 -11.88,3.49775 -11.72865,2.46133 -15.77895,4.67675 -13.95262,7.63175 3.44032,5.56662 40.7174,21.63883 73.0355,31.4897 l 14.3921,4.38684 -17.0917,13.71956 c -30.5026,24.48449 -44.96753,37.70403 -71.14035,65.01506 -14.14628,14.76157 -31.44653,31.95352 -38.44493,38.20433 -12.9123,11.53297 -15.78112,13.21544 -49.87979,29.25284 -10.39702,4.88993 -16.31163,8.42745 -15.94241,9.53505 0.32283,0.96848 4.93373,2.89793 10.24646,4.28775 5.31274,1.38975 10.16511,3.02955 10.78307,3.64395 0.61794,0.61448 -1.72622,1.91505 -5.20924,2.89028 -9.76762,2.73472 -10.16161,4.21507 -3.28057,12.32572 28.75966,33.89918 42.90586,49.13753 51.85973,55.86375 2.8173,2.11635 3.43785,3.2187 2.0943,3.7203 -31.64049,11.81273 -70.59374,24.79815 -79.39959,26.46855 -6.31239,1.19745 -17.42165,2.17718 -24.68723,2.17718 -11.0677,0 -15.35191,-0.71018 -26.41598,-4.37895 -7.26321,-2.40848 -13.54476,-4.0401 -13.959,-3.62588 -0.41424,0.4143 0.64676,3.48435 2.35776,6.82238 4.43872,8.65957 26.47297,64.40819 25.74472,65.13644 -0.96864,0.9687 -12.00328,2.8941 -41.92289,7.31513 -42.27343,6.24645 -62.94225,5.1873 -79.58551,-4.07828 -12.84246,-7.14967 -12.41013,-7.32712 -11.39536,4.67768 0.48852,5.77912 0.70959,10.50749 0.49126,10.50749 -0.21831,0 -2.80589,-2.46697 -5.75018,-5.48219 z M 797.15292,834.67386 c 3.53406,-2.47537 4.14033,-6.20377 1.00876,-6.20377 -1.1635,0 -2.0943,-1.24103 -2.0943,-2.7924 0,-2.12213 -0.93081,-2.7924 -3.87794,-2.7924 -7.54877,0 -13.40845,7.13392 -7.42067,9.03442 1.46488,0.46493 3.0159,1.76385 3.44668,2.88645 1.02074,2.66003 5.03577,2.60055 8.93747,-0.1323 z"
     id="path142"
     inkscape:connector-curvature="0" />
  <path
     style="fill:#55ffdd;stroke-width:1.39620399"
     d="m 663.07894,994.99243 c -2.11175,-2.20957 -3.83955,-4.49752 -3.83955,-5.08432 0,-0.5868 3.71351,-6.29213 8.25226,-12.67845 18.39288,-25.88003 30.39221,-48.1254 40.69783,-75.44902 2.89836,-7.6845 8.44023,-21.19718 12.31525,-30.0282 8.54061,-19.46363 10.38206,-29.36955 13.49584,-72.59963 1.24438,-17.27632 2.89328,-32.1716 3.66425,-33.10055 1.58345,-1.90794 8.17225,-1.04736 13.86575,1.81103 5.23725,2.62933 7.59354,6.8867 15.92394,28.77185 4.09088,10.74727 8.85622,21.05017 10.58966,22.89532 3.52579,3.753 8.24978,4.4709 8.24978,1.2537 0,-2.49742 -12.11855,-35.6478 -17.24646,-47.1777 -3.84226,-8.63926 -3.91267,-8.47911 4.35619,-9.90903 9.77121,-1.68969 25.56791,-10.94548 36.94215,-21.64554 14.64407,-13.77609 19.55597,-21.36155 25.62337,-39.57026 3.22574,-9.6807 5.95592,-15.56096 7.64447,-16.46464 1.61241,-0.86294 15.56046,-1.26133 36.12297,-1.03175 l 33.49636,0.37397 -5.52705,7.24672 c -6.28838,8.24486 -6.77753,10.20583 -2.54595,10.20583 4.5981,0 27.73537,-23.71961 27.73537,-28.4335 0,-2.58809 -0.72457,-3.66759 -2.44335,-3.64007 -1.34385,0.0215 -21.6063,0.90933 -45.02759,1.97294 -23.42132,1.06359 -42.85137,1.6689 -43.1779,1.34515 -0.32653,-0.32377 -1.02571,-10.47889 -1.55375,-22.56694 -0.83672,-19.15478 -1.44235,-23.21774 -4.71421,-31.62618 -5.3372,-13.71622 -9.5969,-20.42156 -18.05479,-28.42067 -12.21654,-11.55388 -26.30703,-17.0815 -43.54263,-17.0815 -11.60785,0 -16.59569,1.43767 -27.18091,7.83449 -7.96592,4.81394 -24.93617,11.71237 -28.81259,11.71237 -2.81268,0 -2.1756,-4.95698 4.55488,-35.44063 2.69302,-12.19717 4.38343,-22.67622 3.75646,-23.28678 -0.62695,-0.61056 -4.22853,-0.52616 -8.00348,0.18756 -3.77496,0.71373 -7.10392,1.05735 -7.39765,0.7636 -0.29375,-0.29373 0.10206,-8.30496 0.87951,-17.80269 0.77746,-9.49774 1.58701,-22.95654 1.79898,-29.90842 0.37464,-12.28724 0.2644,-12.7935 -3.95261,-18.15066 -6.63909,-8.43405 -9.90584,-15.82674 -15.20151,-34.40109 -2.67128,-9.36948 -5.37926,-17.55778 -6.01772,-18.19624 -0.63846,-0.63845 -9.2796,-2.07028 -19.20254,-3.18182 -9.92293,-1.11155 -21.72283,-2.98866 -26.22197,-4.17136 -4.49914,-1.18268 -15.1801,-4.003 -23.73547,-6.26734 -22.06112,-5.83892 -31.34504,-7.0599 -63.72424,-8.38072 L 527.29811,394.5037 491.975,406.35865 c -26.61056,8.93089 -35.77974,11.47598 -37.17443,10.31848 -1.01823,-0.84505 -2.63078,-4.32038 -3.58344,-7.72294 -2.52756,-9.02754 -5.45607,-11.22197 -12.14139,-9.09795 -10.89317,3.46092 -45.57722,24.96783 -60.1505,37.29816 -4.04595,3.42324 -16.29764,14.72576 -27.22598,25.11668 -10.92834,10.39093 -25.83848,23.75591 -33.13365,29.69994 -25.01662,20.38334 -34.14357,32.80827 -35.80976,48.74952 -0.71587,6.84915 -0.3307,9.35561 2.26018,14.70764 l 3.12311,6.4515 -3.17014,7.98591 c -4.68601,11.8046 -10.74532,23.62026 -16.11932,31.43266 -5.849,8.50297 -8.23172,16.65665 -10.77565,36.87442 -1.86261,14.80305 -2.38252,16.37673 -9.68683,29.32028 -10.39918,18.42781 -11.36699,21.95074 -10.33714,37.62865 l 0.85146,12.96244 -5.19553,1.36172 c -2.85755,0.74895 -12.42089,2.03441 -21.25188,2.85659 l -16.05635,1.49486 -6.28292,-6.92108 c -3.4556,-3.8066 -10.52388,-11.58375 -15.70729,-17.28254 -5.18341,-5.6988 -9.42438,-10.69263 -9.42438,-11.09739 0,-0.40477 6.43999,-3.42009 14.31109,-6.70071 7.8711,-3.28064 18.70914,-8.47118 24.08452,-11.53454 13.51292,-7.70084 35.6032,-22.00505 35.6032,-23.05429 0,-0.47633 -3.8715,-4.77225 -8.60333,-9.54653 l -8.60333,-8.68047 4.06567,-0.86907 c 2.23611,-0.47798 5.47932,-1.15575 7.20713,-1.50615 1.7278,-0.35041 3.14146,-1.51282 3.14146,-2.58314 0,-1.07032 -4.78324,-9.06907 -10.62942,-17.775 -13.22045,-19.68744 -22.20899,-37.51621 -29.67883,-58.86793 -8.80812,-25.17704 -26.24675,-87.0381 -24.91223,-88.37262 0.29872,-0.29872 3.87203,0.0882 7.9407,0.8598 16.74712,3.17602 29.50148,0.92477 68.12688,-12.02494 18.72987,-6.27945 30.94067,-9.53352 40.19201,-10.71084 7.3087,-0.93009 13.41801,-2.31936 13.57623,-3.08728 0.15822,-0.76791 -2.6697,-2.99345 -6.28428,-4.94562 -6.42309,-3.46901 -13.65254,-9.33326 -13.65254,-11.0744 0,-0.48021 4.71219,-2.25946 10.47153,-3.95389 5.75934,-1.69442 10.46712,-3.54809 10.46172,-4.11926 -0.005,-0.57118 -3.79462,-5.75069 -8.4205,-11.51003 -16.34405,-20.34875 -20.40806,-33.84273 -19.06221,-63.29334 1.41396,-30.9412 7.80204,-59.44483 23.83356,-106.34545 9.55093,-27.94146 14.31351,-39.81788 15.94107,-39.75217 0.54002,0.0217 16.41896,15.25788 35.28658,33.85794 32.73291,32.26878 34.61308,34.41006 41.03414,46.7332 3.70117,7.10319 7.266,12.91489 7.92184,12.91489 0.65584,0 4.93477,-7.88235 9.50873,-17.51631 10.22196,-21.53012 16.8084,-28.79282 51.03577,-56.27581 27.20895,-21.84754 50.22707,-43.51476 63.03533,-59.33584 l 8.87295,-10.9602 v 12.623 c 0,6.9427 0.52134,12.94522 1.15851,13.33901 1.40473,0.86817 21.58688,-14.24991 45.85833,-34.35171 19.66499,-16.2866 57.3501,-53.8408 72.29746,-72.0462 5.23954,-6.3816 10.01254,-11.0938 10.60663,-10.4715 0.59411,0.6223 4.01764,8.8865 7.60787,18.365 12.13812,32.0455 17.09202,41.4499 52.33339,99.34942 24.81504,40.76965 31.48166,54.69653 35.08799,73.30071 2.10041,10.83549 1.71864,33.56462 -0.80592,47.98168 -1.2594,7.19213 -1.93717,13.42923 -1.50616,13.86026 0.43102,0.43102 2.50492,-0.77386 4.60867,-2.67752 25.65687,-23.21651 22.50931,-21.23137 81.17996,-51.19917 l 42.44987,-21.68253 -0.92503,5.78475 c -0.50875,3.18161 -2.1737,25.74505 -3.69988,50.14096 -3.15411,50.41844 -4.90763,61.85423 -12.6417,82.44452 -5.63427,15.00007 -6.62001,19.85417 -4.03182,19.85417 0.80862,0 7.45543,-3.45561 14.7707,-7.67913 7.31526,-4.22352 13.53029,-7.67912 13.81118,-7.67912 0.28091,0 -1.02543,3.47352 -2.90296,7.71893 -5.41734,12.24957 -5.32382,12.38118 8.10501,11.40747 14.56961,-1.05642 46.79546,-6.93126 63.17824,-11.51749 13.12327,-3.67378 28.83975,-10.51358 40.16185,-17.47837 3.6591,-2.25092 6.9577,-4.09258 7.33,-4.09258 1.3964,0 0.5433,8.94608 -4.2543,44.61838 -11.2406,83.57935 -17.57803,108.80341 -33.26473,132.39957 -7.815,11.75542 -16.5612,19.22021 -36.41752,31.08202 -8.49278,5.07344 -15.62918,10.19579 -15.85868,11.38302 -0.30382,1.57176 3.68168,3.77855 14.6601,8.11738 21.3762,8.44812 50.97915,22.60274 49.68158,23.75516 -0.6024,0.53503 -5.4813,2.04522 -10.842,3.35597 -16.35645,3.99933 -17.23808,6.82686 -4.37198,14.022 11.00963,6.15691 45.97333,20.12578 63.33493,25.30386 7.1032,2.11853 12.9149,4.33635 12.9149,4.92848 0,0.59213 -9.5815,8.78956 -21.2921,18.21651 -13.6511,10.98897 -36.82468,32.46314 -64.57445,59.83899 -23.8053,23.4845 -45.44475,44.23354 -48.08768,46.10906 -2.64292,1.87545 -16.15122,9.1365 -30.01839,16.13565 -13.86719,6.99915 -25.21304,13.53623 -25.21304,14.5269 0,0.99068 3.4556,2.9649 7.67912,4.3872 12.53959,4.22288 12.3832,4.04235 5.93386,6.8502 -3.97452,1.7304 -5.93386,3.4542 -5.93386,5.22045 0,3.29888 23.5792,30.98903 43.40046,50.96723 13.6473,13.75537 14.70855,15.19312 11.96633,16.21102 -43.46425,16.134 -73.24762,25.08855 -88.83654,26.70938 -15.37176,1.59825 -21.02238,1.03365 -38.81662,-3.87855 -7.12123,-1.96583 -13.31006,-3.21188 -13.75295,-2.769 -0.44287,0.44287 2.63187,8.85765 6.83275,18.69959 9.27587,21.73155 20.91266,52.2201 20.20238,52.93035 -0.75773,0.75773 -31.26642,5.73113 -50.32029,8.20305 -9.0623,1.17563 -23.87019,2.13758 -32.90643,2.13758 -18.00865,0 -26.15491,-1.75628 -39.58484,-8.53425 -4.39361,-2.21738 -8.29173,-4.03163 -8.66249,-4.03163 -0.37077,0 -0.8599,4.1295 -1.08697,9.1767 l -0.41284,9.1767 z M 797.7027,834.53661 c 3.09752,-2.8032 3.28497,-5.487 0.45898,-6.57142 -1.15186,-0.44198 -2.0943,-1.7658 -2.0943,-2.9418 0,-2.94983 -8.09377,-2.82743 -11.40874,0.17265 -3.46404,3.13485 -3.22217,4.71585 1.28626,8.4072 4.59836,3.76492 8.30391,4.05915 11.7578,0.93337 z"
     id="path144"
     inkscape:connector-curvature="0" />
  <path
     style="fill:#87decd;stroke-width:1.39620399"
     d="m 533.58103,1045.6011 c 0,-0.4419 3.39224,-4.8022 7.53832,-9.6896 7.69257,-9.0679 8.34679,-10.3389 9.80969,-19.0584 0.89629,-5.3421 6.69547,-11.9195 11.19143,-12.6931 2.11928,-0.3647 2.98559,0.6724 3.97607,4.7602 2.71911,11.2219 15.42192,15.6063 27.4449,9.4726 10.80383,-5.5117 14.016,-13.5781 11.64141,-29.23394 l -1.39552,-9.20063 8.76238,-9.32872 c 14.55265,-15.49328 16.14701,-19.18343 17.30877,-40.0605 0.5461,-9.81345 1.43255,-18.55402 1.9699,-19.4235 0.53736,-0.8694 6.39702,-5.11372 13.02148,-9.43177 20.98887,-13.68128 35.93352,-30.2973 43.27245,-48.11198 7.67059,-18.61972 0.65372,-38.39062 -17.01519,-47.94232 -8.32836,-4.50225 -31.04027,-4.33958 -44.67853,0.3201 -16.13788,5.51355 -32.0285,14.22015 -61.43297,33.65947 -38.54489,25.48208 -56.46621,34.17825 -85.78226,41.62515 -13.69114,3.47775 -16.78912,3.74055 -43.36661,3.67868 l -28.62218,-0.0668 -27.92409,-7.3995 c -32.23893,-8.54288 -40.58517,-8.94638 -53.05574,-2.56485 -23.39308,11.97075 -25.37691,33.49987 -5.3054,57.57554 3.84118,4.60748 7.70795,9.7536 8.59283,11.43585 1.86306,3.54188 8.58598,28.04295 8.5469,31.1484 -0.0145,1.15185 -5.19632,-5.7693 -11.51516,-15.38025 -6.31884,-9.61095 -15.81402,-22.49092 -21.1004,-28.62217 -5.28638,-6.13125 -11.25515,-14.60325 -13.26394,-18.8268 -3.45388,-7.2618 -3.65637,-8.89305 -3.72647,-30.01837 l -0.0741,-22.33928 -5.79404,-16.75447 c -8.84503,-25.5768 -15.72689,-63.99953 -15.68223,-87.5567 l 0.0166,-8.7813 4.64606,8.37722 c 8.08448,14.57695 19.58949,17.92585 40.70172,11.84763 5.37294,-1.54688 19.50751,-3.68594 31.41014,-4.75345 11.90264,-1.06752 23.24732,-2.56739 25.21038,-3.33307 9.31182,-3.63195 14.19467,-10.68688 18.68615,-26.99848 1.73829,-6.31292 4.09422,-9.99809 11.85203,-18.53909 10.73853,-11.82264 13.40761,-17.70909 12.15931,-26.81649 -1.10266,-8.04466 -4.39536,-14.24167 -14.70778,-27.68061 -7.81925,-10.1899 -8.52356,-11.68578 -8.5458,-18.15065 -0.0384,-11.15317 -3.67028,-25.68104 -7.7609,-31.04411 -2.01972,-2.64798 -6.21491,-6.65644 -9.32265,-8.90768 -5.62133,-4.07207 -5.75322,-4.09315 -25.59747,-4.09315 -15.11021,0 -22.76156,-0.67475 -31.55415,-2.78262 -6.38393,-1.53045 -14.1203,-2.79666 -17.19195,-2.8138 -9.90977,-0.0553 -10.2022,-1.06196 -4.21304,-14.50311 5.04399,-11.31999 5.60275,-12.01073 10.35715,-12.80354 9.15751,-1.52706 18.7574,-5.04612 40.61435,-14.88817 62.51864,-28.15176 110.26223,-43.14461 145.37933,-45.65326 34.12616,-2.43788 82.8719,1.90764 126.19672,11.25 10.75077,2.31825 25.20149,5.41654 32.11269,6.8851 17.67934,3.75667 29.6813,3.59656 35.72544,-0.47658 12.85379,-8.66217 10.5994,-26.56222 -5.2429,-41.62905 -15.93451,-15.15452 -37.88831,-25.32955 -73.76486,-34.18814 -26.02806,-6.42682 -46.6025,-8.09891 -87.26275,-7.09192 -37.5654,0.93036 -47.24665,1.96964 -80.73002,8.66637 -29.20095,5.84023 -44.16928,9.95309 -63.16459,17.35579 -7.89957,3.07855 -14.58678,5.37343 -14.86048,5.09972 -1.71455,-1.71455 34.05259,-30.88616 53.5304,-43.65927 12.35342,-8.1011 28.26868,-16.12551 29.93728,-15.09426 0.5751,0.35543 1.45836,3.31319 1.96281,6.57279 0.50445,3.2596 1.5583,7.99282 2.34191,10.51827 1.68143,5.41907 -1.97503,6.12538 34.71574,-6.70594 43.28811,-15.13853 47.14727,-15.97517 73.26635,-15.8837 28.90429,0.10123 36.35547,1.41756 94.94188,16.77252 6.91121,1.81136 16.64973,3.30893 21.64116,3.32793 4.99143,0.019 9.80843,0.50091 10.70445,1.07094 0.89601,0.57001 2.96113,6.25338 4.58915,12.6297 4.2396,16.60488 7.78267,25.37439 13.41028,33.19208 l 4.93309,6.85291 -0.89242,21.64116 c -0.49085,11.90264 -1.84237,26.03921 -3.00338,31.41459 -1.16101,5.37539 -2.44359,11.59196 -2.85017,13.81462 l -0.73924,4.04117 8.56529,-0.96905 c 7.18773,-0.81321 8.56527,-0.62465 8.56527,1.17236 0,4.28251 -7.2899,36.52839 -10.69465,47.30634 -2.52146,7.98184 -3.07025,11.48329 -1.97194,12.5816 2.41357,2.41358 39.86142,-10.70083 46.87359,-16.41535 11.13022,-9.0705 20.7117,-11.6162 34.41897,-9.14478 23.7178,4.27632 40.09908,21.54108 47.35411,49.90799 5.95926,23.30049 1.35769,59.77847 -10.34451,82.00403 -6.46754,12.28355 -20.59714,25.84824 -33.18816,31.86129 -13.23401,6.3201 -21.85168,7.73237 -41.98442,6.88042 l -16.30986,-0.69017 -0.76921,4.70969 c -0.42305,2.59034 -1.76284,18.53213 -2.97727,35.42618 -3.52054,48.97448 -4.89589,57.33428 -11.75134,71.42873 -3.2305,6.64177 -8.4116,19.04737 -11.51355,27.56797 -15.07705,41.41455 -34.01235,72.2745 -62.52005,101.8926 -7.30437,7.58884 -17.36456,16.91404 -22.35599,20.72254 -14.18068,10.8199 -34.21371,19.8948 -54.45195,24.6663 -20.39839,4.8093 -27.92408,6.1729 -27.92408,5.0598 z M 441.07204,834.75104 c 16.22192,-3.82485 35.26463,-14.44598 35.26463,-19.66898 0,-3.09247 -3.26587,-2.38395 -16.51942,3.5838 -29.09716,13.10175 -45.58603,12.50475 -52.42054,-1.89795 -2.6687,-5.6238 -3.0068,-20.28577 -0.68985,-29.91472 1.89435,-7.87253 10.90812,-27.7409 16.63234,-36.66132 5.12266,-7.98298 5.32019,-11.07881 0.70689,-11.07881 -4.30553,0 -9.83003,7.74873 -18.35473,25.74454 -6.90735,14.58154 -8.94189,23.15306 -8.93054,37.62424 0.0105,13.43602 1.98083,19.59967 8.27843,25.89727 8.18878,8.1888 19.69637,10.22378 36.03279,6.37193 z M 605.49563,719.70559 c 3.46268,-1.53171 9.275,-5.28019 12.91626,-8.32996 6.28074,-5.26046 7.337,-5.6256 20.58254,-7.1152 19.69962,-2.21541 27.63654,-4.90597 33.44803,-11.33858 6.99938,-7.74749 8.22506,-13.8844 6.12835,-30.68487 -1.54014,-12.34084 -1.4667,-14.99565 0.63274,-22.87461 5.34758,-20.06877 2.03106,-33.03001 -10.9618,-42.83973 -7.65284,-5.77793 -7.92917,-6.34642 -9.74577,-20.04895 -1.16756,-8.80684 -3.41828,-13.13975 -9.68241,-18.63972 -6.65392,-5.8422 -9.94775,-6.46167 -25.73084,-4.83913 -14.42578,1.48302 -15.53472,1.25314 -28.04713,-5.81392 -4.70832,-2.65926 -8.27173,-3.53641 -14.36671,-3.53641 -10.50391,0 -17.24463,3.45677 -25.00307,12.82207 -7.80106,9.41677 -14.30083,15.92669 -22.4369,22.47185 -14.06797,11.3172 -17.46114,23.98566 -12.34941,46.10676 2.53767,10.98182 2.78784,14.21977 1.53173,19.82476 -1.87473,8.36549 -1.99192,32.45731 -0.18103,37.2203 1.98022,5.20837 12.13187,13.31174 19.91516,15.89696 3.72638,1.23769 12.38882,6.40446 19.2499,11.48169 6.86106,5.07724 15.19012,10.36992 18.50903,11.76151 7.28135,3.05303 16.48162,2.50484 25.59133,-1.52482 z m 172.4211,-44.27787 c 0,-3.3315 -11.41007,-11.45644 -19.68623,-14.01825 -9.75222,-3.01872 -9.75564,-3.05733 -1.72803,-19.52014 9.09023,-18.64197 19.13301,-27.03842 32.33997,-27.03842 8.09298,0 12.09612,2.65111 17.91793,11.86621 2.78169,4.40303 4.90587,6.2802 7.10861,6.28194 3.88652,0.003 4.02014,-2.85825 0.48888,-10.46903 -4.05715,-8.74419 -10.98237,-14.44723 -19.77217,-16.2827 -17.45516,-3.64494 -33.25678,6.88627 -44.33335,29.54664 -6.42832,13.15101 -9.56779,23.4844 -8.21,27.02276 0.99328,2.58845 4.42051,4.28052 13.10632,6.4708 3.21977,0.81192 8.8744,3.91122 12.56583,6.88732 5.95952,4.80467 6.90732,5.16233 8.45698,3.19132 0.95989,-1.22088 1.74526,-2.99319 1.74526,-3.93845 z"
     id="path146"
     inkscape:connector-curvature="0" />
  <path
     style="fill:#87decd;stroke-width:1.39620399"
     d="m 663.07894,994.99243 c -2.11175,-2.20957 -3.83955,-4.38465 -3.83955,-4.83352 0,-0.44895 5.95695,-9.66878 13.23768,-20.48858 15.21028,-22.60372 25.04007,-41.49982 36.88234,-70.90004 4.59358,-11.4042 10.56315,-26.0829 13.26572,-32.61938 6.1802,-14.9475 8.53604,-29.03392 11.32217,-67.6992 1.39167,-19.31332 2.83712,-31.3349 3.89358,-32.38233 1.25133,-1.24064 3.39521,-1.29617 8.39873,-0.21753 8.69603,1.87465 12.79896,7.38869 19.835,26.65671 5.78097,15.83108 9.66771,24.23475 12.91929,27.93338 2.55389,2.90505 7.30005,3.246 7.30005,0.52447 0,-2.06527 -13.14765,-37.7433 -17.96386,-48.74748 -2.13404,-4.8759 -2.46093,-6.81716 -1.20747,-7.17063 0.94533,-0.26655 4.54609,-1.24593 8.0017,-2.17637 12.6018,-3.39313 25.39081,-11.40623 37.87819,-23.73308 13.13235,-12.96352 17.70051,-20.55575 24.17672,-40.18155 2.28489,-6.92418 4.83742,-12.08561 6.38691,-12.91489 1.49749,-0.80142 16.71897,-1.3813 36.25852,-1.3813 h 33.67751 l -5.6616,7.90641 c -6.4497,9.0068 -6.789,10.24424 -2.80942,10.24424 3.8304,0 25.9584,-21.91704 27.2256,-26.96601 0.53572,-2.13429 0.69892,-4.1556 0.3627,-4.49181 -0.33623,-0.3362 -20.655,0.2881 -45.1528,1.38734 -24.49784,1.09923 -44.84264,1.69751 -45.21065,1.32948 -0.36803,-0.36803 -1.09216,-10.23036 -1.60917,-21.91631 -0.63603,-14.3756 -1.72129,-23.50494 -3.35571,-28.22822 -11.29447,-32.63978 -33.33141,-49.56524 -64.53393,-49.56524 -9.4938,0 -11.03329,0.45943 -23.55585,7.02993 -14.4695,7.59203 -26.37743,12.5151 -30.27423,12.51623 -1.45267,4.2e-4 -2.44336,-1.05366 -2.44336,-2.5997 0,-2.57219 5.83323,-32.27178 8.23996,-41.95331 0.6852,-2.75634 1.62693,-7.14322 2.09271,-9.74861 l 0.84692,-4.73709 -8.58103,0.89689 -8.58104,0.8969 0.92359,-8.72565 c 0.50796,-4.7991 1.32453,-18.31782 1.8146,-30.04159 l 0.89103,-21.31593 -4.22104,-5.91005 c -6.85491,-9.5978 -10.22614,-17.32367 -15.33728,-35.14858 -2.6552,-9.2599 -5.25928,-17.28396 -5.78683,-17.83124 -0.52755,-0.54728 -9.19195,-1.95712 -19.25421,-3.13299 -10.06227,-1.17587 -24.19086,-3.72622 -31.39689,-5.66747 -38.25657,-10.30601 -55.81722,-12.85084 -92.68548,-13.43169 L 525.90191,395.14908 491.15,406.67093 c -38.65598,12.81625 -36.29534,12.74772 -40.54118,1.1768 -3.83934,-10.46319 -5.95295,-10.80293 -20.88182,-3.35649 -15.2112,7.58729 -38.83174,22.84758 -50.42652,32.57862 -4.60747,3.86688 -16.85916,15.08489 -27.22597,24.92894 -10.36682,9.84404 -25.83611,23.72202 -34.37622,30.83994 -24.64811,20.54345 -33.03141,32.13933 -34.8825,48.24992 -0.75436,6.56545 -0.3752,9.01939 2.22287,14.3863 3.08107,6.36462 3.09207,6.57803 0.67158,13.02738 -3.51566,9.3674 -11.50511,25.10373 -16.27348,32.05291 -6.33357,9.2302 -7.77292,13.84545 -10.74613,34.45729 -2.62854,18.22247 -3.12407,19.8204 -9.91452,31.9715 -10.33548,18.4947 -11.76863,23.70102 -10.63994,38.65256 l 0.93619,12.40144 -5.28095,1.4047 c -2.90453,0.77259 -12.50631,2.12177 -21.3373,2.99817 l -16.05635,1.59344 -8.09136,-8.86603 c -17.46991,-19.14251 -23.69779,-26.40944 -23.12455,-26.98268 0.32881,-0.3288 7.80105,-3.77763 16.60498,-7.66407 14.40428,-6.35865 45.41439,-23.8949 54.40275,-30.76479 l 3.4905,-2.66784 -8.95238,-9.05465 -8.95238,-9.05463 4.06567,-0.86907 c 2.23611,-0.47798 5.47932,-1.15575 7.20713,-1.50615 1.7278,-0.35041 3.14146,-1.36239 3.14146,-2.24887 0,-0.88648 -4.96497,-9.19937 -11.03326,-18.47311 -15.40259,-23.53866 -22.95854,-39.3712 -32.35133,-67.78805 -8.88217,-26.87205 -22.93837,-77.98618 -21.76782,-79.15672 0.40388,-0.4039 3.95007,-0.0447 7.88042,0.79822 15.73305,3.37414 26.65062,1.46417 67.03116,-11.72672 15.3122,-5.00195 32.73168,-9.75181 38.70993,-10.55524 17.86692,-2.40117 18.94248,-3.17863 10.55775,-7.63163 -5.69263,-3.02325 -14.34833,-10.12093 -14.34833,-11.76561 0,-0.57 4.71219,-2.40553 10.47153,-4.07899 5.75934,-1.67344 10.47153,-3.34675 10.47153,-3.71845 0,-0.37169 -4.07259,-6.01343 -9.0502,-12.53718 -4.9776,-6.52376 -10.26994,-14.25229 -11.76075,-17.17451 -13.25727,-25.98639 -7.82741,-78.3311 15.19071,-146.44096 9.37912,-27.75246 15.78375,-44.07378 17.50078,-44.59818 0.76088,-0.23238 16.81785,14.79619 35.68217,33.39681 31.29779,30.86031 34.88741,34.89117 41.02651,46.06963 3.70026,6.73765 7.17595,12.52729 7.72375,12.86586 0.54782,0.33857 4.88847,-7.30506 9.64587,-16.98584 10.40713,-21.17723 17.4318,-29.05242 47.55552,-53.31334 34.4922,-27.77917 58.79949,-50.92936 70.37811,-67.02786 l 4.38688,-6.0994 0.40146,12.7314 c 0.30126,9.5542 0.87147,12.7313 2.28494,12.7313 2.07089,0 19.96181,-13.3669 42.69024,-31.8954 17.42716,-14.2069 59.5727,-55.9369 73.96809,-73.2389 5.62248,-6.7577 10.71144,-11.7841 11.3088,-11.1696 0.59739,0.6144 3.39873,7.4 6.22525,15.0791 8.29592,22.5386 22.76416,51.2806 40.44913,80.3545 36.47592,59.96604 42.20306,70.83522 46.89924,89.00721 3.47908,13.46229 3.77435,36.20305 0.70946,54.63869 -1.20455,7.24548 -1.91837,13.44531 -1.58627,13.7774 0.3321,0.3321 6.03555,-4.22887 12.67435,-10.13549 6.63878,-5.90663 15.30854,-12.80417 19.26609,-15.32788 6.54995,-4.17684 82.75328,-43.84963 92.15036,-47.97508 l 3.97494,-1.74506 -0.85747,6.66372 c -0.47159,3.66505 -2.12069,26.33375 -3.66465,50.37489 -3.19464,49.74412 -4.56334,58.5163 -12.82463,82.19464 -3.26254,9.35105 -5.48326,17.45052 -4.93494,17.99885 0.54833,0.54832 7.31744,-2.54741 15.04247,-6.87942 7.72503,-4.33201 14.33013,-7.87637 14.67798,-7.87637 0.34787,0 -0.93033,3.53378 -2.84042,7.85285 -5.43313,12.28528 -5.45487,12.25752 8.74388,11.17177 15.44351,-1.18095 56.94296,-9.47731 71.54186,-14.3023 6.11228,-2.02012 17.22623,-7.05052 24.69773,-11.17865 7.4715,-4.12814 13.7702,-7.50571 13.9971,-7.50571 1.6817,0 -4.4301,49.64161 -11.5173,93.54567 -11.15048,69.07535 -23.44418,91.74064 -62.052,114.40233 -14.2011,8.33564 -17.75093,11.54812 -15.06143,13.63021 0.97928,0.75812 7.74923,3.73115 15.0444,6.60675 18.07313,7.12406 48.92625,21.90657 48.19418,23.09109 -0.32768,0.53019 -4.23713,1.77204 -8.6877,2.75967 -8.925,1.98053 -15.771,5.0275 -15.771,7.01923 0,5.20187 38.23297,22.43405 74.34785,33.50969 5.9514,1.82515 10.8206,3.78605 10.8206,4.35757 0,0.57151 -6.7541,6.54556 -15.0092,13.27564 -25.055,20.42652 -34.31083,28.95593 -77.14018,71.08559 l -41.18812,40.51536 -27.22598,13.93658 c -16.68608,8.54137 -27.22598,14.73045 -27.22598,15.98722 0,1.19228 2.92194,3.1104 6.98102,4.58265 3.83956,1.3926 7.92346,2.89425 9.07533,3.33683 1.40917,0.54157 0.15309,1.65 -3.83957,3.38827 -3.26362,1.42095 -5.93386,3.51008 -5.93386,4.64258 0,3.8598 34.22983,43.722 50.39819,58.69102 l 8.32417,7.70678 -5.14357,2.14905 c -10.63245,4.44255 -67.17622,22.86885 -75.21995,24.51255 -15.48412,3.16395 -34.6137,2.42527 -50.06281,-1.93305 -7.56882,-2.13525 -13.9968,-3.64695 -14.28438,-3.3594 -0.28759,0.28762 3.56577,10.49309 8.56304,22.67894 11.92732,29.08478 19.09838,48.32475 18.30658,49.11653 -0.81165,0.81165 -28.65548,5.36452 -49.62952,8.11515 -8.85281,1.161 -23.70466,2.11095 -33.0041,2.11095 -18.52221,0 -26.53598,-1.70708 -40.0634,-8.53425 -4.39361,-2.21738 -8.29173,-4.03163 -8.66249,-4.03163 -0.37077,0 -0.8599,4.1295 -1.08697,9.1767 l -0.41284,9.1767 z M 797.15292,834.67386 c 3.58074,-2.50807 4.03761,-5.5464 1.00876,-6.70867 -1.15186,-0.44198 -2.0943,-1.7658 -2.0943,-2.9418 0,-2.84813 -6.7737,-2.82608 -10.85896,0.0353 -4.07652,2.85532 -3.91436,4.73655 0.73648,8.54445 4.57549,3.74625 7.05053,3.98272 11.20802,1.0707 z"
     id="path148"
     inkscape:connector-curvature="0" />
  <path
     style="fill:#e9c6af;stroke-width:1.39620399"
     d="m 534.97723,1044.9106 c 0,-0.588 3.00227,-4.8249 6.67172,-9.4154 4.22011,-5.2792 7.40849,-11.0518 8.67672,-15.7091 2.09661,-7.6994 7.94723,-15.3943 11.70472,-15.3943 1.2482,0 3.42906,2.7038 5.04892,6.2597 4.62547,10.1535 13.37943,12.9657 24.44418,7.8527 12.37542,-5.7187 14.90793,-11.109 13.74932,-29.26479 l -0.68136,-10.67738 7.7771,-7.6314 c 4.27743,-4.1973 7.77712,-8.43825 7.77712,-9.42442 0,-0.9861 0.65062,-1.79295 1.44583,-1.79295 2.9504,0 6.56002,-12.3417 8.16701,-27.92408 2.18352,-21.17249 2.21952,-21.30074 6.73508,-23.99114 2.14338,-1.27703 5.15362,-3.46973 6.68945,-4.87268 1.53582,-1.40287 5.33679,-4.2768 8.44658,-6.38632 12.58602,-8.538 27.484,-25.57988 34.89286,-39.9141 5.10564,-9.87818 5.59739,-24.5715 1.10579,-33.04155 -3.84476,-7.25025 -11.29728,-15.08828 -17.29547,-18.19005 -5.04049,-2.60655 -26.92989,-3.53145 -35.52698,-1.50113 -6.99959,1.653 -8.36271,2.0133 -8.72628,2.30633 -0.19198,0.15472 -0.82027,0.41257 -1.3962,0.57285 -10.09561,2.81055 -34.87524,16.83945 -76.44217,43.27747 -24.8747,15.82118 -45.70979,25.0443 -69.71092,30.85913 -12.6179,3.057 -17.07112,3.40665 -43.3816,3.40635 -28.18565,-3e-4 -29.92598,-0.16268 -44.97194,-4.19603 -33.68631,-9.0303 -48.99714,-10.9251 -58.089,-7.18875 -2.16175,0.88845 -4.24757,1.61528 -4.63515,1.61528 -0.38759,0 -3.47341,1.90492 -6.85738,4.23315 -13.33012,9.17137 -16.59659,22.78785 -9.21145,38.39842 2.19204,4.6335 4.88073,9.34575 5.97486,10.47157 6.3882,6.57323 13.51944,20.03333 16.51043,31.16318 1.79225,6.66915 2.92345,12.46095 2.51377,12.8706 -0.40967,0.40972 -4.9084,-5.26853 -9.99717,-12.61823 -5.08878,-7.3497 -14.04974,-19.4775 -19.91325,-26.95065 -16.16337,-20.60054 -17.02268,-23.06789 -17.37489,-49.88894 -0.25821,-19.66155 -0.6939,-23.427 -3.63498,-31.41458 -5.02326,-13.64235 -11.19195,-37.83277 -14.24163,-55.84815 -2.96681,-17.52585 -5.31996,-47.37636 -3.60798,-45.76835 0.58818,0.55247 3.02586,3.9575 5.41706,7.56676 6.96593,10.51431 10.44103,12.38007 22.95179,12.32267 5.89388,-0.0271 11.97272,-0.57907 13.50854,-1.22671 1.53583,-0.64764 4.049,-1.3296 5.58482,-1.51548 21.0431,-2.54672 49.92611,-6.69178 53.75385,-7.71433 7.29107,-1.94775 14.67474,-12.55379 19.41936,-27.89431 0.83202,-2.6901 5.84276,-10.36073 11.13498,-17.04584 16.99397,-21.46672 16.79775,-26.99706 -1.91634,-54.01153 -7.35457,-10.61656 -8.20634,-12.61517 -9.21766,-21.62837 -2.09214,-18.64588 -4.14884,-24.23154 -12.00437,-32.60195 -7.18278,-7.65357 -9.68481,-8.48017 -26.26472,-8.67724 -8.44703,-0.10038 -22.5836,-1.18652 -31.41459,-2.41363 -8.83099,-1.22711 -18.87649,-2.61461 -22.32334,-3.08333 -8.16914,-1.1109 -8.4967,-3.23794 -2.45479,-15.94029 4.60847,-9.68873 5.01964,-10.1121 11.63624,-11.98171 9.30594,-2.62953 27.45564,-9.68426 55.02801,-21.38917 64.65715,-27.44802 99.88023,-37.12349 139.88942,-38.42637 35.98363,-1.1718 73.21474,2.64946 119.10642,12.22462 11.51868,2.40335 22.82793,4.67245 25.13167,5.04247 2.30374,0.37001 6.07349,1.03729 8.37723,1.48285 2.30373,0.44555 9.34482,0.86519 15.64684,0.93252 13.20613,0.14112 18.01693,-2.24678 20.98725,-10.41725 5.01893,-13.80565 -4.5506,-30.47323 -24.76636,-43.13641 -4.22352,-2.64562 -7.99327,-5.21439 -8.37722,-5.70837 -1.17617,-1.51321 -9.77343,-5.60676 -9.77343,-4.65357 0,0.49199 -1.54863,-0.12016 -3.44139,-1.36035 -1.89277,-1.24019 -4.05088,-2.25489 -4.79582,-2.25489 -0.74493,0 -3.12315,-0.67246 -5.28489,-1.49436 -2.16175,-0.82189 -4.2446,-1.51812 -4.62855,-1.54716 -0.38396,-0.029 -2.89713,-0.87378 -5.58482,-1.87716 -2.68769,-1.0034 -6.77159,-2.29029 -9.07533,-2.85978 -2.30373,-0.56949 -4.81689,-1.24462 -5.58481,-1.50029 -5.88218,-1.95837 -27.03601,-6.15522 -35.6032,-7.06356 -11.8941,-1.26106 -70.40116,-1.11604 -87.26275,0.21631 -6.1433,0.48542 -12.11207,0.90188 -13.26394,0.92545 -2.93541,0.0601 -31.64686,5.1693 -38.39561,6.83253 -3.07165,0.757 -7.15555,1.66193 -9.07532,2.01096 -6.93707,1.26118 -25.9613,6.23691 -31.78308,8.31276 -3.27431,1.16752 -6.10163,2.10699 -6.28292,2.08771 -0.51196,-0.0545 -3.65175,0.95414 -15.20948,4.88566 -5.88019,2.00022 -11.16097,3.63676 -11.73508,3.63676 -3.44868,0 28.39024,-26.28131 48.01521,-39.63395 13.80156,-9.39047 30.54379,-18.06787 33.02396,-17.11614 0.9732,0.37344 2.18844,3.08526 2.70055,6.02623 0.51212,2.94098 1.6315,7.12665 2.48751,9.30149 1.42223,3.61341 1.98899,3.87399 6.57525,3.02297 2.76038,-0.51221 17.58994,-5.19938 32.9546,-10.41593 40.28573,-13.67766 44.76134,-14.4981 74.4705,-13.65156 25.61669,0.72993 33.25407,1.9251 67.93066,10.63046 23.60834,5.92673 37.28255,8.55412 44.51993,8.55412 6.37725,0 10.63012,2.55355 10.63012,6.38265 0,1.09701 0.60858,1.99457 1.3524,1.99457 0.74379,0 1.01512,0.87889 0.60291,1.95308 -0.4122,1.07419 -0.0783,2.36786 0.74193,2.8748 0.82025,0.50696 1.49138,2.00623 1.49138,3.33172 0,5.35253 6.98806,23.24103 11.81924,30.2557 l 5.14554,7.47109 -1.49827,22.78248 c -0.82406,12.53037 -2.44281,27.71063 -3.59721,33.73391 -1.15443,6.02328 -1.75164,11.51338 -1.32715,12.2002 0.42447,0.68683 3.40956,1.18307 6.6335,1.10276 10.31653,-0.257 10.97838,-0.0759 9.58512,2.62255 -0.69386,1.34384 -1.69847,4.95652 -2.23246,8.02817 -0.53399,3.07165 -3.12987,14.23985 -5.76858,24.81824 -2.63873,10.57839 -4.79769,20.8001 -4.79769,22.71492 0,3.0897 0.43209,3.37819 3.83956,2.56365 2.11175,-0.50481 4.93907,-1.48134 6.28292,-2.17004 1.34384,-0.68869 2.44335,-0.9251 2.44335,-0.52531 0,1.96717 27.78281,-9.55254 36.5197,-15.14231 11.3287,-7.248 15.97644,-8.47696 28.3135,-7.48665 35.30462,2.83391 58.12544,40.93052 52.54082,87.71059 -4.19544,35.14337 -15.74243,56.6065 -38.38778,71.35385 -13.10366,8.5335 -22.83964,10.88961 -45.53958,11.02057 l -19.39542,0.11198 -0.66851,4.43817 c -0.36768,2.44099 -0.69061,5.38062 -0.71761,6.53248 -0.16102,6.86969 -5.84186,67.90337 -7.05031,75.7471 -1.61177,10.46137 -3.22582,14.9442 -19.38112,53.82787 -18.11933,43.61077 -28.70346,61.59705 -52.60141,89.38905 -29.60455,34.42839 -53.95973,48.98849 -97.3372,58.19069 -8.25505,1.7513 -15.00919,2.703 -15.00919,2.1149 z M 440.03536,834.75771 c 1.91978,-0.47632 4.43294,-1.09537 5.58482,-1.37565 1.15186,-0.28035 2.25138,-0.55777 2.44335,-0.6165 0.19198,-0.0585 0.6538,-0.1254 1.02627,-0.14812 3.13424,-0.1911 23.67297,-12.16478 25.40754,-14.81205 2.919,-4.45493 1.57914,-5.50335 -4.04978,-3.1689 -2.52033,1.04527 -5.21072,2.00992 -5.97863,2.14365 -0.76791,0.13372 -6.42254,2.28532 -12.56584,4.78125 -14.02347,5.6976 -29.45949,7.20045 -36.27244,3.53137 -5.97258,-3.21645 -8.95578,-8.7552 -9.97677,-18.5235 -1.30038,-12.44145 1.53881,-22.8954 12.18302,-44.85784 9.32938,-19.24955 10.2488,-22.59836 6.20435,-22.59836 -4.63067,0 -17.03355,20.33943 -23.91037,39.21053 -2.86184,7.85332 -3.95161,32.71905 -1.71608,39.1566 1.99041,5.73165 8.5006,12.67087 15.11731,16.11367 4.93695,2.56875 18.44914,3.16208 26.50325,1.16385 z m 161.9773,-113.72095 c 1.92948,-0.60184 8.33202,-4.24329 14.22786,-8.09213 8.60876,-5.61986 12.31706,-7.17824 18.83112,-7.91359 25.04973,-2.82779 35.76803,-7.52307 41.19088,-18.04415 3.10175,-6.01784 3.39094,-10.09693 1.99015,-28.07269 -0.41533,-5.32981 -0.16275,-12.33394 0.56129,-15.56475 5.11108,-22.80668 3.17184,-32.4297 -9.10262,-45.16951 -7.85041,-8.14804 -8.98842,-10.05248 -10.31169,-17.25662 -2.16003,-11.75971 -6.08031,-19.57508 -12.1221,-24.16632 -5.23767,-3.98019 -5.54613,-4.0326 -21.8534,-3.71406 -16.05261,0.31357 -16.88728,0.17966 -28.28313,-4.53766 -12.77927,-5.29 -15.80063,-5.67675 -25.42177,-3.25411 -5.58023,1.40511 -8.98592,4.25028 -27.14924,22.68101 -11.42271,11.5909 -21.80882,23.2665 -23.08023,25.94579 -2.40367,5.06536 -3.01349,23.62852 -0.88605,26.97178 0.58807,0.92417 1.07829,14.92224 1.08939,31.10687 l 0.0202,29.42661 3.738,4.90313 c 2.19176,2.87495 7.96719,7.11265 13.96204,10.24462 5.62322,2.93782 14.62208,8.28222 19.99747,11.87647 11.17798,7.47415 23.03737,14.24673 23.03737,13.15603 0,-0.4069 1.04666,-0.15407 2.32593,0.56183 2.42052,1.3546 11.17882,0.80153 17.23855,-1.08855 z M 777.25632,677.5613 c 1.3279,-4.18382 -3.15365,-8.34306 -15.45701,-14.34535 -8.02954,-3.91727 -10.41046,-5.74897 -10.41046,-8.00904 0,-1.6116 2.55596,-7.84309 5.67991,-13.84773 14.573,-28.01112 35.13088,-34.59734 48.76288,-15.62235 4.71383,6.56138 7.77313,8.43646 10.0499,6.1597 3.52734,-3.52734 -6.53097,-19.46793 -14.68324,-23.27025 -17.58141,-8.20017 -36.94434,1.39098 -48.93885,24.24116 -11.80256,22.48449 -12.73052,30.06885 -4.17798,34.14726 2.63907,1.25849 5.61978,2.28816 6.62379,2.28816 1.00401,0 5.5378,2.46433 10.07511,5.47629 9.59617,6.37014 11.22209,6.73272 12.47595,2.78215 z"
     id="path150"
     inkscape:connector-curvature="0" />
  <path
     style="fill:#66ff00;stroke-width:1.39620399"
     d="m 480.67758,1190.595 c -5.84778,-4.096 -8.77616,-13.1275 -14.6512,-45.1865 -3.83627,-20.9339 -5.26778,-32.957 -8.56121,-71.9046 l -2.24322,-26.5278 -5.6772,-9.4542 c -5.20131,-8.6618 -5.59821,-10.0077 -4.73484,-16.0564 2.76153,-19.3469 2.71392,-20.5166 -1.01136,-24.84752 -2.90534,-3.37762 -4.59972,-4.09387 -9.68486,-4.09387 -11.01624,0 -18.31585,7.83069 -24.07794,25.82979 -2.71627,8.4847 -7.63905,18.1506 -9.24408,18.1506 -0.56759,0 -2.87719,-1.5527 -5.13246,-3.4503 -2.86288,-2.4089 -4.83931,-6.0962 -6.54847,-12.2168 -1.34641,-4.8216 -3.32978,-10.4836 -4.40751,-12.5823 -2.13935,-4.1662 -8.45333,-8.0519 -13.08377,-8.0519 -2.06814,0 -3.58037,-1.54387 -5.12842,-5.23574 -3.85322,-9.18938 -14.15757,-51.8124 -19.25566,-79.6494 -7.1826,-39.21892 -6.42272,-45.09802 3.36611,-26.04292 6.65472,12.95422 17.03586,23.6112 25.08175,25.7481 11.2613,2.991 23.23193,-1.8 29.38893,-11.76225 1.69304,-2.73938 3.36265,-4.98068 3.71026,-4.98068 0.3476,0 4.4161,4.0452 9.04108,8.98935 10.65506,11.39025 17.97938,15.07612 29.82267,15.0078 5.32421,-0.0307 10.60991,-0.94823 13.21067,-2.29312 3.15659,-1.6323 5.05029,-1.85933 6.9646,-0.83483 4.058,2.17177 9.4978,9.2502 11.29592,14.69857 1.26415,3.8304 2.37464,4.92218 5.00669,4.92218 2.58325,0 3.38224,-0.747 3.38224,-3.16215 0,-4.48628 -4.96012,-13.34295 -11.13099,-19.87522 l -5.27582,-5.5848 2.39012,-5.24918 c 2.35734,-5.1771 2.4245,-5.21107 4.8974,-2.47852 4.71067,5.20522 13.59667,8.4258 23.248,8.4258 17.06447,0 28.09041,-8.61443 34.07045,-26.61863 l 2.21436,-6.66682 6.40694,2.8341 c 9.23479,4.08495 20.7433,3.07972 28.69101,-2.5062 7.64788,-5.3751 14.51725,-18.31875 15.81646,-29.80215 l 0.94337,-8.33828 4.36345,2.26523 c 2.39991,1.24582 8.79696,2.55285 14.21565,2.90445 10.21179,0.66255 16.07265,-1.22115 23.87672,-7.674 4.27128,-3.53175 11.45348,-15.43313 13.17767,-21.83633 l 1.46116,-5.42632 8.53824,0.966 c 4.69604,0.5313 10.3809,1.91887 12.63303,3.08347 4.01552,2.07653 4.07679,2.2767 3.16446,10.34055 -1.43229,12.65978 -4.72876,22.01378 -9.61426,27.28133 -3.63789,3.92235 -6.22981,5.16202 -14.22207,6.80205 -14.41219,2.95755 -16.78967,6.09307 -18.12503,23.90422 -1.15516,15.40778 -2.25279,19.25505 -6.93234,24.29865 -3.07955,3.31913 -3.17266,4.0047 -1.89635,13.96207 2.62684,20.4936 -0.0941,28.9098 -13.94782,43.1418 -4.934,5.06873 -9.55639,10.73963 -10.27197,12.60195 -0.82668,2.15153 -0.74935,7.02585 0.21207,13.36838 2.1847,14.41249 -1.15726,20.87159 -11.68275,22.57969 -6.31675,1.0251 -8.77037,-0.8946 -10.77638,-8.4312 -2.8577,-10.73652 -7.01895,-12.77607 -16.34116,-8.00914 -10.40845,5.32234 -15.65167,12.39734 -15.65167,21.11994 0,2.9125 -2.39336,6.8813 -8.57554,14.2202 -4.71656,5.599 -9.83582,12.9939 -11.37614,16.433 -2.70522,6.0401 -2.73863,7.1397 -0.98123,32.2879 3.00667,43.025 0.68812,55.1011 -13.37611,69.6691 -8.79201,9.1069 -11.70585,14.557 -13.77287,25.7607 -1.2633,6.8473 -5.58679,15.5219 -8.24461,16.5418 -1.09642,0.4208 -3.3258,-0.1682 -4.95417,-1.3087 z M 426.28024,940.86456 c -0.76058,-6.48578 -2.71779,-9.07538 -6.85918,-9.07538 -3.66126,0 -17.07511,7.9839 -17.08051,10.16633 -0.006,2.52202 4.4005,2.43532 10.36709,-0.204 5.98904,-2.64923 6.38466,-2.67053 6.38466,-0.34305 0,3.34942 1.41957,4.54072 4.82926,4.05262 2.27972,-0.32632 2.75159,-1.2459 2.35868,-4.59652 z m 150.98143,-21.99022 c 1.32909,-0.9963 3.23565,-6.10238 4.44271,-11.89838 1.16296,-5.5842 3.31565,-12.49537 4.78376,-15.3582 2.9876,-5.82585 9.43673,-12.43882 10.8006,-11.07495 0.48924,0.48923 1.71201,6.02625 2.71728,12.3045 1.00525,6.27833 2.42907,12.01635 3.16404,12.75135 2.05194,2.05193 7.5553,-0.19567 6.59657,-2.69407 -0.44416,-1.15748 -1.45797,-6.59828 -2.25291,-12.09068 -1.81035,-12.50797 -3.27354,-16.04497 -7.24537,-17.5143 -6.84997,-2.53395 -14.99523,3.61455 -21.07075,15.9054 -3.08182,6.23453 -4.44439,11.4093 -7.07694,26.87693 -0.8402,4.93649 0.96946,5.91937 5.14101,2.7924 z"
     id="path152"
     inkscape:connector-curvature="0" />
  <path
     style="fill:#44aa00;stroke-width:1.39620399"
     d="m 387.91232,1089.2112 c -3.52408,-3.5381 -9.01832,-16.2386 -13.68165,-31.6265 -1.72252,-5.6838 -6.20713,-15.4224 -9.9658,-21.6411 -12.4426,-20.5864 -12.61319,-21.0654 -13.72168,-38.53279 -0.68235,-10.7523 -2.46356,-21.5316 -5.39207,-32.631 -2.40521,-9.1161 -4.01547,-16.9323 -3.57834,-17.36948 2.07084,-2.07082 4.97067,5.0412 10.42455,25.5669 3.26467,12.28658 6.90132,24.4089 8.08146,26.93843 2.16215,4.63444 6.31234,7.52204 13.17135,9.16434 3.79834,0.9094 3.73949,0.7967 10.46289,20.0294 2.62461,7.5078 10.27857,14.3762 16.02062,14.3762 7.15105,0 12.61579,-6.9378 17.8414,-22.6506 4.82977,-14.5224 9.63729,-20.6318 16.23539,-20.6318 5.36718,0 6.64948,4.2414 4.1724,13.8008 -3.02654,11.6798 -2.69463,15.4883 1.99411,22.8816 5.05618,7.9728 7.74309,13.184 9.16106,17.7675 0.9933,3.2108 0.61819,3.0719 -4.71386,-1.7453 -6.15247,-5.5584 -10.63688,-6.4969 -17.91089,-3.7486 -6.54067,2.4712 -11.57154,8.3749 -18.00343,21.127 -5.9413,11.7795 -13.47179,22.0665 -16.1535,22.0665 -0.72327,0 -2.72307,-1.4137 -4.44401,-3.1415 z"
     id="path154"
     inkscape:connector-curvature="0" />
  <path
     style="fill:#7fff2a;stroke-width:1.39620399"
     d="m 596.81705,1108.1605 c -4.46442,-6.8136 -2.30883,-52.6983 2.61875,-55.7437 2.03581,-1.2583 2.56065,-0.2348 5.25888,10.255 1.36728,5.3155 4.80887,13.8183 7.64799,18.8952 4.43821,7.9362 5.10248,10.2629 4.73727,16.5929 -0.38124,6.608 -0.91097,7.6894 -5.16891,10.5511 -6.50956,4.3751 -11.99775,4.1749 -15.09398,-0.5505 z"
     id="path156"
     inkscape:connector-curvature="0" />
  <path
     style="fill:#80e5ff;stroke-width:1.39620399"
     d="m 254.43665,778.74809 c -5.86394,-2.46683 -14.31911,-9.19806 -27.76082,-22.10072 l -10.21185,-9.80232 13.52322,-1.69833 c 7.43776,-0.93408 16.24288,-2.62503 19.56692,-3.75764 l 6.04371,-2.0593 0.70368,5.82551 c 0.75503,6.25048 3.22256,34.99305 3.03709,35.37682 -0.0614,0.12713 -2.26729,-0.67575 -4.90195,-1.78402 z"
     id="path158"
     inkscape:connector-curvature="0" />
  <path
     style="fill:#006680;stroke-width:1.39620399"
     d="m 205.58704,735.29763 c -2.43068,-2.70007 -2.27091,-2.75415 10.64147,-3.60233 7.4289,-0.48799 17.12623,-2.17981 22.37982,-3.90444 8.94143,-2.93527 9.3692,-2.95412 12.04684,-0.53088 1.52692,1.38184 2.77622,2.96057 2.77622,3.50827 0,2.16759 -18.21057,6.00527 -31.41458,6.62028 -12.5803,0.58595 -14.20626,0.37903 -16.42977,-2.0909 z"
     id="path160"
     inkscape:connector-curvature="0" />
  <path
     style="fill:#aaeeff;stroke-width:1.39620399"
     d="m 293.41043,551.86533 c -3.16727,-4.52191 -2.84879,-13.14841 0.76071,-20.60465 4.37957,-9.04696 20.76409,-25.65073 34.00762,-34.46267 16.41042,-10.91912 48.92335,-26.15617 68.29992,-32.00848 19.64309,-5.93281 49.79384,-12.13246 76.15674,-15.65948 14.48754,-1.93825 28.05575,-2.51644 58.64057,-2.49886 38.09626,0.0219 40.56522,0.1872 57.94247,3.87996 38.15709,8.1086 61.43209,17.33285 77.64479,30.77188 14.48602,12.00774 19.71421,23.30805 14.02621,30.31645 -2.5453,3.13614 -3.69412,3.40932 -13.7156,3.26135 -7.29229,-0.10768 -19.31356,-2.07039 -36.06928,-5.88903 -46.23343,-10.53664 -88.92157,-15.98145 -125.65837,-16.02756 -30.15174,-0.0379 -45.75489,2.84575 -83.07413,15.35278 -33.55222,11.24457 -46.04403,16.19499 -82.40697,32.6573 -22.28214,10.08762 -30.32147,13.07899 -36.4322,13.55612 -6.99537,0.54621 -8.08699,0.26096 -10.12248,-2.64511 z"
     id="path162"
     inkscape:connector-curvature="0" />
  <path
     style="fill:#aaeeff;stroke-width:1.39620399"
     d=""
     id="path166"
     inkscape:connector-curvature="0" />
</svg>
